<svg width="65" height="64" viewBox="0 0 65 64" fill="none" xmlns="http://www.w3.org/2000/svg">
<path d="M17.5 40.9997C16.5717 40.9997 15.6815 40.631 15.0251 39.9746C14.3688 39.3182 14 38.428 14 37.4997V17.4997C14 16.5715 14.3688 15.6812 15.0251 15.0248C15.6815 14.3685 16.5717 13.9997 17.5 13.9997C18.4283 13.9997 19.3185 14.3685 19.9749 15.0248C20.6313 15.6812 21 16.5715 21 17.4997V37.4997C21 38.428 20.6313 39.3182 19.9749 39.9746C19.3185 40.631 18.4283 40.9997 17.5 40.9997ZM17.5 15.9997C17.1022 15.9997 16.7206 16.1578 16.4393 16.4391C16.158 16.7204 16 17.1019 16 17.4997V37.4997C16 37.8975 16.158 38.2791 16.4393 38.5604C16.7206 38.8417 17.1022 38.9997 17.5 38.9997C17.8978 38.9997 18.2794 38.8417 18.5607 38.5604C18.842 38.2791 19 37.8975 19 37.4997V17.4997C19 17.1019 18.842 16.7204 18.5607 16.4391C18.2794 16.1578 17.8978 15.9997 17.5 15.9997Z" fill="#262626"/>
<path d="M32.5 40.9997C30.9314 41.0014 29.393 40.5685 28.0555 39.749C26.718 38.9296 25.6336 37.7557 24.9225 36.3575C24.2115 34.9593 23.9017 33.3915 24.0275 31.828C24.1533 30.2644 24.7097 28.7663 25.635 27.4997C24.7097 26.2323 24.1532 24.7335 24.0274 23.1693C23.9015 21.605 24.2112 20.0365 24.922 18.6375C25.6328 17.2384 26.717 16.0634 28.0545 15.2427C29.3921 14.422 30.9307 13.9876 32.5 13.9876C34.0693 13.9876 35.6079 14.422 36.9455 15.2427C38.283 16.0634 39.3672 17.2384 40.078 18.6375C40.7889 20.0365 41.0985 21.605 40.9726 23.1693C40.8468 24.7335 40.2903 26.2323 39.365 27.4997C40.2903 28.7663 40.8467 30.2644 40.9725 31.828C41.0983 33.3915 40.7885 34.9593 40.0775 36.3575C39.3665 37.7557 38.282 38.9296 36.9445 39.749C35.607 40.5685 34.0686 41.0014 32.5 40.9997ZM32.5 15.9997C31.2445 15.998 30.0155 16.3604 28.9618 17.043C27.9081 17.7256 27.0749 18.6991 26.5633 19.8456C26.0517 20.9922 25.8836 22.2624 26.0793 23.5026C26.275 24.7427 26.8262 25.8995 27.666 26.8327C27.8302 27.0161 27.9209 27.2536 27.9209 27.4997C27.9209 27.7459 27.8302 27.9833 27.666 28.1667C26.8262 29.1009 26.2751 30.2584 26.0794 31.4992C25.8837 32.74 26.0516 34.011 26.563 35.1583C27.0744 36.3057 27.9073 37.2803 28.961 37.9642C30.0146 38.6481 31.2438 39.0121 32.5 39.0121C33.7562 39.0121 34.9854 38.6481 36.039 37.9642C37.0927 37.2803 37.9256 36.3057 38.437 35.1583C38.9484 34.011 39.1163 32.74 38.9206 31.4992C38.7249 30.2584 38.1738 29.1009 37.334 28.1667C37.1698 27.9833 37.0791 27.7459 37.0791 27.4997C37.0791 27.2536 37.1698 27.0161 37.334 26.8327C38.1738 25.8995 38.725 24.7427 38.9207 23.5026C39.1164 22.2624 38.9483 20.9922 38.4367 19.8456C37.9251 18.6991 37.0919 17.7256 36.0382 17.043C34.9845 16.3604 33.7555 15.998 32.5 15.9997Z" fill="#262626"/>
<path d="M32 54.9997C29.998 55.0038 28.0331 54.4595 26.3186 53.4259C24.604 52.3923 23.2052 50.909 22.274 49.1367C20.6016 49.8419 18.7807 50.1224 16.9737 49.953C15.1666 49.7837 13.4295 49.1698 11.9173 48.1662C10.405 47.1625 9.16464 45.8003 8.30666 44.2009C7.44869 42.6015 6.99979 40.8147 7 38.9997C7 38.7587 7.01 38.5147 7.03 38.2567C4.93489 37.4471 3.13811 36.015 1.88149 34.1533C0.62487 32.2916 -0.0312562 30.0896 0.00142377 27.8438C0.0341037 25.5979 0.754021 23.4159 2.06427 21.5916C3.37453 19.7672 5.21222 18.3881 7.33 17.6397C7.11209 16.7766 7.00125 15.8899 7 14.9997C6.99708 13.1412 7.46584 11.3123 8.36237 9.68435C9.25891 8.05637 10.5539 6.68252 12.1261 5.69144C13.6983 4.70035 15.4963 4.12444 17.3518 4.01763C19.2072 3.91082 21.0594 4.2766 22.735 5.08072C23.7279 3.52345 25.0973 2.24157 26.7167 1.35355C28.336 0.465523 30.1531 0 32 0C33.8469 0 35.664 0.465523 37.2833 1.35355C38.9027 2.24157 40.2721 3.52345 41.265 5.08072C43.1444 4.17743 45.2422 3.82803 47.3129 4.07339C49.3836 4.31875 51.3416 5.14872 52.9579 6.46621C54.5741 7.78369 55.7817 9.53421 56.4395 11.5129C57.0972 13.4917 57.1779 15.6168 56.672 17.6397C58.7898 18.3881 60.6275 19.7672 61.9377 21.5916C63.248 23.4159 63.9679 25.5979 64.0006 27.8438C64.0333 30.0896 63.3771 32.2916 62.1205 34.1533C60.8639 36.015 59.0671 37.4471 56.972 38.2567C56.992 38.5147 57.002 38.7567 57.002 38.9997C57.0023 40.815 56.5535 42.6021 55.6954 44.2017C54.8373 45.8013 53.5967 47.1637 52.0842 48.1674C50.5717 49.1711 48.8343 49.7849 47.0269 49.954C45.2196 50.1231 43.3985 49.8424 41.726 49.1367C40.7948 50.909 39.396 52.3923 37.6814 53.4259C35.9669 54.4595 34.002 55.0038 32 54.9997ZM22.752 46.7997C22.8662 46.7996 22.9795 46.8192 23.087 46.8577C23.2192 46.9046 23.34 46.9788 23.4417 47.0755C23.5433 47.1721 23.6235 47.2891 23.677 47.4187C24.3557 49.0682 25.5092 50.4788 26.9911 51.4715C28.4729 52.4642 30.2164 52.9942 32 52.9942C33.7836 52.9942 35.5271 52.4642 37.0089 51.4715C38.4908 50.4788 39.6443 49.0682 40.323 47.4187C40.3763 47.2891 40.4562 47.172 40.5576 47.0753C40.659 46.9785 40.7796 46.9041 40.9117 46.857C41.0437 46.8098 41.1841 46.791 41.3239 46.8016C41.4637 46.8122 41.5996 46.8521 41.723 46.9187C43.1884 47.7256 44.8504 48.1061 46.5209 48.0172C48.1914 47.9282 49.8036 47.3733 51.175 46.4153C52.5463 45.4573 53.6221 44.1345 54.2804 42.5966C54.9388 41.0587 55.1534 39.3673 54.9 37.7137C54.8658 37.477 54.9176 37.2358 55.0461 37.034C55.1745 36.8321 55.371 36.683 55.6 36.6137C57.4861 36.0467 59.1339 34.876 60.2903 33.2816C61.4466 31.6872 62.0474 29.7573 62.0005 27.7883C61.9536 25.8193 61.2615 23.9202 60.0306 22.3827C58.7997 20.8452 57.098 19.7543 55.187 19.2777C55.0523 19.2438 54.9261 19.1823 54.8165 19.0969C54.7069 19.0116 54.6163 18.9043 54.5504 18.782C54.4846 18.6597 54.4449 18.525 54.434 18.3866C54.4231 18.2481 54.4411 18.1088 54.487 17.9777C55.1034 16.2345 55.1669 14.3436 54.6689 12.563C54.1708 10.7823 53.1353 9.19877 51.7039 8.02842C50.2725 6.85808 48.5148 6.15795 46.6707 6.02359C44.8266 5.88924 42.986 6.32721 41.4 7.27772C41.2824 7.34665 41.152 7.39104 41.0167 7.40823C40.8815 7.42541 40.7441 7.41504 40.613 7.37772C40.482 7.34057 40.36 7.27706 40.2544 7.19109C40.1488 7.10511 40.0619 6.99848 39.999 6.87772C39.2434 5.40829 38.0975 4.17551 36.6871 3.31479C35.2767 2.45406 33.6563 1.99869 32.004 1.99869C30.3517 1.99869 28.7313 2.45406 27.3209 3.31479C25.9105 4.17551 24.7646 5.40829 24.009 6.87772C23.9464 6.99887 23.8596 7.10593 23.7541 7.19232C23.6486 7.2787 23.5265 7.34259 23.3954 7.38006C23.2643 7.41752 23.1269 7.42777 22.9916 7.41017C22.8564 7.39258 22.7262 7.3475 22.609 7.27772C21.0232 6.32559 19.182 5.88633 17.3371 6.01998C15.4923 6.15363 13.7337 6.85366 12.3016 8.02442C10.8696 9.19518 9.83394 10.7796 9.33625 12.5611C8.83856 14.3426 8.90308 16.2343 9.521 17.9777C9.56687 18.1088 9.58492 18.2481 9.574 18.3866C9.56307 18.525 9.52342 18.6597 9.45756 18.782C9.39171 18.9043 9.30109 19.0116 9.19149 19.0969C9.08189 19.1823 8.95572 19.2438 8.821 19.2777C6.90928 19.7531 5.20654 20.843 3.97448 22.3801C2.74242 23.9172 2.04921 25.8164 2.00139 27.7857C1.95356 29.7551 2.55378 31.6856 3.70978 33.2807C4.86578 34.8758 6.5136 36.0472 8.4 36.6147C8.62896 36.684 8.82549 36.8331 8.95393 37.035C9.08236 37.2368 9.13419 37.478 9.1 37.7147C8.86009 39.3648 9.08365 41.049 9.7457 42.5794C10.4078 44.1097 11.4822 45.4259 12.8491 46.3808C14.216 47.3357 15.8215 47.8918 17.4861 47.987C19.1508 48.0822 20.8092 47.7126 22.276 46.9197C22.4222 46.8408 22.5858 46.7995 22.752 46.7997Z" fill="#262626"/>
<path d="M4 63.9997C3.20888 63.9997 2.43552 63.7651 1.77772 63.3256C1.11992 62.8861 0.607234 62.2614 0.304484 61.5305C0.00173312 60.7996 -0.0774802 59.9953 0.0768607 59.2194C0.231202 58.4434 0.612165 57.7307 1.17157 57.1713C1.73098 56.6119 2.44372 56.2309 3.21964 56.0766C3.99556 55.9222 4.79983 56.0015 5.53074 56.3042C6.26164 56.607 6.88635 57.1196 7.32588 57.7774C7.76541 58.4352 8 59.2086 8 59.9997C8 61.0606 7.57857 62.078 6.82843 62.8281C6.07828 63.5783 5.06087 63.9997 4 63.9997ZM4 57.9997C3.60444 57.9997 3.21776 58.117 2.88886 58.3368C2.55996 58.5565 2.30362 58.8689 2.15224 59.2344C2.00087 59.5998 1.96126 60.0019 2.03843 60.3899C2.1156 60.7779 2.30608 61.1342 2.58579 61.4139C2.86549 61.6936 3.22186 61.8841 3.60982 61.9613C3.99778 62.0385 4.39992 61.9989 4.76537 61.8475C5.13082 61.6961 5.44318 61.4398 5.66294 61.1109C5.8827 60.782 6 60.3953 6 59.9997C6 59.4693 5.78929 58.9606 5.41422 58.5855C5.03914 58.2104 4.53044 57.9997 4 57.9997Z" fill="#262626"/>
<path d="M14 59.9997C13.2089 59.9997 12.4355 59.7651 11.7777 59.3256C11.1199 58.8861 10.6072 58.2614 10.3045 57.5305C10.0017 56.7996 9.92252 55.9953 10.0769 55.2194C10.2312 54.4434 10.6122 53.7307 11.1716 53.1713C11.731 52.6119 12.4437 52.2309 13.2196 52.0766C13.9956 51.9222 14.7998 52.0015 15.5307 52.3042C16.2616 52.607 16.8864 53.1196 17.3259 53.7774C17.7654 54.4352 18 55.2086 18 55.9997C18 57.0606 17.5786 58.078 16.8284 58.8281C16.0783 59.5783 15.0609 59.9997 14 59.9997ZM14 53.9997C13.6044 53.9997 13.2178 54.117 12.8889 54.3368C12.56 54.5565 12.3036 54.8689 12.1522 55.2344C12.0009 55.5998 11.9613 56.0019 12.0384 56.3899C12.1156 56.7779 12.3061 57.1342 12.5858 57.4139C12.8655 57.6936 13.2219 57.8841 13.6098 57.9613C13.9978 58.0385 14.3999 57.9989 14.7654 57.8475C15.1308 57.6961 15.4432 57.4398 15.6629 57.1109C15.8827 56.782 16 56.3953 16 55.9997C16 55.4693 15.7893 54.9606 15.4142 54.5855C15.0391 54.2104 14.5304 53.9997 14 53.9997Z" fill="#262626"/>
<path d="M32.5 25.9997C31.8078 25.9997 31.1311 25.7945 30.5555 25.4099C29.9799 25.0253 29.5313 24.4787 29.2664 23.8391C29.0015 23.1996 28.9322 22.4958 29.0673 21.8169C29.2023 21.138 29.5356 20.5143 30.0251 20.0248C30.5146 19.5354 31.1383 19.202 31.8172 19.067C32.4961 18.9319 33.1999 19.0012 33.8394 19.2661C34.4789 19.5311 35.0256 19.9797 35.4101 20.5552C35.7947 21.1308 36 21.8075 36 22.4997C36 23.428 35.6312 24.3182 34.9749 24.9746C34.3185 25.631 33.4283 25.9997 32.5 25.9997ZM32.5 20.9997C32.2033 20.9997 31.9133 21.0877 31.6666 21.2525C31.42 21.4173 31.2277 21.6516 31.1142 21.9257C31.0007 22.1998 30.9709 22.5014 31.0288 22.7924C31.0867 23.0833 31.2296 23.3506 31.4393 23.5604C31.6491 23.7702 31.9164 23.913 32.2074 23.9709C32.4983 24.0288 32.7999 23.9991 33.074 23.8855C33.3481 23.772 33.5824 23.5798 33.7472 23.3331C33.912 23.0864 34 22.7964 34 22.4997C34 22.1019 33.842 21.7204 33.5607 21.4391C33.2794 21.1578 32.8978 20.9997 32.5 20.9997Z" fill="#262626"/>
<path d="M32.5 35.9997C31.8078 35.9997 31.1311 35.7945 30.5555 35.4099C29.9799 35.0253 29.5313 34.4787 29.2664 33.8391C29.0015 33.1996 28.9322 32.4958 29.0673 31.8169C29.2023 31.138 29.5356 30.5143 30.0251 30.0248C30.5146 29.5354 31.1383 29.202 31.8172 29.067C32.4961 28.9319 33.1999 29.0012 33.8394 29.2661C34.4789 29.5311 35.0256 29.9797 35.4101 30.5552C35.7947 31.1308 36 31.8075 36 32.4997C36 33.428 35.6312 34.3182 34.9749 34.9746C34.3185 35.631 33.4283 35.9997 32.5 35.9997ZM32.5 30.9997C32.2033 30.9997 31.9133 31.0877 31.6666 31.2525C31.42 31.4173 31.2277 31.6516 31.1142 31.9257C31.0007 32.1998 30.9709 32.5014 31.0288 32.7924C31.0867 33.0833 31.2296 33.3506 31.4393 33.5604C31.6491 33.7702 31.9164 33.913 32.2074 33.9709C32.4983 34.0288 32.7999 33.9991 33.074 33.8855C33.3481 33.772 33.5824 33.5798 33.7472 33.3331C33.912 33.0864 34 32.7964 34 32.4997C34 32.1019 33.842 31.7204 33.5607 31.4391C33.2794 31.1578 32.8978 30.9997 32.5 30.9997Z" fill="#262626"/>
<path d="M49 34.9997C48.0983 34.9997 47.2335 34.6415 46.5958 34.0039C45.9582 33.3663 45.6 32.5015 45.6 31.5997V31.3997H45.4C44.4983 31.3997 43.6335 31.0415 42.9958 30.4039C42.3582 29.7663 42 28.9015 42 27.9997C42 27.098 42.3582 26.2332 42.9958 25.5956C43.6335 24.9579 44.4983 24.5997 45.4 24.5997H45.6V24.3997C45.6 23.498 45.9582 22.6332 46.5958 21.9956C47.2335 21.3579 48.0983 20.9997 49 20.9997C49.9017 20.9997 50.7665 21.3579 51.4042 21.9956C52.0418 22.6332 52.4 23.498 52.4 24.3997V24.5997H52.6C53.5017 24.5997 54.3665 24.9579 55.0042 25.5956C55.6418 26.2332 56 27.098 56 27.9997C56 28.9015 55.6418 29.7663 55.0042 30.4039C54.3665 31.0415 53.5017 31.3997 52.6 31.3997H52.4V31.5997C52.4 32.5015 52.0418 33.3663 51.4042 34.0039C50.7665 34.6415 49.9017 34.9997 49 34.9997ZM45.4 26.5997C45.0287 26.5997 44.6726 26.7472 44.41 27.0098C44.1475 27.2723 44 27.6284 44 27.9997C44 28.371 44.1475 28.7271 44.41 28.9897C44.6726 29.2522 45.0287 29.3997 45.4 29.3997H46.6C46.8652 29.3997 47.1196 29.5051 47.3071 29.6926C47.4946 29.8802 47.6 30.1345 47.6 30.3997V31.5997C47.6 31.971 47.7475 32.3271 48.0101 32.5897C48.2726 32.8522 48.6287 32.9997 49 32.9997C49.3713 32.9997 49.7274 32.8522 49.9899 32.5897C50.2525 32.3271 50.4 31.971 50.4 31.5997V30.3997C50.4 30.1345 50.5054 29.8802 50.6929 29.6926C50.8804 29.5051 51.1348 29.3997 51.4 29.3997H52.6C52.9713 29.3997 53.3274 29.2522 53.59 28.9897C53.8525 28.7271 54 28.371 54 27.9997C54 27.6284 53.8525 27.2723 53.59 27.0098C53.3274 26.7472 52.9713 26.5997 52.6 26.5997H51.4C51.1348 26.5997 50.8804 26.4944 50.6929 26.3068C50.5054 26.1193 50.4 25.8649 50.4 25.5997V24.3997C50.4 24.0284 50.2525 23.6723 49.9899 23.4098C49.7274 23.1472 49.3713 22.9997 49 22.9997C48.6287 22.9997 48.2726 23.1472 48.0101 23.4098C47.7475 23.6723 47.6 24.0284 47.6 24.3997V25.5997C47.6 25.8649 47.4946 26.1193 47.3071 26.3068C47.1196 26.4944 46.8652 26.5997 46.6 26.5997H45.4Z" fill="#262626"/>
</svg>
