<svg width="59" height="33" viewBox="0 0 59 33" fill="none" xmlns="http://www.w3.org/2000/svg">
<path d="M2.21695 13.7209C14.5011 13.9384 26.7852 14.156 38.9796 14.3241C41.8665 14.3941 44.8432 14.5135 47.7796 14.4937C47.8694 14.5431 47.9189 14.4534 48.0086 14.5028C41.2341 18.7262 35.379 24.0415 30.5331 30.4981C29.562 31.8352 31.6483 33.5702 32.7988 32.332C40.367 24.3333 48.9698 19.1283 58.4079 13.6816C58.9245 13.3812 58.9521 12.6943 58.6517 12.1777C59.1464 11.2801 58.2856 9.86954 57.1902 9.73386C46.7344 8.53464 38.4587 4.4414 28.7505 0.611779C26.8565 -0.198103 26.0099 2.61181 27.4367 3.6323C32.4262 7.31849 38.5753 9.53753 44.8913 11.0294C42.9202 10.9962 40.9492 10.963 38.9782 10.9298C26.694 10.7122 14.4996 10.5441 2.25579 10.4657C1.20066 10.4693 0.665686 11.2276 0.678414 12.0537C0.691138 12.8799 1.16182 13.7244 2.21695 13.7209Z" fill="#050000"/>
</svg>
