<svg width="59" height="33" viewBox="0 0 59 33" fill="none" xmlns="http://www.w3.org/2000/svg">
<path d="M56.7362 13.7209C44.452 13.9384 32.1679 14.156 19.9735 14.3241C17.0866 14.3941 14.1099 14.5135 11.1735 14.4937C11.0837 14.5431 11.0343 14.4534 10.9445 14.5028C17.7191 18.7262 23.5742 24.0415 28.4201 30.4981C29.3911 31.8352 27.3048 33.5702 26.1543 32.332C18.5862 24.3333 9.98334 19.1283 0.545191 13.6816C0.0285846 13.3812 0.00102724 12.6943 0.301385 12.1777C-0.193308 11.2801 0.667481 9.86954 1.76289 9.73386C12.2188 8.53464 20.4944 4.4414 30.2026 0.611779C32.0966 -0.198103 32.9433 2.61181 31.5164 3.6323C26.5269 7.31849 20.3778 9.53753 14.0619 11.0294C16.0329 10.9962 18.0039 10.963 19.975 10.9298C32.2591 10.7122 44.4535 10.5441 56.6973 10.4657C57.7525 10.4693 58.2874 11.2276 58.2747 12.0537C58.262 12.8799 57.7913 13.7244 56.7362 13.7209Z" fill="#5F5F5F"/>
</svg>
