<svg width="62" height="63" viewBox="0 0 62 63" fill="none" xmlns="http://www.w3.org/2000/svg">
<path fill-rule="evenodd" clip-rule="evenodd" d="M44.2857 63H17.7143C13.0162 63 8.51045 61.1303 5.18838 57.8022C1.86631 54.4741 0 49.9602 0 45.2535V17.7465C0 13.0398 1.86631 8.52593 5.18838 5.19782C8.51045 1.86971 13.0162 0 17.7143 0H44.2857C48.9838 0 53.4895 1.86971 56.8116 5.19782C60.1337 8.52593 62 13.0398 62 17.7465V45.2535C62 47.584 61.5418 49.8917 60.6516 52.0448C59.7614 54.1979 58.4565 56.1543 56.8116 57.8022C55.1667 59.4501 53.2139 60.7573 51.0647 61.6491C48.9155 62.541 46.612 63 44.2857 63ZM56.2429 16.4155C56.2429 13.4738 55.0764 10.6527 53.0001 8.57258C50.9238 6.49251 48.1078 5.32394 45.1714 5.32394H16.3857C13.4494 5.32394 10.6334 6.49251 8.55706 8.57258C6.48076 10.6527 5.31429 13.4738 5.31429 16.4155V45.2535C5.31429 48.1952 6.48076 51.0164 8.55706 53.0964C10.6334 55.1765 13.4494 56.3451 16.3857 56.3451H45.1714C48.1078 56.3451 50.9238 55.1765 53.0001 53.0964C55.0764 51.0164 56.2429 48.1952 56.2429 45.2535V16.4155ZM47.3857 18.1901C46.5974 18.1901 45.8268 17.956 45.1714 17.5172C44.5159 17.0785 44.0051 16.4548 43.7034 15.7252C43.4017 14.9956 43.3228 14.1928 43.4766 13.4182C43.6304 12.6436 44.01 11.9322 44.5674 11.3737C45.1248 10.8153 45.835 10.435 46.6081 10.2809C47.3813 10.1269 48.1827 10.206 48.911 10.5082C49.6392 10.8104 50.2618 11.3222 50.6997 11.9788C51.1377 12.6355 51.3714 13.4075 51.3714 14.1972C51.3714 15.2562 50.9515 16.2718 50.2041 17.0206C49.4566 17.7695 48.4428 18.1901 47.3857 18.1901ZM30.7786 47.4718C27.5816 47.4718 24.4564 46.5221 21.7982 44.7427C19.14 42.9633 17.0682 40.4342 15.8447 37.4752C14.6213 34.5162 14.3012 31.2602 14.9249 28.1189C15.5486 24.9777 17.0881 22.0922 19.3487 19.8275C21.6093 17.5628 24.4895 16.0205 27.6251 15.3957C30.7606 14.7708 34.0107 15.0915 36.9644 16.3172C39.918 17.5428 42.4425 19.6184 44.2187 22.2815C45.9948 24.9445 46.9429 28.0754 46.9429 31.2782C46.9429 35.573 45.2399 39.6919 42.2085 42.7288C39.1771 45.7657 35.0656 47.4718 30.7786 47.4718ZM30.7786 20.8521C28.7202 20.8521 26.7081 21.4636 24.9967 22.6092C23.2852 23.7548 21.9513 25.3832 21.1636 27.2883C20.3759 29.1934 20.1698 31.2897 20.5714 33.3122C20.973 35.3346 21.9641 37.1924 23.4196 38.6505C24.8751 40.1086 26.7295 41.1016 28.7483 41.5039C30.767 41.9062 32.8595 41.6997 34.7612 40.9106C36.6629 40.1215 38.2882 38.7851 39.4318 37.0706C40.5754 35.356 41.1857 33.3402 41.1857 31.2782C41.1857 28.513 40.0893 25.8611 38.1376 23.9058C36.1858 21.9506 33.5387 20.8521 30.7786 20.8521Z" fill="#262626"/>
</svg>
