<svg width="36" height="30" viewBox="0 0 36 30" fill="none" xmlns="http://www.w3.org/2000/svg">
<path d="M14.2407 1.47254e-06C13.8891 0.0323528 13.5763 0.314997 13.5116 0.658785L11.4269 12.1622C7.86483 12.1622 4.29097 12.1622 0.734525 12.1622C0.236735 12.2086 -0.13014 12.7874 0.0438714 13.2517L6.18302 29.4679C6.29731 29.7771 6.618 29.9995 6.95041 30H29.0513C29.3838 30 29.7044 29.7771 29.8187 29.4679L35.9579 13.2517C36.1379 12.7644 35.7144 12.163 35.1905 12.1622H24.5749L22.4901 0.658785C22.4193 0.291301 22.0621 -0.000756636 21.6844 1.47254e-06C19.2055 1.47254e-06 16.7138 1.47254e-06 14.2407 1.47254e-06ZM14.9953 1.62162H21.0065L22.9122 12.1622H13.0896L14.9953 1.62162ZM2.00072 13.7838H11.1327L10.8897 15.1014C10.2624 15.3285 9.81535 15.9216 9.81535 16.6216C9.81535 17.5172 10.5483 18.2432 11.4525 18.2432C12.3566 18.2432 13.0896 17.5172 13.0896 16.6216C13.0896 16.1211 12.861 15.6775 12.5012 15.3801L12.7954 13.7838H23.2064L23.5005 15.3801C23.1407 15.6775 22.9122 16.1211 22.9122 16.6216C22.9122 17.5172 23.6452 18.2432 24.5493 18.2432C25.4534 18.2432 26.1864 17.5172 26.1864 16.6216C26.1864 15.9216 25.7393 15.3285 25.1121 15.1014L24.869 13.7838H34.001L28.4758 28.3784H7.52596L2.00072 13.7838Z" fill="#262626"/>
</svg>
