<svg width="20" height="20" viewBox="0 0 20 20" fill="none" xmlns="http://www.w3.org/2000/svg">
<path fill-rule="evenodd" clip-rule="evenodd" d="M10.0044 19.9995C8.02622 20.0004 6.09221 19.4145 4.44704 18.316C2.80188 17.2176 1.51947 15.6558 0.762048 13.8284C0.00462709 12.0009 -0.193774 9.98991 0.191938 8.04969C0.577649 6.10947 1.53017 4.32722 2.92896 2.92843C4.32775 1.52964 6.10997 0.577162 8.05019 0.19145C9.99041 -0.194262 12.0015 0.00413882 13.8289 0.76156C15.6563 1.51898 17.218 2.80137 18.3165 4.44654C19.415 6.0917 20.0009 8.02572 20 10.0039C19.9997 12.6548 18.9465 15.1971 17.072 17.0716C15.1976 18.9461 12.6553 19.9992 10.0044 19.9995ZM17.2672 5.55186C17.785 6.45546 16.7474 4.64826 17.2672 5.55186V5.55186ZM18.0649 7.25912C17.3776 5.23383 15.9538 3.54111 14.0761 2.51714C12.1985 1.49317 10.0044 1.21285 7.92964 1.73189C5.85487 2.25092 4.0512 3.53134 2.87689 5.31881C1.70257 7.10628 1.24352 9.27004 1.59088 11.3804C1.93824 13.4907 3.06666 15.3931 4.75194 16.7099C6.43722 18.0267 8.55608 18.6614 10.6877 18.4881C12.8194 18.3147 14.8079 17.3459 16.2583 15.7742C17.7087 14.2024 18.5148 12.1426 18.5167 10.0039C18.5173 9.07042 18.3646 8.14317 18.0649 7.25912ZM12.5513 12.5148L9.5426 11.1154C9.41928 11.0436 9.32087 10.9358 9.2605 10.8064C9.20012 10.6771 9.18067 10.5324 9.20476 10.3917V6.10562C9.20476 5.92005 9.27848 5.74209 9.4097 5.61087C9.54092 5.47965 9.71888 5.40593 9.90445 5.40593C10.09 5.40593 10.268 5.47965 10.3992 5.61087C10.5304 5.74209 10.6041 5.92005 10.6041 6.10562V10.0719L13.251 11.3013C13.4119 11.3941 13.5294 11.547 13.5775 11.7264C13.6257 11.9058 13.6006 12.097 13.5078 12.2579C13.4151 12.4188 13.2622 12.5363 13.0828 12.5845C12.9034 12.6326 12.7122 12.6076 12.5513 12.5148Z" fill="#262626"/>
</svg>
