<svg width="26" height="18" viewBox="0 0 26 18" fill="none" xmlns="http://www.w3.org/2000/svg">
<path d="M25.0792 0H0.92081C0.676596 0 0.442385 0.096634 0.269699 0.268645C0.0970138 0.440656 0 0.673953 0 0.917213V17.0828C0 17.326 0.0970138 17.5593 0.269699 17.7314C0.442385 17.9034 0.676596 18 0.92081 18H25.0792C25.3234 18 25.5576 17.9034 25.7303 17.7314C25.903 17.5593 26 17.326 26 17.0828V0.917213C26 0.673953 25.903 0.440656 25.7303 0.268645C25.5576 0.096634 25.3234 0 25.0792 0ZM24.1584 16.1656H1.84162V1.83443H24.1584V16.1656ZM13 14.3208C14.0563 14.3208 15.0889 14.0088 15.9671 13.4242C16.8454 12.8397 17.5299 12.0088 17.9342 11.0367C18.3384 10.0647 18.4442 8.99502 18.2381 7.96307C18.032 6.93112 17.5234 5.98322 16.7764 5.23923C16.0295 4.49523 15.0779 3.98857 14.0419 3.7833C13.0059 3.57803 11.9321 3.68339 10.9562 4.08603C9.98032 4.48868 9.14621 5.17053 8.55937 6.04537C7.97253 6.92022 7.6593 7.94875 7.6593 9.00092C7.66125 10.4112 8.22455 11.7632 9.22571 12.7605C10.2269 13.7577 11.5842 14.3188 13 14.3208ZM13 5.51551C13.6921 5.51551 14.3686 5.71992 14.944 6.10291C15.5194 6.48589 15.9679 7.03023 16.2327 7.66711C16.4976 8.30398 16.5669 9.00478 16.4318 9.68089C16.2968 10.357 15.9636 10.978 15.4742 11.4655C14.9849 11.9529 14.3614 12.2849 13.6826 12.4194C13.0039 12.5538 12.3003 12.4848 11.661 12.221C11.0216 11.9572 10.4751 11.5105 10.0906 10.9373C9.70614 10.3641 9.50092 9.69027 9.50092 9.00092C9.50173 8.07666 9.8706 7.19048 10.5266 6.53682C11.1826 5.88316 12.0721 5.51542 13 5.51429V5.51551ZM2.60405 3.69331C2.60405 3.45005 2.70106 3.21675 2.87375 3.04474C3.04644 2.87273 3.28065 2.7761 3.52486 2.7761H4.55249C4.7967 2.7761 5.03091 2.87273 5.2036 3.04474C5.37628 3.21675 5.4733 3.45005 5.4733 3.69331C5.4733 3.93657 5.37628 4.16987 5.2036 4.34188C5.03091 4.51389 4.7967 4.61052 4.55249 4.61052H3.52486C3.40384 4.61052 3.284 4.58676 3.1722 4.54059C3.0604 4.49442 2.95884 4.42675 2.87332 4.34145C2.78779 4.25614 2.71999 4.15489 2.67379 4.04347C2.62759 3.93204 2.60389 3.81264 2.60405 3.69209V3.69331ZM20.5267 14.3079C20.5267 14.0647 20.6237 13.8314 20.7964 13.6593C20.9691 13.4873 21.2033 13.3907 21.4475 13.3907H22.4751C22.7194 13.3907 22.9536 13.4873 23.1262 13.6593C23.2989 13.8314 23.3959 14.0647 23.3959 14.3079C23.3959 14.5512 23.2989 14.7845 23.1262 14.9565C22.9536 15.1285 22.7194 15.2251 22.4751 15.2251H21.4475C21.2033 15.2251 20.9691 15.1285 20.7964 14.9565C20.6237 14.7845 20.5267 14.5512 20.5267 14.3079Z" fill="black"/>
</svg>
