<svg width="60" height="60" viewBox="0 0 60 60" fill="none" xmlns="http://www.w3.org/2000/svg">
<path d="M9.5 60C14.7 60 19 55.7 19 50.5C19 45.3 14.7 41 9.5 41C4.3 41 0 45.2 0 50.5C0 55.7 4.3 60 9.5 60ZM9.5 43C13.6 43 17 46.4 17 50.5C17 54.6 13.6 58 9.5 58C5.4 58 2 54.6 2 50.5C2 46.3 5.4 43 9.5 43Z" fill="black"/>
<path d="M4.3 48.9C4.9 48.9 5.3 48.5 5.3 47.9C5.3 47.7 5.4 47.6 5.6 47.6C5.8 47.6 5.9 47.7 5.9 47.9C5.9 48.5 6.3 48.9 6.9 48.9C7.5 48.9 7.9 48.5 7.9 47.9C7.9 46.6 6.9 45.6 5.6 45.6C4.3 45.6 3.3 46.6 3.3 47.9C3.3 48.4 3.7 48.9 4.3 48.9Z" fill="black"/>
<path d="M12.1 48.9C12.7 48.9 13.1 48.5 13.1 47.9C13.1 47.7 13.2 47.6 13.4 47.6C13.6 47.6 13.7 47.7 13.7 47.9C13.7 48.5 14.1 48.9 14.7 48.9C15.3 48.9 15.7 48.5 15.7 47.9C15.7 46.6 14.7 45.6 13.4 45.6C12.1 45.6 11.1 46.6 11.1 47.9C11.1 48.4 11.6 48.9 12.1 48.9Z" fill="black"/>
<path d="M9.5 56.7C12 56.7 15.7 54.7 15.7 51.8C15.7 51.2 15.3 50.8 14.7 50.8H4.3C3.7 50.8 3.3 51.2 3.3 51.8C3.3 54.8 7 56.7 9.5 56.7ZM13.4 52.8C12.6 53.9 10.9 54.7 9.5 54.7C8.1 54.7 6.4 53.8 5.6 52.8H13.4Z" fill="black"/>
<path d="M35 28.5H20.1C17.3 28.5 15.1 30.7 15.1 33.5V35.7C15.1 37.1 15.7 38.5 16.8 39.4C17.8 40.3 18.8 40.5 19.8 40.6V45.1C19.8 45.5 20.1 45.9 20.5 46C20.6 46 20.7 46 20.8 46C21.1 46 21.4 45.9 21.6 45.6L25.3 40.6H35C37.8 40.6 40 38.4 40 35.6V33.4C40 30.7 37.7 28.5 35 28.5ZM38 35.7C38 37.3 36.6 38.7 35 38.7H24.8C24.5 38.7 24.2 38.9 24 39.1L21.8 42.1V39.7C21.8 39.2 21.4 38.7 20.8 38.7C19.6 38.7 18.8 38.6 18.1 38C17.5 37.4 17.1 36.6 17.1 35.8V33.6C17.1 32 18.5 30.6 20.1 30.6H35C36.7 30.6 38 31.9 38 33.6V35.7Z" fill="black"/>
<path d="M19.2 34.4H27.1C27.7 34.4 28.1 34 28.1 33.4C28.1 32.8 27.7 32.4 27.1 32.4H19.2C18.6 32.4 18.2 32.8 18.2 33.4C18.2 34 18.7 34.4 19.2 34.4Z" fill="black"/>
<path d="M35 35.5H19.2C18.6 35.5 18.2 35.9 18.2 36.5C18.2 37.1 18.6 37.5 19.2 37.5H35C35.6 37.5 36 37.1 36 36.5C36 35.9 35.6 35.5 35 35.5Z" fill="black"/>
<path d="M50.5 12.4C45.3 12.4 41 16.7 41 21.9C41 27.1 45.3 31.4 50.5 31.4C55.7 31.4 60 27.1 60 21.9C60 16.7 55.7 12.4 50.5 12.4ZM50.5 29.5C46.4 29.5 43 26.1 43 22C43 17.9 46.4 14.5 50.5 14.5C54.6 14.5 58 17.8 58 22C58 26.1 54.6 29.5 50.5 29.5Z" fill="black"/>
<path d="M52.1 19.3C52.1 19.9 52.5 20.3 53.1 20.3C53.7 20.3 54.1 19.9 54.1 19.3C54.1 19.1 54.2 19 54.4 19C54.6 19 54.7 19.1 54.7 19.3C54.7 19.9 55.1 20.3 55.7 20.3C56.3 20.3 56.7 19.9 56.7 19.3C56.7 18 55.7 17 54.4 17C53.1 17 52.1 18.1 52.1 19.3Z" fill="black"/>
<path d="M45.2 20.3C45.8 20.3 46.2 19.9 46.2 19.3C46.2 19.1 46.3 19 46.5 19C46.7 19 46.8 19.1 46.8 19.3C46.8 19.9 47.2 20.3 47.8 20.3C48.4 20.3 48.8 19.9 48.8 19.3C48.8 18 47.8 17 46.5 17C45.2 17 44.2 18 44.2 19.3C44.2 19.9 44.7 20.3 45.2 20.3Z" fill="black"/>
<path d="M55.7 22.3H45.2C44.6 22.3 44.2 22.7 44.2 23.3C44.2 26.3 48 28.2 50.4 28.2C52.8 28.2 56.6 26.2 56.6 23.3C56.7 22.7 56.3 22.3 55.7 22.3ZM50.5 26.2C49.1 26.2 47.4 25.3 46.6 24.3H54.4C53.6 25.3 51.8 26.2 50.5 26.2Z" fill="black"/>
<path d="M20 5V7.2C20 9.9 22.3 12.2 25 12.2H34.7L38.4 17.2C38.6 17.5 38.9 17.6 39.2 17.6C39.3 17.6 39.4 17.6 39.5 17.6C39.9 17.5 40.2 17.1 40.2 16.7V12.2C41.2 12.1 42.2 11.9 43.2 11C44.3 10 45 8.6 45 7.2V5C45 2.3 42.7 0 40 0H25C22.3 0 20 2.2 20 5ZM22 5C22 3.4 23.4 2 25 2H39.9C41.6 2 42.9 3.3 42.9 5V7.2C42.9 8 42.5 8.9 41.9 9.4C41.2 10 40.4 10.1 39.1 10.1C38.6 10.1 38.1 10.6 38.1 11.1V13.5L35.9 10.5C35.7 10.2 35.4 10.1 35.1 10.1H25C23.3 10.1 22 8.8 22 7.1V5Z" fill="black"/>
<path d="M32.9 5.9H40.8C41.4 5.9 41.8 5.5 41.8 4.9C41.8 4.3 41.4 3.9 40.8 3.9H32.9C32.3 3.9 31.9 4.3 31.9 4.9C31.9 5.5 32.3 5.9 32.9 5.9Z" fill="black"/>
<path d="M25 9H40.8C41.4 9 41.8 8.6 41.8 8C41.8 7.4 41.4 7 40.8 7H25C24.4 7 24 7.4 24 8C24 8.6 24.4 9 25 9Z" fill="black"/>
</svg>
