<svg width="17" height="17" viewBox="0 0 17 17" fill="none" xmlns="http://www.w3.org/2000/svg">
<path d="M3.7474 -1.04904e-05H1.25348C0.562336 -1.04904e-05 0 0.562325 0 1.25397V8.76982C0 9.46097 0.562336 10.0238 1.25348 10.0238H3.7474C4.43855 10.0238 5.00138 9.46097 5.00138 8.76982V1.25397C5.00138 0.562325 4.43855 -1.04904e-05 3.7474 -1.04904e-05ZM1.25348 9.02142C1.11515 9.02142 1.00238 8.90865 1.00238 8.76982V1.25397C1.00238 1.11564 1.11515 1.00237 1.25348 1.00237H3.7474C3.88623 1.00237 3.999 1.11564 3.999 1.25397V8.76982C3.999 8.90865 3.88623 9.02142 3.7474 9.02142H1.25348Z" fill="#D81F26"/>
<path d="M12.9334 -1.90735e-05H6.85898C6.54975 -1.90735e-05 6.24052 0.0731554 5.96336 0.211484L4.27535 1.05549C4.02776 1.17928 3.92752 1.4805 4.05131 1.72809C4.17511 1.97567 4.47582 2.07591 4.72391 1.95212L6.41192 1.10811C6.55025 1.03895 6.70462 1.00236 6.85898 1.00236H12.9334C13.1164 1.00236 13.2868 1.1011 13.378 1.26048L13.9438 2.25083C14.651 3.48827 15.0249 4.89662 15.0249 6.322V8.01803C15.0249 8.57135 14.5748 9.02141 14.0215 9.02141H10.249C9.91675 9.02141 9.60701 9.18581 9.42057 9.46096C9.23463 9.73611 9.19704 10.0849 9.32033 10.3932C9.77992 11.5419 10.013 12.7523 10.013 13.9907V14.5716C10.013 14.8272 9.80498 15.0357 9.54888 15.0357H9.23713C9.03115 15.0357 8.84771 14.8974 8.79108 14.6994L8.59461 14.0123C8.17361 12.5403 7.47545 11.1881 6.51918 9.99222C6.02601 9.37526 5.29026 9.02141 4.49988 9.02141H2.99631C2.71965 9.02141 2.49512 9.24595 2.49512 9.52261C2.49512 9.79926 2.71965 10.0238 2.99631 10.0238H4.49988C4.98353 10.0238 5.4346 10.2408 5.73682 10.6187C6.60939 11.7103 7.24691 12.9447 7.63082 14.2879L7.82729 14.9751C8.00621 15.6005 8.58609 16.0381 9.23713 16.0381H9.54888C10.3578 16.0381 11.0154 15.3805 11.0154 14.5716V13.9907C11.0154 12.624 10.7577 11.2883 10.251 10.0208L14.0215 10.0238C15.1276 10.0238 16.0273 9.12416 16.0273 8.01803V6.322C16.0273 4.7222 15.6078 3.14195 14.8139 1.75315L14.248 0.762793C13.9789 0.292175 13.4752 -1.90735e-05 12.9334 -1.90735e-05Z" fill="#D81F26"/>
<path d="M2.49509 2.00476C2.77189 2.00476 2.99628 2.22915 2.99628 2.50595C2.99628 2.78275 2.77189 3.00714 2.49509 3.00714C2.21829 3.00714 1.9939 2.78275 1.9939 2.50595C1.9939 2.22915 2.21829 2.00476 2.49509 2.00476Z" fill="#D81F26"/>
</svg>
