<svg width="64" height="64" viewBox="0 0 64 64" fill="none" xmlns="http://www.w3.org/2000/svg">
<path d="M64 32.001C63.9931 26.4895 62.562 21.0732 59.8453 16.2776C57.1287 11.4821 53.2189 7.46997 48.495 4.63051C48.4793 4.61692 48.4709 4.59817 48.4543 4.5853C48.4006 4.55178 48.3435 4.5239 48.284 4.50211C43.0176 1.35329 36.9519 -0.203022 30.82 0.0212296C24.6881 0.245481 18.7523 2.2407 13.7299 5.7658C13.583 5.82811 13.4534 5.92505 13.3521 6.04834C8.66562 9.40071 4.97374 13.9588 2.66791 19.2394C0.36209 24.52 -0.471724 30.3261 0.254886 36.0421C0.981497 41.7582 3.24145 47.1711 6.79509 51.7068C10.3487 56.2425 15.0636 59.732 20.4397 61.8052C20.56 61.8826 20.6959 61.9324 20.8377 61.9512C28.5803 64.8817 37.163 64.6611 44.7448 61.3367C44.8202 61.3111 44.8921 61.2764 44.959 61.2334C50.619 58.723 55.4299 54.6257 58.8094 49.4375C62.1888 44.2494 63.9917 38.1928 64 32.001ZM46.0039 5.49719C45.8132 5.60759 45.6182 5.72001 45.3589 5.84969C44.8512 6.10262 44.1003 6.37898 43.2241 6.70246C40.8376 7.48749 38.5598 8.571 36.445 9.92724C35.5513 10.5492 34.7415 11.2838 34.0357 12.1131C33.4888 12.7365 33.4712 12.7443 32.7556 12.6894C31.9529 12.4855 31.206 12.1044 30.5698 11.5739C29.1767 10.3828 27.3978 9.739 25.565 9.76257C24.9419 9.80645 24.3346 9.97849 23.7811 10.2679C23.2275 10.5573 22.7397 10.9579 22.3481 11.4446C22.0104 11.8781 21.5686 12.2192 21.0638 12.4362C20.5589 12.6531 20.0074 12.7389 19.4605 12.6855C18.8813 12.7446 18.2965 12.6578 17.7596 12.4328C17.2226 12.2078 16.7506 11.8519 16.3866 11.3975C17.9882 10.8506 20.1231 9.82139 20.2113 8.22566C20.2261 8.01933 20.1967 7.81221 20.125 7.61815C20.0534 7.42409 19.9411 7.24758 19.7957 7.1004C19.1645 6.46329 18.1353 6.51223 16.9297 6.57503C16.7025 6.58593 16.4009 6.60002 16.1063 6.61226C20.5484 3.80548 25.654 2.2239 30.9049 2.02806C36.1558 1.83222 41.365 3.02909 46.0039 5.49719ZM2.00744 32.001C2.01159 27.375 3.08789 22.813 5.15183 18.6729C7.21577 14.5329 10.2112 10.9275 13.9029 8.13992C14.8821 8.58117 15.9669 8.73336 17.0297 8.57856C17.2395 8.56875 17.4943 8.55698 17.7354 8.5511C16.8124 9.10677 15.8132 9.52481 14.7694 9.79202C14.5274 9.85701 14.3183 10.01 14.183 10.221C14.0478 10.432 13.9961 10.6859 14.0382 10.933C14.3409 12.1057 15.0551 13.1307 16.0504 13.8209C17.0458 14.511 18.2561 14.8205 19.4606 14.6928C20.2804 14.7499 21.1021 14.6106 21.8573 14.2863C22.6126 13.9621 23.2795 13.4623 23.8028 12.8285C24.0264 12.5197 24.3154 12.264 24.6491 12.0797C24.9829 11.8953 25.3532 11.7869 25.7337 11.7621C27.1044 11.7998 28.4176 12.3213 29.4408 13.2343C30.35 13.9818 31.4362 14.4827 32.595 14.6889C32.7596 14.7026 32.9145 14.7085 33.0576 14.7085C33.5461 14.7246 34.0307 14.6163 34.4659 14.3938C34.901 14.1712 35.2725 13.8417 35.5453 13.4362C36.1467 12.7248 36.8395 12.096 37.6057 11.5661C39.5767 10.3099 41.6991 9.30873 43.922 8.58639C44.8629 8.23744 45.6764 7.93555 46.2567 7.64542C46.8454 7.35997 47.4073 7.02246 47.9358 6.63693C52.5491 9.52359 56.2882 13.6132 58.7512 18.4659C61.2141 23.3186 62.3077 28.751 61.9143 34.1787C61.5208 39.6064 59.6553 44.8243 56.5183 49.2711C53.3813 53.7179 49.0915 57.2256 44.1102 59.4168C42.8645 59.5545 41.6037 59.4269 40.4109 59.0422C40.4259 58.9732 40.4531 58.9075 40.4912 58.8481C40.8168 58.4259 41.0147 57.9192 41.0616 57.3881C41.1085 56.857 41.0024 56.3235 40.7559 55.8507C39.9168 54.5589 37.8271 54.6079 36.3274 54.7627C34.5102 54.945 33.9142 56.4251 33.4771 57.5072C33.0281 58.6266 32.7283 59.2677 31.8029 59.4558C28.3873 59.8534 24.9491 60.0256 21.5109 59.9714L21.2624 59.971C15.6042 57.7981 10.7363 53.9631 7.29944 48.9707C3.86254 43.9782 2.01762 38.0621 2.00744 32.001ZM28.6774 61.7975C29.8586 61.7466 31.0354 61.6219 32.201 61.4241C32.9627 61.232 33.6576 60.8356 34.2106 60.2776C34.7637 59.7197 35.154 59.0214 35.3395 58.258C35.7943 57.1269 35.9943 56.8132 36.5275 56.7583C38.6466 56.5485 39.0642 56.9367 39.0701 56.9367C39.0721 56.9407 39.1269 57.1876 38.7466 57.8581C38.5315 58.1738 38.4114 58.5446 38.4007 58.9264C38.3899 59.3083 38.4889 59.6852 38.6858 60.0126C38.9717 60.4232 39.3746 60.7384 39.842 60.9171C36.2134 61.9355 32.4208 62.2346 28.6774 61.7975Z" fill="black"/>
<path d="M21.2935 49.8305C21.6326 52.5886 21.9836 55.441 24.1517 55.9821C24.3799 56.0401 24.6142 56.0704 24.8496 56.0723C25.3095 56.0801 25.7586 55.9323 26.1238 55.6527C27.1667 54.8392 27.1726 53.2237 27.1746 51.9261C27.1653 51.6067 27.1784 51.287 27.2138 50.9694C27.3001 50.6479 28.2763 49.5423 31.358 47.6682C33.4806 45.969 35.0691 43.6945 35.9335 41.1166C36.0979 40.7887 36.1901 40.4294 36.204 40.0628C36.2178 39.6963 36.153 39.331 36.0138 38.9916C35.3728 37.484 33.2889 36.7353 30.8737 35.8687C30.1935 35.6257 29.4858 35.3709 28.782 35.0905C28.057 34.8177 27.3951 34.4003 26.8363 33.8638C26.2776 33.3274 25.8337 32.6829 25.5317 31.9696C25.1918 31.151 24.6166 30.4517 23.8791 29.9602C23.4747 29.7461 23.057 29.5582 22.6285 29.3975C21.2032 28.833 21.2347 28.7506 21.4836 28.1057C22.869 27.2542 24.4028 26.6722 26.0043 26.3903C29.2409 25.5121 32.2991 24.6829 32.9538 22.7029C33.142 22.2351 33.2103 21.7277 33.1524 21.2268C33.0946 20.726 32.9124 20.2475 32.6226 19.8349C31.4405 18.2176 28.5196 17.553 22.7953 17.6197C20.7792 17.853 18.7465 17.3526 17.0691 16.2102C16.4381 15.7363 15.7108 15.4067 14.9384 15.2448C14.1661 15.0829 13.3676 15.0926 12.5994 15.2731C11.9364 15.3494 11.2984 15.5709 10.7309 15.9219C10.1633 16.273 9.68013 16.7449 9.31584 17.3041C8.8708 18.3381 8.64013 19.4517 8.63777 20.5774C8.63541 21.7032 8.86141 22.8177 9.30211 23.8536C9.47382 24.4072 9.8119 24.8944 10.2703 25.2491C10.7288 25.6037 11.2853 25.8085 11.8643 25.8356C12.3405 25.8611 12.7992 26.0241 13.1847 26.3048C13.5702 26.5856 13.866 26.9721 14.0363 27.4176C14.6422 28.7113 14.9248 30.1328 14.8597 31.5598C14.8499 32.0362 14.8362 32.7576 15.5536 33.0281C15.7756 33.084 16.0087 33.0783 16.2276 33.0116C16.4466 32.9449 16.6433 32.8199 16.7965 32.6498C17.1348 32.1523 17.3461 31.5795 17.4121 30.9815C18.112 31.8276 18.8594 32.6334 19.6507 33.3948L19.4351 33.5085C18.835 33.7249 18.2928 34.0768 17.8508 34.5368C17.4089 34.9969 17.0789 35.5526 16.8866 36.1609C16.5474 37.8526 17.7491 40.2227 19.0234 42.734C19.6143 43.842 20.1431 44.9821 20.6073 46.1489C20.9587 47.35 21.1886 48.5834 21.2935 49.8305ZM18.8548 36.5549C18.9626 36.0119 19.7036 35.6296 20.3583 35.2905C21.0994 34.9062 21.8659 34.5083 21.9717 33.6575C21.9941 33.3735 21.9439 33.0886 21.826 32.8294C21.708 32.5701 21.5261 32.3451 21.2974 32.1754C20.0644 31.0148 18.9343 29.7496 17.9196 28.3939C17.7952 28.2471 17.6415 28.1281 17.4683 28.0443C17.2951 27.9606 17.1062 27.9141 16.9139 27.9077C16.854 27.9074 16.7942 27.9133 16.7355 27.9254C16.6269 27.9496 16.5225 27.9899 16.4258 28.045C16.2711 27.5362 16.0791 27.0395 15.8514 26.559C15.548 25.8296 15.0543 25.195 14.4219 24.7215C13.7894 24.2481 13.0415 23.9531 12.2561 23.8674C11.4347 23.7028 11.3367 23.6459 11.2191 23.2636C10.572 21.7027 10.5032 19.962 11.025 18.3549C11.2435 18.0416 11.5285 17.7805 11.8596 17.59C12.1906 17.3996 12.5597 17.2846 12.9403 17.2532C13.4631 17.1115 14.0122 17.0965 14.5419 17.2093C15.0717 17.3222 15.567 17.5596 15.9867 17.902C17.9986 19.2439 20.4108 19.853 22.8186 19.6272C28.6801 19.5997 30.5091 20.3466 31.0031 21.021C31.1286 21.1935 31.2481 21.468 31.0482 22.0717C30.7326 23.0284 27.5705 23.8851 25.4788 24.4516C22.5206 25.2534 20.1858 25.8885 19.6114 27.3804C18.6156 29.9681 20.7445 30.8111 21.8894 31.2639C22.2373 31.392 22.5765 31.5426 22.9048 31.7148C23.2834 32.0402 23.5774 32.4525 23.7615 32.9165C24.1737 33.8374 24.7635 34.668 25.4972 35.3606C26.2309 36.0532 27.094 36.5943 28.0371 36.9529C28.7624 37.243 29.4936 37.5057 30.1954 37.7586C31.9166 38.3761 33.8692 39.0779 34.1671 39.7778C34.1906 39.8346 34.2474 39.9679 34.1024 40.2953C33.3723 42.4883 32.0638 44.4436 30.315 45.9549C25.6572 48.7856 25.367 50.0422 25.2573 50.5166C25.1793 50.9802 25.1491 51.4505 25.1671 51.9202C25.1671 52.4436 25.1631 53.8355 24.9044 54.0609C24.8146 54.0711 24.7236 54.0617 24.6378 54.0335C23.8086 53.8277 23.5067 51.3752 23.2851 49.5854C23.1676 48.1887 22.9035 46.8082 22.4972 45.4668C22.0045 44.2221 21.4423 43.006 20.8132 41.8244C19.7912 40.2281 19.1234 38.4312 18.8548 36.5549Z" fill="black"/>
<path d="M38.6486 26.8197C40.7712 26.7813 42.8855 26.5417 44.9629 26.1042C46.979 25.6128 49.056 25.418 51.1283 25.5259C51.9183 25.7592 53.0357 27.1393 53.9335 28.2488C55.2745 29.9034 56.4388 31.3422 57.8425 31.3422C57.9033 31.3422 57.966 31.3402 58.0287 31.3344C58.6188 31.2401 59.1699 30.9799 59.6177 30.5842C60.0654 30.1885 60.3914 29.6736 60.5576 29.0996C60.9351 27.8755 60.9576 26.5693 60.6224 25.3329C60.2872 24.0965 59.608 22.9806 58.6639 22.1148C57.0222 20.4822 55.2058 19.0352 53.2474 17.8001C51.9936 17.0871 50.8689 16.1679 49.9207 15.081C49.6366 14.6018 49.4009 14.0955 49.2169 13.5696C49.0223 12.7435 48.5679 12.0016 47.9204 11.4529C47.2729 10.9042 46.4665 10.5776 45.6196 10.5212C42.6614 10.1077 39.7405 12.8266 37.1979 18.4607C35.7884 21.5875 34.8612 23.9223 35.8119 25.4769C36.1317 25.9233 36.56 26.2808 37.0563 26.5158C37.5526 26.7507 38.1006 26.8554 38.6486 26.8197ZM39.0289 19.2861C41.099 14.6929 43.379 12.1895 45.3256 12.509C46.739 12.7149 46.9057 13.1442 47.3429 14.2871C47.5714 14.9339 47.865 15.5559 48.2191 16.1436C49.2981 17.4872 50.6226 18.6135 52.1222 19.4624C53.9591 20.6197 55.6648 21.9731 57.2094 23.4989C57.8897 24.0942 58.3885 24.8691 58.6485 25.7349C58.9086 26.6007 58.9193 27.5223 58.6796 28.3939C58.4483 29.0095 58.0837 29.3133 57.8504 29.3349C57.3838 29.3211 56.1547 27.8019 55.4941 26.9844C54.5601 25.5325 53.2479 24.3627 51.6988 23.6008C51.2095 23.4729 50.7047 23.4142 50.1991 23.4263C48.3264 23.5193 46.4633 23.7533 44.6258 24.1262C42.6915 24.5329 40.7245 24.7639 38.7486 24.8162C38.0998 24.7829 37.6548 24.6418 37.5254 24.43C37.0548 23.6616 38.3389 20.8151 39.0289 19.2861Z" fill="black"/>
<path d="M48.4308 28.7821C47.0117 28.3781 45.5236 28.2771 44.0629 28.4855C42.6023 28.6938 41.2018 29.207 39.9522 29.9916C39.1131 30.49 38.3894 31.1608 37.8287 31.9597C37.2681 32.7586 36.8834 33.6673 36.7 34.6259C36.2452 37.8056 39.9816 38.3858 42.4517 38.7701C43.4166 38.8398 44.362 39.0773 45.2452 39.4719C45.7882 40.0443 44.4121 43.4867 43.2927 45.2628C42.6691 46.0686 42.2439 47.0098 42.0515 48.0104C41.8591 49.011 41.9048 50.0428 42.1851 51.0224C42.4124 51.6329 42.7819 52.1805 43.2629 52.6199C43.7439 53.0593 44.3226 53.3779 44.9511 53.5493C45.144 53.6026 45.3431 53.6296 45.5432 53.6296C47.6035 53.6296 50.2206 50.9831 52.9455 48.019C53.3533 47.574 53.7023 47.1937 53.961 46.935C56.1912 44.7098 57.6931 41.8598 58.2679 38.7623C58.4698 35.6512 53.8786 30.3269 48.4308 28.7821ZM52.5417 45.5157C52.2672 45.7902 51.8987 46.1901 51.4674 46.6606C48.2544 50.1559 46.2823 51.83 45.4922 51.6164C45.1673 51.5299 44.868 51.3665 44.6195 51.1399C44.3711 50.9134 44.181 50.6303 44.0651 50.3147C43.9038 49.6293 43.902 48.9161 44.0597 48.2299C44.2174 47.5437 44.5304 46.9029 44.9747 46.3567L44.9767 46.3547C45.061 46.2233 48.7719 40.2795 46.7038 38.0937C45.5491 37.2737 44.1754 36.8182 42.7595 36.7861C39.8837 36.3392 38.5389 35.9432 38.6878 34.9081C38.8321 34.234 39.1166 33.5978 39.523 33.0408C39.9293 32.4839 40.4482 32.0187 41.0462 31.6755C42.0538 31.0435 43.1836 30.6312 44.3615 30.4657C45.5395 30.3001 46.7391 30.3851 47.8819 30.7149C52.5358 32.0342 56.3978 36.5823 56.2645 38.6328C55.7174 41.2396 54.4239 43.631 52.5417 45.5157Z" fill="black"/>
<path d="M30.5289 27.4353C30.4314 27.4862 30.3427 27.5524 30.2662 27.6313C29.5094 28.4174 28.296 29.9132 28.6528 31.0914C28.7395 31.3615 28.8984 31.6029 29.1122 31.7895C29.3261 31.976 29.5868 32.1007 29.8663 32.1499C30.8083 32.3747 31.7719 32.497 32.7402 32.5146C35.0475 32.5146 35.8944 31.5579 36.1668 30.6169C36.3279 30.0609 36.3224 29.4698 36.1509 28.9168C35.9795 28.3639 35.6497 27.8733 35.2023 27.5059C34.5175 27.0335 33.7081 26.7746 32.8763 26.7621C32.0445 26.7495 31.2276 26.9838 30.5289 27.4353ZM34.2379 30.0582C34.134 30.417 33.1205 30.7444 30.7465 30.2837C30.9924 29.8768 31.2781 29.4953 31.5992 29.1447C31.9419 28.9175 32.3405 28.7891 32.7513 28.7735C33.1621 28.7579 33.5693 28.8559 33.9281 29.0565C34.0736 29.1737 34.1808 29.3316 34.236 29.5101C34.2912 29.6885 34.2919 29.8794 34.2379 30.0582Z" fill="black"/>
<path d="M9.82145 33.3144C11.7269 32.9243 12.9521 31.85 13.0972 30.4425C13.1748 29.9258 13.1393 29.3984 12.9931 28.8968C12.8469 28.3952 12.5934 27.9313 12.2503 27.5372C11.6835 27.0103 11.0128 26.6075 10.2813 26.3546C9.54977 26.1018 8.77352 26.0045 8.00223 26.0689C7.23938 26.0288 6.47905 26.1857 5.79443 26.5246C5.1098 26.8634 4.52395 27.3729 4.09328 28.0038C3.79493 28.5405 3.64693 29.1478 3.66487 29.7615C3.68281 30.3753 3.86603 30.9729 4.19521 31.4913C4.66462 32.1559 5.29908 32.6867 6.03609 33.0315C6.7731 33.3763 7.58722 33.5231 8.39823 33.4575C8.87625 33.458 9.35309 33.41 9.82145 33.3144ZM5.9517 30.515C5.79656 30.3016 5.70269 30.0498 5.68023 29.7868C5.65777 29.5239 5.70758 29.2599 5.82427 29.0232C6.08108 28.698 6.41434 28.4414 6.79435 28.2762C7.17437 28.111 7.58934 28.0423 8.00231 28.0763C8.9919 27.9715 9.98292 28.261 10.7605 28.882C10.9119 29.0694 11.0208 29.2873 11.0797 29.5209C11.1386 29.7544 11.1461 29.998 11.1016 30.2347C11.0526 30.7052 10.3763 31.1521 9.41763 31.3482C8.81822 31.532 8.18044 31.5517 7.57082 31.4052C6.9612 31.2587 6.40205 30.9512 5.9517 30.515Z" fill="black"/>
<path d="M10.0214 42.2105C8.09046 41.3734 7.28474 42.4556 7.08478 42.8065C6.0556 44.612 7.95714 48.864 9.58622 50.0481C10.4479 50.7006 11.4914 51.0685 12.5718 51.1008C13.1367 51.1148 13.6934 50.9636 14.1735 50.6656C14.6221 50.3469 14.955 49.891 15.1219 49.3666C15.2888 48.8422 15.2807 48.2777 15.0988 47.7584C14.4322 44.8335 13.7245 43.8121 10.0214 42.2105ZM13.0678 48.9896C12.6671 49.088 12.2485 49.088 11.8478 48.9897C11.4471 48.8914 11.076 48.6976 10.7664 48.425C9.59626 47.1864 8.86429 45.5985 8.68248 43.9043H8.70013C8.88308 43.9204 9.06134 43.9709 9.22551 44.0533C12.5209 45.4785 12.664 46.1117 13.1423 48.2053C13.1854 48.3974 13.2658 48.8582 13.0678 48.9896Z" fill="black"/>
</svg>
