<svg width="21" height="16" viewBox="0 0 21 16" fill="none" xmlns="http://www.w3.org/2000/svg">
<path fill-rule="evenodd" clip-rule="evenodd" d="M17.8418 12.5833C15.9879 14.2938 14.2386 15.0988 13.593 15.359C11.7031 16.1763 9.57404 16.2134 7.65762 15.4625L7.62891 15.4583C7.62891 15.4583 5.40545 14.6828 2.95312 12.4166C1.07502 10.6812 0 8.62007 0 8.02082C0 7.50832 0.616465 5.91341 2.74805 3.79166C5.41119 1.14091 7.62891 0.541666 7.62891 0.541666L7.65926 0.536832C8.63576 0.154454 9.67735 -0.0269288 10.7235 0.00322821C11.7696 0.0333852 12.7994 0.27448 13.753 0.712499C14.4773 1.02792 16.0363 1.80571 17.6777 3.24999C20.0849 5.36841 21 7.37603 21 8.02082C21 8.64549 19.9939 10.5977 17.8418 12.5833ZM10.5 2.66666C9.46165 2.66666 8.44661 2.97946 7.58325 3.56549C6.7199 4.15152 6.04699 4.98447 5.64963 5.95901C5.25227 6.93355 5.1483 8.0059 5.35088 9.04047C5.55345 10.075 6.05346 11.0253 6.78769 11.7712C7.52192 12.5171 8.45738 13.025 9.47578 13.2308C10.4942 13.4366 11.5498 13.331 12.5091 12.9273C13.4684 12.5237 14.2883 11.8401 14.8652 10.963C15.4421 10.086 15.75 9.05482 15.75 7.99999C15.75 6.5855 15.1969 5.22895 14.2123 4.22876C13.2277 3.22856 11.8924 2.66666 10.5 2.66666ZM10.5 10.6667C9.80381 10.6667 9.13613 10.3857 8.64384 9.8856C8.15156 9.38551 7.875 8.70723 7.875 7.99999V7.99786C7.90248 7.99878 7.92955 7.99999 7.95703 7.99999C8.63147 7.99999 9.27828 7.72782 9.75518 7.24335C10.2321 6.75888 10.5 6.1018 10.5 5.41666C10.5 5.38874 10.4988 5.36107 10.4979 5.33332H10.5C11.1962 5.33332 11.8639 5.61428 12.3562 6.11437C12.8484 6.61447 13.125 7.29275 13.125 7.99999C13.125 8.70723 12.8484 9.38551 12.3562 9.8856C11.8639 10.3857 11.1962 10.6667 10.5 10.6667Z" fill="#73C4FF"/>
</svg>
