<svg width="28" height="24" viewBox="0 0 28 24" fill="none" xmlns="http://www.w3.org/2000/svg">
<path d="M0 16.1049V19.0101C0 19.6801 0.253763 20.3227 0.705463 20.7964C1.15716 21.2702 1.7698 21.5364 2.4086 21.5364H2.86021C3.0401 22.2454 3.43916 22.8719 3.99489 23.3176C4.55061 23.7634 5.2316 24.0032 5.93118 23.9995C6.63464 24.0048 7.32005 23.7662 7.88087 23.3207C8.44168 22.8753 8.84645 22.248 9.03226 21.5364H19.5398C19.73 22.2454 20.1359 22.8698 20.6957 23.3146C21.2555 23.7593 21.9386 24 22.6409 24C23.3431 24 24.0262 23.7593 24.586 23.3146C25.1458 22.8698 25.5517 22.2454 25.7419 21.5364C26.3517 21.4889 26.9223 21.2028 27.3405 20.7349C27.7588 20.267 27.9941 19.6514 28 19.0101V15.4733C28.0005 15.1679 27.9293 14.867 27.7928 14.5972C27.6563 14.3273 27.4586 14.0968 27.2172 13.926L24.8989 9.85241C24.6512 9.43397 24.3052 9.08932 23.8939 8.85153C23.4827 8.61375 23.0201 8.49082 22.5505 8.49454H17.1011C16.8615 8.49454 16.6318 8.59435 16.4624 8.77202C16.293 8.94968 16.1978 9.19064 16.1978 9.44189V13.5786H15.0237V8.14718H15.0538C15.1735 8.15159 15.2928 8.13011 15.4043 8.08406C15.5158 8.03801 15.6171 7.96839 15.7018 7.87953C15.7865 7.79066 15.8529 7.68446 15.8968 7.56752C15.9407 7.45059 15.9612 7.32543 15.957 7.19984V3.82097C15.957 3.56971 15.8618 3.32875 15.6924 3.15109C15.5231 2.97343 15.2933 2.87362 15.0538 2.87362H13.3376C13.3743 2.70784 13.3945 2.53851 13.3978 2.36837C13.3899 1.73735 13.1454 1.135 12.7171 0.691727C12.2888 0.248457 11.7114 -5.46221e-05 11.1097 9.0054e-09C9.84516 9.0054e-09 8.94194 0.757878 8.33978 1.64207C7.73763 0.757878 6.83441 9.0054e-09 5.56989 9.0054e-09C4.97344 0.00817866 4.40361 0.260328 3.98182 0.702723C3.56003 1.14512 3.31963 1.74278 3.31183 2.36837C3.30591 2.53741 3.31599 2.70666 3.34194 2.87362H1.62581C1.38865 2.88152 1.16326 2.98387 0.995477 3.15985C0.827695 3.33582 0.730115 3.57222 0.722581 3.82097V7.19984C0.722581 7.45109 0.817742 7.69205 0.987129 7.86971C1.15652 8.04737 1.38626 8.14718 1.62581 8.14718H1.65591V13.705C1.17659 13.8753 0.759682 14.1979 0.462975 14.6279C0.166268 15.0579 0.00446626 15.5741 0 16.1049ZM5.93118 22.1048C5.65004 22.1047 5.37529 22.0168 5.14198 21.8523C4.90867 21.6877 4.72737 21.4541 4.62121 21.181C4.51505 20.908 4.48884 20.608 4.54593 20.3192C4.60301 20.0305 4.7408 19.7661 4.94172 19.5599C5.14265 19.3536 5.39759 19.2148 5.67404 19.1612C5.95049 19.1075 6.2359 19.1415 6.49389 19.2587C6.75187 19.3758 6.97072 19.571 7.12253 19.8192C7.27434 20.0674 7.35222 20.3574 7.34624 20.6522C7.33836 21.0403 7.18581 21.4097 6.92128 21.6813C6.65676 21.9528 6.30132 22.1048 5.93118 22.1048ZM22.6409 22.1048C22.3597 22.1047 22.085 22.0168 21.8517 21.8523C21.6183 21.6877 21.437 21.4541 21.3309 21.181C21.2247 20.908 21.1985 20.608 21.2556 20.3192C21.3127 20.0305 21.4505 19.7661 21.6514 19.5599C21.8523 19.3536 22.1073 19.2148 22.3837 19.1612C22.6602 19.1075 22.9456 19.1415 23.2036 19.2587C23.4615 19.3758 23.6804 19.571 23.8322 19.8192C23.984 20.0674 24.0619 20.3574 24.0559 20.6522C24.048 21.0403 23.8955 21.4097 23.631 21.6813C23.3664 21.9528 23.011 22.1048 22.6409 22.1048ZM26.1935 19.0101C26.1964 19.1578 26.1497 19.302 26.0617 19.4174C25.9737 19.5328 25.8499 19.6121 25.7118 19.6417C25.5068 18.9555 25.0985 18.3559 24.5462 17.93C23.9938 17.504 23.3264 17.274 22.6409 17.2733C21.9565 17.2788 21.2912 17.5108 20.7398 17.936C20.1884 18.3613 19.779 18.9581 19.5699 19.6417H18.0043V15.4733H26.1935V19.0101ZM18.0043 10.3892H22.5505C22.7068 10.3826 22.8619 10.4202 22.9996 10.498C23.1373 10.5757 23.2526 10.6909 23.3333 10.8313L24.929 13.5786H18.0043V10.3892ZM16.1978 19.6417H9.00215C8.79304 18.9581 8.38364 18.3613 7.83224 17.936C7.28084 17.5108 6.61557 17.2788 5.93118 17.2733C5.25081 17.2807 4.59012 17.5138 4.04385 17.9392C3.49758 18.3647 3.09377 18.9607 2.89032 19.6417H2.4086C2.2489 19.6417 2.09574 19.5751 1.98282 19.4567C1.86989 19.3382 1.80645 19.1776 1.80645 19.0101V16.1049C1.80645 15.9374 1.86989 15.7768 1.98282 15.6583C2.09574 15.5399 2.2489 15.4733 2.4086 15.4733H16.1978V19.6417ZM13.2172 13.5786H9.24301V8.14718H13.2172V13.5786ZM14.1505 6.25249H9.24301V4.76831H14.1505V6.25249ZM11.1097 1.89469C11.1808 1.87559 11.2552 1.8738 11.3271 1.88945C11.399 1.90511 11.4665 1.9378 11.5245 1.98503C11.5826 2.03226 11.6295 2.09278 11.6618 2.16195C11.6941 2.23113 11.7109 2.30713 11.7109 2.38416C11.7109 2.46118 11.6941 2.53719 11.6618 2.60636C11.6295 2.67554 11.5826 2.73605 11.5245 2.78328C11.4665 2.83051 11.399 2.8632 11.3271 2.87886C11.2552 2.89452 11.1808 2.89272 11.1097 2.87362H9.72473C10.0258 2.36837 10.4774 1.89469 11.1097 1.89469ZM5.11828 2.36837C5.11828 2.24274 5.16586 2.12226 5.25055 2.03343C5.33525 1.9446 5.45012 1.89469 5.56989 1.89469C6.20215 1.89469 6.65376 2.36837 6.95484 2.87362H5.56989C5.44742 2.86558 5.33249 2.80881 5.24857 2.71492C5.16464 2.62102 5.11804 2.49707 5.11828 2.36837ZM2.52903 4.76831H7.43656V6.25249H2.52903V4.76831ZM7.43656 8.14718V13.5786H3.46237V8.14718H7.43656Z" fill="#FFCF73"/>
</svg>
