<svg width="19" height="24" viewBox="0 0 19 24" fill="none" xmlns="http://www.w3.org/2000/svg">
<path d="M18.4809 1.91728C12.7773 -0.639227 6.22197 -0.639227 0.517624 1.91808C0.176977 2.07088 -0.0116371 2.42234 0.000556709 2.76447V14.2025C0.000556709 16.9977 1.9033 20.1726 4.3322 21.4302L9.11163 23.9048C9.35603 24.0317 9.64427 24.0317 9.88866 23.9048L14.6684 21.4302C17.0975 20.1726 19 16.9979 19 14.2025V2.73327C19 2.47514 18.8755 2.09381 18.4809 1.91728ZM17.2726 14.2025C17.2726 16.3118 15.724 18.896 13.8913 19.8448L9.50028 22.1179L5.10923 19.8448C3.27627 18.8955 1.72766 16.3118 1.72766 14.2025V3.321C6.74215 1.23675 12.3746 1.28475 17.2726 3.321V14.2025Z" fill="#FFCF73"/>
</svg>
