<svg width="12" height="14" viewBox="0 0 12 14" fill="none" xmlns="http://www.w3.org/2000/svg">
<path d="M11.8824 0.543144C11.8459 0.520799 11.8045 0.509035 11.7624 0.509035C11.7203 0.509035 11.6789 0.520799 11.6424 0.543144L11.52 0.604245C10.6748 1.08794 9.71309 1.29416 8.75713 1.1967C7.80117 1.09923 6.8941 0.702487 6.1512 0.0568767C6.10845 0.0200814 6.05506 0 6 0C5.94495 0 5.89156 0.0200814 5.8488 0.0568767C5.10591 0.702487 4.19884 1.09923 3.24288 1.1967C2.28692 1.29416 1.32522 1.08794 0.480008 0.604245L0.362408 0.538052C0.325923 0.515707 0.284537 0.503943 0.242408 0.503943C0.200279 0.503943 0.158893 0.515707 0.122408 0.538052C0.0849799 0.560367 0.0538802 0.592925 0.0323516 0.632331C0.0108229 0.671737 -0.000346388 0.716547 8.18659e-06 0.762091V6.46491C-6.19281e-05 7.78218 0.345674 9.07344 0.998472 10.194C1.65127 11.3146 2.58534 12.2202 3.69601 12.8093L5.892 13.9728C5.9255 13.9907 5.96249 14 6 14C6.03752 14 6.07451 13.9907 6.108 13.9728L8.304 12.8093C9.41467 12.2202 10.3487 11.3146 11.0015 10.194C11.6543 9.07344 12.0001 7.78218 12 6.46491V0.762091C12 0.717909 11.9891 0.674489 11.9685 0.6361C11.9479 0.597712 11.9182 0.565677 11.8824 0.543144ZM11.52 6.46491C11.5193 7.68759 11.198 8.88597 10.5919 9.92595C9.98575 10.9659 9.1188 11.8065 8.088 12.3536L6 13.461L3.91201 12.3536C2.88121 11.8065 2.01426 10.9659 1.40814 9.92595C0.802027 8.88597 0.480663 7.68759 0.480008 6.46491V1.17962C1.3631 1.62866 2.34605 1.80997 3.3202 1.70348C4.29435 1.597 5.22179 1.20688 6 0.57624C6.77822 1.20688 7.70566 1.597 8.67981 1.70348C9.65396 1.80997 10.6369 1.62866 11.52 1.17962V6.46491Z" fill="white"/>
<path d="M2.33041 5.41854C2.28521 5.3706 2.22392 5.34367 2.16001 5.34367C2.09609 5.34367 2.0348 5.3706 1.98961 5.41854C1.94441 5.46648 1.91902 5.5315 1.91902 5.5993C1.91902 5.6671 1.94441 5.73212 1.98961 5.78006L4.86961 8.83514C4.89203 8.85874 4.91863 8.8774 4.94787 8.89007C4.97711 8.90274 5.00842 8.90916 5.04 8.90897C5.09721 8.90898 5.15253 8.88731 5.196 8.84787L9.996 4.51984C10.02 4.49811 10.0396 4.47158 10.0539 4.44178C10.0682 4.41198 10.0768 4.37949 10.0793 4.34615C10.0817 4.31282 10.078 4.2793 10.0682 4.24751C10.0585 4.21572 10.0429 4.18628 10.0224 4.16087C10.0019 4.13546 9.97691 4.11458 9.94882 4.09942C9.92072 4.08426 9.89009 4.07512 9.85867 4.07252C9.82724 4.06992 9.79565 4.07391 9.76568 4.08426C9.73571 4.09462 9.70795 4.11113 9.684 4.13286L5.0544 8.30814L2.33041 5.41854Z" fill="white"/>
</svg>
