<svg width="21" height="18" viewBox="0 0 21 18" fill="none" xmlns="http://www.w3.org/2000/svg">
<path d="M18.5301 2.4539L18.5309 2.45468C18.998 2.91324 19.3677 3.45734 19.6195 4.05533C19.8713 4.6533 20.0005 5.29382 20 5.94025C19.9995 6.58668 19.8694 7.22702 19.6167 7.82461C19.364 8.42225 18.9935 8.96582 18.5257 9.42369L18.5232 9.42609L11.075 16.7663C11.0747 16.7666 11.0744 16.7669 11.0741 16.7672C10.9231 16.9146 10.716 17 10.4969 17C10.2782 17 10.0712 16.9148 9.92023 16.7677C9.91977 16.7672 9.91931 16.7668 9.91886 16.7663L9.40094 16.2542L9.39543 16.2482L9.37933 16.2308L9.36242 16.2141L2.46459 9.41805C1.52421 8.49068 0.999185 7.2366 1 5.93254C1.00082 4.62848 1.52741 3.37503 2.46896 2.44878C3.41103 1.52204 4.69147 0.999189 6.02937 1C7.36727 1.00081 8.64704 1.52521 9.58794 2.45309L9.58838 2.45352L9.79837 2.66035L10.5001 3.35152L11.2018 2.66035L11.4114 2.4539C12.3532 1.52728 13.6331 1.00414 14.9708 1.00414C16.3084 1.00414 17.5883 1.52728 18.5301 2.4539Z" stroke="#56585D" stroke-width="2"/>
</svg>
