<svg width="18" height="19" viewBox="0 0 18 19" fill="none" xmlns="http://www.w3.org/2000/svg">
<path fill-rule="evenodd" clip-rule="evenodd" d="M12.8571 19H5.14286C3.77889 19 2.47078 18.4361 1.5063 17.4324C0.541831 16.4287 0 15.0674 0 13.6479V5.35211C0 3.93264 0.541831 2.57131 1.5063 1.5676C2.47078 0.563882 3.77889 0 5.14286 0H12.8571C14.2211 0 15.5292 0.563882 16.4937 1.5676C17.4582 2.57131 18 3.93264 18 5.35211V13.6479C18 14.3507 17.867 15.0467 17.6085 15.6961C17.3501 16.3454 16.9713 16.9354 16.4937 17.4324C16.0161 17.9294 15.4492 18.3236 14.8252 18.5926C14.2013 18.8616 13.5325 19 12.8571 19ZM16.3286 4.9507C16.3286 4.06354 15.9899 3.2127 15.3871 2.58538C14.7843 1.95806 13.9668 1.60563 13.1143 1.60563H4.75714C3.90466 1.60563 3.0871 1.95806 2.48431 2.58538C1.88151 3.2127 1.54286 4.06354 1.54286 4.9507V13.6479C1.54286 14.5351 1.88151 15.3859 2.48431 16.0132C3.0871 16.6405 3.90466 16.993 4.75714 16.993H13.1143C13.9668 16.993 14.7843 16.6405 15.3871 16.0132C15.9899 15.3859 16.3286 14.5351 16.3286 13.6479V4.9507ZM13.7571 5.48592C13.5283 5.48592 13.3046 5.41529 13.1143 5.28297C12.924 5.15064 12.7757 4.96257 12.6881 4.74253C12.6005 4.52248 12.5776 4.28035 12.6222 4.04676C12.6669 3.81316 12.7771 3.59859 12.9389 3.43017C13.1007 3.26176 13.3069 3.14707 13.5314 3.1006C13.7559 3.05414 13.9885 3.07799 14.2 3.16913C14.4114 3.26028 14.5921 3.41462 14.7193 3.61266C14.8464 3.81069 14.9143 4.04352 14.9143 4.28169C14.9143 4.60107 14.7924 4.90737 14.5754 5.13321C14.3584 5.35904 14.064 5.48592 13.7571 5.48592ZM8.93571 14.3169C8.00756 14.3169 7.10024 14.0305 6.3285 13.4938C5.55677 12.9572 4.95528 12.1944 4.60009 11.302C4.24489 10.4097 4.15195 9.42768 4.33302 8.48032C4.5141 7.53295 4.96105 6.66274 5.61736 5.97973C6.27366 5.29672 7.10985 4.83158 8.02018 4.64314C8.9305 4.45469 9.87408 4.55141 10.7316 4.92105C11.5891 5.2907 12.322 5.91667 12.8377 6.7198C13.3533 7.52294 13.6286 8.46717 13.6286 9.4331C13.6286 10.7284 13.1342 11.9706 12.2541 12.8865C11.374 13.8024 10.1803 14.3169 8.93571 14.3169ZM8.93571 6.28873C8.33813 6.28873 7.75397 6.47315 7.2571 6.81865C6.76023 7.16416 6.37296 7.65524 6.14428 8.2298C5.91559 8.80436 5.85576 9.43659 5.97234 10.0465C6.08892 10.6565 6.37668 11.2168 6.79923 11.6565C7.22179 12.0962 7.76017 12.3957 8.34627 12.517C8.93237 12.6384 9.53987 12.5761 10.092 12.3381C10.6441 12.1001 11.1159 11.6971 11.4479 11.18C11.7799 10.6629 11.9571 10.055 11.9571 9.4331C11.9571 8.59916 11.6388 7.79938 11.0722 7.2097C10.5056 6.62001 9.73705 6.28873 8.93571 6.28873Z" fill="#262626"/>
</svg>
