<svg width="27" height="29" viewBox="0 0 27 29" fill="none" xmlns="http://www.w3.org/2000/svg">
<path fill-rule="evenodd" clip-rule="evenodd" d="M19.2857 29H7.71429C5.66833 29 3.70617 28.1393 2.25946 26.6074C0.812747 25.0754 0 22.9975 0 20.831V8.16901C0 6.00246 0.812747 3.92464 2.25946 2.39265C3.70617 0.860661 5.66833 0 7.71429 0H19.2857C21.3317 0 23.2938 0.860661 24.7405 2.39265C26.1873 3.92464 27 6.00246 27 8.16901V20.831C27 21.9038 26.8005 22.966 26.4128 23.9571C26.0251 24.9482 25.4569 25.8488 24.7405 26.6074C24.0242 27.3659 23.1738 27.9676 22.2379 28.3782C21.3019 28.7887 20.2988 29 19.2857 29ZM24.4929 7.55634C24.4929 6.20224 23.9849 4.9036 23.0807 3.94611C22.1765 2.98862 20.9502 2.4507 19.6714 2.4507H7.13571C5.85699 2.4507 4.63065 2.98862 3.72646 3.94611C2.82227 4.9036 2.31429 6.20224 2.31429 7.55634V20.831C2.31429 22.1851 2.82227 23.4837 3.72646 24.4412C4.63065 25.3987 5.85699 25.9366 7.13571 25.9366H19.6714C20.9502 25.9366 22.1765 25.3987 23.0807 24.4412C23.9849 23.4837 24.4929 22.1851 24.4929 20.831V7.55634ZM20.6357 8.37324C20.2924 8.37324 19.9568 8.26544 19.6714 8.06347C19.386 7.86151 19.1635 7.57445 19.0321 7.23859C18.9007 6.90274 18.8664 6.53317 18.9334 6.17663C19.0003 5.82009 19.1656 5.49258 19.4084 5.23553C19.6511 4.97848 19.9604 4.80342 20.2971 4.7325C20.6338 4.66158 20.9828 4.69798 21.2999 4.83709C21.6171 4.97621 21.8882 5.21179 22.0789 5.51406C22.2696 5.81632 22.3714 6.17168 22.3714 6.53521C22.3714 7.02269 22.1886 7.4902 21.8631 7.83489C21.5375 8.17959 21.0961 8.37324 20.6357 8.37324ZM13.4036 21.8521C12.0113 21.8521 10.6504 21.4149 9.49275 20.5958C8.33515 19.7768 7.43292 18.6126 6.90013 17.2505C6.36734 15.8884 6.22792 14.3896 6.49954 12.9436C6.77115 11.4977 7.44157 10.1694 8.42603 9.12695C9.4105 8.08446 10.6648 7.37452 12.0303 7.08689C13.3958 6.79927 14.8111 6.94689 16.0974 7.51108C17.3836 8.07527 18.483 9.0307 19.2565 10.2565C20.03 11.4824 20.4429 12.9236 20.4429 14.3979C20.4429 16.3749 19.7012 18.2709 18.3811 19.6688C17.061 21.0668 15.2705 21.8521 13.4036 21.8521ZM13.4036 9.59859C12.5072 9.59859 11.631 9.88006 10.8856 10.4074C10.1403 10.9348 9.55944 11.6843 9.21642 12.5613C8.87339 13.4382 8.78364 14.4032 8.95851 15.3342C9.13338 16.2652 9.56502 17.1203 10.1989 17.7915C10.8327 18.4627 11.6403 18.9198 12.5194 19.105C13.3985 19.2901 14.3098 19.1951 15.1379 18.8319C15.9661 18.4686 16.6739 17.8535 17.1719 17.0642C17.6699 16.275 17.9357 15.3471 17.9357 14.3979C17.9357 13.125 17.4582 11.9043 16.6083 11.0043C15.7583 10.1042 14.6056 9.59859 13.4036 9.59859Z" fill="#EAA094"/>
</svg>
