<svg width="20" height="20" viewBox="0 0 20 20" fill="none" xmlns="http://www.w3.org/2000/svg">
<path d="M20 9.15878C20 7.99026 19.0737 7.05978 17.9579 7.05978H13.7053C14.1053 6.17257 14.5684 4.78767 14.5684 3.3162C14.5684 1.9313 13.8316 0.827698 12.5053 0.178523C12 -0.0595077 11.4105 -0.0595077 10.9053 0.178523C10.4 0.416554 10.0421 0.892616 9.89474 1.43359L9.64211 2.45064C9.17895 4.28997 8.21053 5.89126 6.90526 6.95158C6.73684 7.08142 6.58947 7.18961 6.42105 7.29781C6.10526 6.73519 5.51579 6.34569 4.82105 6.34569H1.85263C0.821053 6.34569 0 7.18961 0 8.24993V18.0958C0 19.1561 0.842105 20 1.85263 20H4.82105C5.57895 20 6.23158 19.5239 6.50526 18.8748C8.35789 19.3941 10.0632 19.6754 11.9158 19.6754H16.5895C17.7263 19.6754 18.6316 18.7233 18.6316 17.5764C18.6316 17.1869 18.5263 16.8407 18.3579 16.5377C18.9263 16.1699 19.3053 15.4991 19.3053 14.7633C19.3053 14.3738 19.2 14.0276 19.0316 13.7246C19.6 13.3568 19.9789 12.686 19.9789 11.9502C19.9789 11.4093 19.7684 10.9116 19.4526 10.5437C19.7895 10.1975 20 9.69976 20 9.15878ZM5.32632 18.139C5.32632 18.4203 5.09474 18.6584 4.82105 18.6584H1.85263C1.57895 18.6584 1.34737 18.4203 1.34737 18.139V8.29321C1.34737 8.0119 1.57895 7.77387 1.85263 7.77387H4.82105C5.09474 7.77387 5.32632 8.0119 5.32632 8.29321V18.139ZM16.6737 11.2578H17.9579C18.3368 11.2578 18.6526 11.5824 18.6526 11.9719C18.6526 12.3614 18.3368 12.686 17.9579 12.686H16.4211C16.0421 12.686 15.7474 12.9889 15.7474 13.3784C15.7474 13.7679 16.0421 14.0709 16.4211 14.0709H17.2842C17.6632 14.0709 17.9789 14.3955 17.9789 14.785C17.9789 15.1745 17.6632 15.4991 17.2842 15.4991H15.9368C15.5579 15.4991 15.2632 15.802 15.2632 16.1915C15.2632 16.581 15.5579 16.884 15.9368 16.884H16.6105C16.9895 16.884 17.3053 17.2085 17.3053 17.5981C17.3053 17.9876 16.9895 18.3121 16.6105 18.3121H11.9158C10.1263 18.3121 8.48421 18.0525 6.67368 17.5331V8.76927C7.03158 8.57452 7.38947 8.33649 7.72632 8.05518C9.26316 6.80011 10.4211 4.93914 10.9474 2.8185L11.2 1.80146C11.2421 1.58507 11.3895 1.49851 11.4737 1.45523C11.5579 1.41196 11.7263 1.36868 11.9158 1.45523C12.7789 1.86638 13.2 2.47228 13.2 3.33784C13.2 5.43684 12.0211 7.38437 12 7.40601C11.8947 7.57912 11.8947 7.86043 12 8.07682C12.1263 8.29321 12.3368 8.44469 12.5895 8.44469H17.9579C18.3368 8.44469 18.6526 8.76927 18.6526 9.15878C18.6526 9.54828 18.3368 9.87287 17.9579 9.87287H16.6737C16.2947 9.87287 16 10.1758 16 10.5653C16 10.9548 16.2947 11.2578 16.6737 11.2578Z" fill="black"/>
<path d="M3.34737 17.663C3.8357 17.663 4.23158 17.2561 4.23158 16.7541C4.23158 16.2522 3.8357 15.8453 3.34737 15.8453C2.85903 15.8453 2.46316 16.2522 2.46316 16.7541C2.46316 17.2561 2.85903 17.663 3.34737 17.663Z" fill="black"/>
</svg>
