<svg width="18" height="17" viewBox="0 0 18 17" fill="none" xmlns="http://www.w3.org/2000/svg">
<path d="M0.187332 12.9367C0.431759 12.6977 0.798401 12.6977 1.04283 12.9367L2.47884 14.3409L3.45655 13.3849L2.02054 11.9807C1.77611 11.7417 1.77611 11.3831 2.02054 11.1441C2.26497 10.9051 2.63161 10.9051 2.87604 11.1441L4.31205 12.5483L10.0867 6.90158C9.50614 6.15466 9.2006 5.25835 9.2006 4.30228C9.2006 3.13708 9.65891 2.06151 10.4838 1.25483C11.3088 0.448154 12.4393 0 13.6003 0C14.7919 0 15.8918 0.448154 16.7168 1.25483C17.5417 2.06151 18 3.16696 18 4.30228C18 5.46749 17.5417 6.54306 16.7168 7.34974C15.8918 8.15641 14.7613 8.60457 13.6003 8.60457C12.6226 8.60457 11.706 8.3058 10.9422 7.73814L1.62334 16.8207C1.50113 16.9402 1.34836 17 1.1956 17C1.04283 17 0.89006 16.9402 0.767847 16.8207C0.52342 16.5817 0.52342 16.2232 0.767847 15.9842L1.59279 15.1775L0.156778 13.7733C-0.0570965 13.5641 -0.0570965 13.1757 0.187332 12.9367ZM15.8613 6.51318C16.4723 5.91564 16.8084 5.13884 16.8084 4.30228C16.8084 3.46573 16.4723 2.68893 15.8613 2.09139C15.2502 1.49385 14.4558 1.1652 13.6003 1.1652C12.7448 1.1652 11.9504 1.49385 11.3393 2.09139C10.7283 2.68893 10.3922 3.46573 10.3922 4.30228C10.3922 5.13884 10.7283 5.91564 11.3393 6.51318C11.9504 7.11072 12.7448 7.43937 13.6003 7.43937C14.4558 7.40949 15.2502 7.08084 15.8613 6.51318Z" fill="#262626"/>
</svg>
