<svg width="24" height="24" viewBox="0 0 24 24" fill="none" xmlns="http://www.w3.org/2000/svg">
<path d="M9.6 6H11.4V15H9.6V6Z" fill="#D4D3D3"/>
<path d="M15 9.6V11.4H6L6 9.6L15 9.6Z" fill="#D4D3D3"/>
<path fill-rule="evenodd" clip-rule="evenodd" d="M23.3422 23.3421C23.1337 23.5507 22.8861 23.7162 22.6136 23.829C22.3411 23.9419 22.049 24 21.7541 24C21.4591 24 21.1671 23.9419 20.8946 23.829C20.6221 23.7162 20.3745 23.5507 20.1659 23.3421L16.2063 19.3822C14.5116 20.4721 12.5385 21.0501 10.5236 21.0469C4.71148 21.0469 0 16.3354 0 10.5235C0 4.71152 4.71148 0 10.5236 0C16.3357 0 21.0472 4.71152 21.0472 10.5235C21.0504 12.5384 20.4723 14.5114 19.3822 16.206L23.3422 20.1659C23.7634 20.5871 24 21.1584 24 21.754C24 22.3497 23.7634 22.9209 23.3422 23.3421ZM10.5236 3.00001C9.03558 3.00001 7.58098 3.44125 6.34374 4.26794C5.1065 5.09463 4.14218 6.26964 3.57274 7.64437C3.0033 9.0191 2.85431 10.5318 3.14461 11.9912C3.43491 13.4506 4.15145 14.7912 5.20364 15.8434C6.25582 16.8955 7.5964 17.6121 9.05582 17.9024C10.5152 18.1927 12.028 18.0437 13.4027 17.4742C14.7775 16.9048 15.9525 15.9405 16.7792 14.7033C17.6059 13.4661 18.0471 12.0115 18.0471 10.5235C18.0471 8.52813 17.2545 6.61451 15.8435 5.20358C14.4326 3.79266 12.519 3.00001 10.5236 3.00001Z" fill="#D4D3D3"/>
</svg>
