<svg width="19" height="20" viewBox="0 0 19 20" fill="none" xmlns="http://www.w3.org/2000/svg">
<path d="M17.8906 6.21681L17.5306 5.88291L18.2747 5.08659C18.5205 4.82358 18.7109 4.51565 18.8349 4.18047C18.9588 3.84528 19.0139 3.48941 18.997 3.13325C18.9801 2.77708 18.8916 2.42762 18.7364 2.10486C18.5812 1.78211 18.3625 1.49241 18.0928 1.25236L17.4692 0.709831C17.1999 0.469255 16.8847 0.282978 16.5418 0.16167C16.1988 0.0403623 15.8348 -0.0135911 15.4706 0.00290061C15.1064 0.0193923 14.7492 0.106005 14.4194 0.257776C14.0896 0.409548 13.7937 0.623496 13.5487 0.887363L1.44793 13.8996C1.36751 13.9851 1.30918 14.0882 1.27781 14.2002L0.0217657 19.0959C-0.0104693 19.2234 -0.00684149 19.3571 0.0322644 19.4828C0.0713702 19.6086 0.1445 19.7217 0.24391 19.8101C0.343321 19.8986 0.465314 19.9591 0.596975 19.9853C0.728635 20.0116 0.865065 20.0025 0.99182 19.9591L5.86389 18.2869C5.98079 18.247 6.08563 18.1791 6.16893 18.0895L16.5244 6.9724L16.8843 7.30629C16.9638 7.37672 17.0282 7.46178 17.074 7.55661C17.1197 7.65143 17.1459 7.75414 17.1509 7.85884C17.156 7.96354 17.1398 8.06817 17.1034 8.16671C17.067 8.26525 17.011 8.35577 16.9387 8.43307L13.2186 12.4146C13.1528 12.4854 13.102 12.5682 13.0689 12.6583C13.0358 12.7483 13.0213 12.8439 13.026 12.9395C13.0307 13.0351 13.0546 13.1289 13.0963 13.2155C13.1381 13.3021 13.1969 13.3798 13.2693 13.4442C13.3417 13.5086 13.4264 13.5584 13.5185 13.5908C13.6106 13.6232 13.7084 13.6376 13.8061 13.6331C13.9038 13.6286 13.9997 13.6052 14.0882 13.5645C14.1767 13.5237 14.2561 13.4663 14.3219 13.3955L18.042 9.41393C18.246 9.19525 18.4039 8.93933 18.5067 8.6608C18.6095 8.38228 18.6551 8.08663 18.6409 7.79075C18.6267 7.49488 18.553 7.2046 18.4241 6.93651C18.2951 6.66842 18.1133 6.42779 17.8892 6.22839L17.8906 6.21681ZM1.79868 18.1372L2.53878 15.2693C3.0312 15.3739 3.48674 15.6038 3.85933 15.9358C4.23193 16.2678 4.50837 16.69 4.66069 17.1599L1.79868 18.1372ZM17.1704 4.11442L5.8879 16.2331C5.6448 15.7114 5.29599 15.2433 4.86261 14.8572C4.42923 14.471 3.92029 14.1748 3.36662 13.9866L14.6491 1.86789C14.7618 1.74571 14.8981 1.64647 15.0501 1.57585C15.2021 1.50522 15.3668 1.46459 15.535 1.45628C15.7031 1.44797 15.8712 1.47214 16.0299 1.5274C16.1885 1.58267 16.3344 1.66795 16.4594 1.77838L17.0872 2.33606C17.2127 2.44719 17.3144 2.58151 17.3866 2.73127C17.4588 2.88103 17.4999 3.04327 17.5076 3.2086C17.5154 3.37394 17.4896 3.53911 17.4317 3.69458C17.3738 3.85005 17.285 3.99274 17.1704 4.11442Z" fill="#56585D"/>
</svg>
