<svg width="30" height="28" viewBox="0 0 30 28" fill="none" xmlns="http://www.w3.org/2000/svg">
<path d="M14.7797 0C6.61424 0 0 6.26612 0 14.0018C0 19.7373 3.64106 24.6563 8.84412 26.83C8.80103 25.8503 8.83335 24.6767 9.10266 23.6153C9.38274 22.4825 11.0094 15.9817 11.0094 15.9817C11.0094 15.9817 10.5354 15.0836 10.5354 13.7671C10.5354 11.6954 11.8065 10.1442 13.3901 10.1442C14.7366 10.1442 15.383 11.1035 15.383 12.2465C15.383 13.5222 14.5212 15.4408 14.0795 17.2165C13.7132 18.7065 14.8659 19.9108 16.4171 19.9108C19.2179 19.9108 21.1031 16.5021 21.1031 12.471C21.1031 9.39918 18.9163 7.10297 14.9521 7.10297C10.4707 7.10297 7.6807 10.2666 7.6807 13.8079C7.6807 15.0326 8.05774 15.8898 8.65022 16.5532C8.91953 16.8593 8.96262 16.9818 8.86566 17.3288C8.79026 17.5839 8.62867 18.2065 8.56404 18.4514C8.46709 18.8086 8.16546 18.931 7.82074 18.7984C5.75245 18.0023 4.79371 15.8592 4.79371 13.4507C4.79371 9.47062 8.33782 4.70469 15.3614 4.70469C21.0061 4.70469 24.7226 8.57254 24.7226 12.7261C24.7226 18.2167 21.5017 22.3192 16.751 22.3192C15.1567 22.3192 13.6594 21.5028 13.1423 20.5741C13.1423 20.5741 12.2805 23.799 12.0974 24.4215C11.785 25.5033 11.171 26.5749 10.6108 27.4219C11.9358 27.7893 13.347 27.9934 14.8012 27.9934C22.9667 27.9934 29.5809 21.7273 29.5809 13.9916C29.5594 6.26612 22.9452 0 14.7797 0Z" fill="#F58B1F"/>
</svg>
