<svg width="20" height="18" viewBox="0 0 20 18" fill="none" xmlns="http://www.w3.org/2000/svg">
<path d="M9.5 0C4.25146 0 0 4.0277 0 9C0 12.6866 2.34038 15.8484 5.68476 17.2456C5.65707 16.6159 5.67784 15.8615 5.85095 15.1793C6.03097 14.4512 7.07653 10.2726 7.07653 10.2726C7.07653 10.2726 6.77186 9.69534 6.77186 8.84912C6.77186 7.51749 7.58892 6.52041 8.60678 6.52041C9.4723 6.52041 9.88775 7.13703 9.88775 7.87172C9.88775 8.69169 9.33382 9.92493 9.04992 11.0663C8.8145 12.0241 9.55539 12.7981 10.5525 12.7981C12.3528 12.7981 13.5645 10.6071 13.5645 8.01604C13.5645 6.04154 12.1589 4.5656 9.61078 4.5656C6.73032 4.5656 4.93695 6.59913 4.93695 8.87536C4.93695 9.66254 5.1793 10.2136 5.56013 10.6399C5.73323 10.8367 5.76093 10.9155 5.69861 11.1385C5.65014 11.3025 5.54628 11.7026 5.50474 11.8601C5.44242 12.0897 5.24854 12.1684 5.02697 12.0831C3.69752 11.5714 3.08127 10.1939 3.08127 8.64577C3.08127 6.08746 5.35933 3.02405 9.8739 3.02405C13.5022 3.02405 15.891 5.5102 15.891 8.18003C15.891 11.7092 13.8207 14.3462 10.7671 14.3462C9.74234 14.3462 8.77988 13.8214 8.44752 13.2245C8.44752 13.2245 7.89358 15.2974 7.77587 15.6975C7.57507 16.3929 7.18039 17.0816 6.82033 17.6261C7.67201 17.8622 8.57908 17.9934 9.51385 17.9934C14.7624 17.9934 19.0138 13.9657 19.0138 8.99344C19 4.0277 14.7485 0 9.5 0Z" fill="#333333"/>
</svg>
