<svg width="16" height="16" viewBox="0 0 16 16" fill="none" xmlns="http://www.w3.org/2000/svg">
<path d="M3.58268 15.4671L7.3334 12.9463C7.33346 12.9463 7.33352 12.9462 7.33357 12.9462L7.33388 12.946L7.61279 13.361C7.84848 13.2022 8.13468 13.2022 8.35354 13.361L3.58268 15.4671ZM3.58268 15.4671C3.53766 15.4961 3.50279 15.5008 3.47743 15.4993C3.4485 15.4975 3.41487 15.4861 3.38231 15.4611C3.31828 15.412 3.27388 15.3231 3.30066 15.208L4.42726 10.6788C4.42738 10.6783 4.42751 10.6778 4.42763 10.6773C4.5428 10.2222 4.37301 9.73222 4.03592 9.4378L4.03279 9.43509L0.58339 6.47236C0.583159 6.47216 0.582928 6.47196 0.582697 6.47176C0.506206 6.40495 0.482102 6.30619 0.512375 6.20856C0.541838 6.11355 0.605781 6.06575 0.687358 6.06125L0.687358 6.06127L0.691396 6.06101L5.15274 5.7787L5.15385 5.77863C5.6266 5.74766 6.0267 5.43856 6.19437 4.99922L6.19438 4.99922L6.19545 4.99637L7.82781 0.639872C7.86936 0.532115 7.94388 0.499512 8.00842 0.499512C8.07291 0.499512 8.14738 0.532072 8.18894 0.639658C8.18911 0.640094 8.18927 0.64053 8.18944 0.640968L9.82115 5.01339L9.82114 5.0134L9.82246 5.01686C9.99014 5.45621 10.3902 5.7653 10.863 5.79627L10.864 5.79633L15.3085 6.07865L15.3085 6.07867L15.3126 6.0789C15.3942 6.0834 15.4582 6.1312 15.4876 6.22621C15.5179 6.324 15.4937 6.42292 15.4169 6.48973C15.4168 6.48983 15.4167 6.48992 15.4166 6.49001L11.9717 9.46651C11.5978 9.77278 11.469 10.2461 11.5493 10.6668L11.552 10.6806L11.5554 10.6942L12.6825 15.2082C12.7092 15.3232 12.6648 15.412 12.6009 15.4611C12.5683 15.4861 12.5347 15.4975 12.5057 15.4993C12.4803 15.5008 12.4453 15.4961 12.4002 15.4669L8.6384 12.95L3.58268 15.4671Z" stroke="black"/>
</svg>
