<svg width="30" height="30" viewBox="0 0 30 30" fill="none" xmlns="http://www.w3.org/2000/svg">
<path d="M11.7913 23.5833C5.28929 23.5833 0 18.2929 0 11.791C0 5.28918 5.28929 0 11.7913 0C18.2933 0 23.5838 5.28918 23.5838 11.791C23.5838 18.2929 18.2933 23.5833 11.7913 23.5833ZM11.7913 1.6286C6.18754 1.6286 1.62863 6.18741 1.62863 11.791C1.62863 17.3947 6.18754 21.9535 11.7913 21.9535C17.395 21.9535 21.9539 17.3947 21.9539 11.791C21.9539 6.18741 17.395 1.6286 11.7913 1.6286Z" fill="#262626"/>
<path d="M29.1851 30C28.9771 30 28.7679 29.9211 28.6088 29.762L21.062 22.2153C20.7437 21.8971 20.7437 21.381 21.062 21.0628C21.3802 20.7446 21.8963 20.7446 22.2145 21.0628L29.7613 28.6094C30.0796 28.9276 30.0796 29.4438 29.7613 29.762C29.6022 29.9198 29.393 30 29.1851 30Z" fill="#262626"/>
</svg>
