<svg width="16" height="20" viewBox="0 0 16 20" fill="none" xmlns="http://www.w3.org/2000/svg">
<path fill-rule="evenodd" clip-rule="evenodd" d="M10.6459 16.7945C10.6459 16.5516 10.6965 16.3215 10.7755 16.1052C10.9133 15.7317 11.156 15.4102 11.4718 15.1732C11.8241 14.9084 12.2578 14.7453 12.7338 14.7453C13.885 14.7453 14.8217 15.6646 14.8217 16.7945C14.8217 17.9243 13.885 18.8436 12.7338 18.8436C11.5826 18.8436 10.6459 17.9243 10.6459 16.7945ZM3.26622 12.0486C2.11503 12.0486 1.17829 11.1304 1.17829 10.0006C1.17829 8.86962 2.11503 7.95143 3.26622 7.95143C3.74225 7.95143 4.17586 8.11448 4.52699 8.37815C4.84395 8.61521 5.08668 8.93669 5.22336 9.31136C5.30348 9.52761 5.35415 9.75773 5.35415 10.0006C5.35415 10.2423 5.30348 10.4724 5.22336 10.6886C5.08668 11.0633 4.84395 11.3836 4.52699 11.6219C4.17586 11.8855 3.74225 12.0486 3.26622 12.0486ZM10.6459 3.20555C10.6459 2.07459 11.5826 1.1564 12.7338 1.1564C13.885 1.1564 14.8217 2.07459 14.8217 3.20555C14.8217 4.33536 13.885 5.2547 12.7338 5.2547C12.2578 5.2547 11.823 5.09165 11.4718 4.82683C11.156 4.58977 10.9133 4.26829 10.7755 3.89361C10.6965 3.67736 10.6459 3.44724 10.6459 3.20555ZM12.7338 13.5889C11.8666 13.5889 11.0818 13.9277 10.4962 14.4724L6.19663 11.3871C6.40518 10.9662 6.53244 10.499 6.53244 10.0006C6.53244 9.50101 6.40518 9.03383 6.19663 8.6129L10.495 5.52761C11.0806 6.07112 11.8666 6.4111 12.7338 6.4111C14.5342 6.4111 16 4.97254 16 3.20555C16 1.43741 14.5342 0 12.7338 0C10.9334 0 9.46756 1.43741 9.46756 3.20555C9.46756 3.70396 9.59482 4.17115 9.8022 4.59208L5.50379 7.67736C4.91818 7.13385 4.13344 6.79503 3.26622 6.79503C1.46461 6.79503 0 8.23244 0 10.0006C0 11.7676 1.46461 13.205 3.26622 13.205C4.13344 13.205 4.91818 12.8661 5.50379 12.3226L9.8022 15.4068C9.59482 15.8289 9.46756 16.296 9.46756 16.7945C9.46756 18.5614 10.9334 20 12.7338 20C14.5342 20 16 18.5614 16 16.7945C16 15.0275 14.5342 13.5889 12.7338 13.5889Z" fill="black"/>
</svg>
