<svg width="27" height="14" viewBox="0 0 27 14" fill="none" xmlns="http://www.w3.org/2000/svg">
<path d="M4.12016 7.59247H0.33634C0.150344 7.59247 0 7.73928 0 7.9209C0 8.10251 0.150344 8.24932 0.33634 8.24932H4.12016C4.30616 8.24932 4.4565 8.10251 4.4565 7.9209C4.4565 7.73928 4.30616 7.59247 4.12016 7.59247Z" fill="white"/>
<path d="M3.70209 10.1184H3.31261C3.12661 10.1184 2.97627 10.2652 2.97627 10.4468C2.97627 10.6284 3.12661 10.7752 3.31261 10.7752H3.70209C3.88809 10.7752 4.03843 10.6284 4.03843 10.4468C4.03843 10.2652 3.88809 10.1184 3.70209 10.1184Z" fill="white"/>
<path d="M27 8.13963L23.7247 4.63437H19.8249V2.35085H11.4604C10.8271 0.967533 9.40742 0 7.75801 0C5.52169 0 3.70175 1.77677 3.70175 3.96078C3.70175 5.99306 5.27851 7.67097 7.29991 7.89429V10.1187H4.77569C4.58969 10.1187 4.43935 10.2655 4.43935 10.4471C4.43935 10.6287 4.58969 10.7755 4.77569 10.7755H7.29991V12.6088H8.87264C8.98834 13.3934 9.67414 14 10.5086 14C11.3434 14 12.0292 13.3931 12.1449 12.6088H21.5473C21.663 13.3934 22.3488 14 23.1836 14C24.018 14 24.7041 13.3931 24.8195 12.6088H26.9993V8.13963H27ZM4.37443 3.96045C4.37443 2.13869 5.89233 0.656517 7.75801 0.656517C9.62369 0.656517 11.1416 2.13869 11.1416 3.96045C11.1416 5.78221 9.62369 7.26438 7.75801 7.26438C5.89233 7.26438 4.37443 5.78188 4.37443 3.96045ZM10.5086 13.3428C9.9644 13.3428 9.52144 12.9106 9.52144 12.3786C9.52144 11.8475 9.96406 11.415 10.5086 11.415C11.0531 11.415 11.4961 11.8472 11.4961 12.3786C11.4961 12.9106 11.0535 13.3428 10.5086 13.3428ZM19.1522 11.9516H12.1028C11.9095 11.2659 11.2717 10.7585 10.5089 10.7585C9.74611 10.7585 9.10875 11.2659 8.91535 11.9516H7.97293V7.91039C10.1094 7.80004 11.8143 6.07319 11.8143 3.96012C11.8143 3.63104 11.7682 3.31313 11.6908 3.00737H19.1525L19.1522 11.9516ZM23.1839 13.3428C22.6394 13.3428 22.1964 12.9106 22.1964 12.3786C22.1964 11.8475 22.639 11.415 23.1839 11.415C23.7281 11.415 24.171 11.8472 24.171 12.3786C24.171 12.9106 23.7281 13.3428 23.1839 13.3428ZM26.3273 11.9516H24.7775C24.5841 11.2659 23.9464 10.7585 23.1839 10.7585C22.4207 10.7585 21.7834 11.2659 21.59 11.9516H19.8249V5.29089H23.4277L26.3273 8.39415V11.9516Z" fill="white"/>
<path d="M1.02718 5.15361H2.96315C3.14915 5.15361 3.29949 5.00647 3.29949 4.82519C3.29949 4.64357 3.14915 4.49676 2.96315 4.49676H1.02718C0.841185 4.49676 0.690842 4.64357 0.690842 4.82519C0.690842 5.00647 0.841185 5.15361 1.02718 5.15361Z" fill="white"/>
<path d="M7.69545 4.43502C7.71395 4.44717 7.72976 4.46261 7.74994 4.47082C7.7903 4.48757 7.83469 4.49676 7.88111 4.49676H9.81708C10.0031 4.49676 10.1534 4.34963 10.1534 4.16834C10.1534 3.98672 10.0031 3.83992 9.81708 3.83992H8.21745V1.33274C8.21745 1.15112 8.06711 1.00432 7.88111 1.00432C7.69545 1.00432 7.54477 1.15112 7.54477 1.33274V4.16834C7.54477 4.21366 7.55419 4.25701 7.57134 4.29642C7.57975 4.31646 7.59556 4.33157 7.608 4.34963C7.61977 4.36671 7.62852 4.38608 7.64298 4.40053C7.65744 4.41498 7.67796 4.42352 7.69545 4.43502Z" fill="white"/>
</svg>
