<svg width="58" height="64" viewBox="0 0 58 64" fill="none" xmlns="http://www.w3.org/2000/svg">
<path d="M7.75148 36.6822C7.4565 36.6822 7.17359 36.7999 6.96501 37.0093C6.75642 37.2188 6.63924 37.503 6.63924 37.7992C6.63924 38.0955 6.75642 38.3796 6.96501 38.5891C7.17359 38.7986 7.4565 38.9163 7.75148 38.9163H11.3718V54.2201C11.3718 54.5164 11.489 54.8005 11.6976 55.01C11.9062 55.2195 12.1891 55.3372 12.4841 55.3372C12.7791 55.3372 13.062 55.2195 13.2706 55.01C13.4791 54.8005 13.5963 54.5164 13.5963 54.2201V38.9163H22.3107V54.2201C22.3107 54.5164 22.4279 54.8005 22.6365 55.01C22.8451 55.2195 23.128 55.3372 23.423 55.3372C23.718 55.3372 24.0009 55.2195 24.2095 55.01C24.418 54.8005 24.5352 54.5164 24.5352 54.2201V38.9163H28.1556C28.4506 38.9163 28.7335 38.7986 28.9421 38.5891C29.1506 38.3796 29.2678 38.0955 29.2678 37.7992C29.2678 37.503 29.1506 37.2188 28.9421 37.0093C28.7335 36.7999 28.4506 36.6822 28.1556 36.6822H7.75148Z" fill="black"/>
<path d="M51.4459 18.4963H45.9181C44.5907 18.4963 43.3176 19.0259 42.379 19.9687C41.4403 20.9114 40.913 22.1899 40.913 23.5231V27.835L39.8008 28.8515L34.868 23.5175C34.2587 22.8778 33.4248 22.5022 32.5439 22.4709C31.663 22.4396 30.8048 22.755 30.1521 23.35C29.8863 23.5986 29.6628 23.8892 29.4903 24.2101L28.3002 24.1319L25.3249 8.97336C25.2741 8.71621 25.1348 8.48522 24.9314 8.32082C24.7281 8.15643 24.4737 8.0691 24.2127 8.07412H1.13364C0.967391 8.07091 0.802546 8.10517 0.651227 8.17439C0.499909 8.24361 0.365967 8.34602 0.259259 8.47409C0.15255 8.60216 0.0757897 8.75263 0.0346248 8.91442C-0.00654014 9.07622 -0.011062 9.24523 0.0213923 9.40901L4.78179 33.627C4.83265 33.8841 4.97193 34.1151 5.17527 34.2795C5.37861 34.4439 5.63305 34.5312 5.89404 34.5262H29.012C29.1783 34.5294 29.3431 34.4952 29.4944 34.426C29.6457 34.3567 29.7797 34.2543 29.8864 34.1263C29.9931 33.9982 30.0699 33.8477 30.111 33.6859C30.1522 33.5241 30.1567 33.3551 30.1243 33.1913L28.7506 26.4163H29.151C29.2648 27.0432 29.5542 27.6244 29.9852 28.0919L37.1647 35.9114C37.6315 36.4107 38.2394 36.7544 38.9066 36.8962C39.5737 37.038 40.2682 36.9711 40.8963 36.7045V38.4918L40.2512 39.1956C39.8724 39.6207 39.6068 40.1351 39.479 40.691C39.3512 41.2468 39.3653 41.8261 39.5201 42.375C39.6749 42.9239 39.9654 43.4246 40.3644 43.8306C40.7635 44.2365 41.2583 44.5346 41.8028 44.6971C42.5083 45.73 43.5573 46.4765 44.7614 46.8028V57.3144H44.6001C43.7661 57.3231 42.9688 57.6605 42.3801 58.2539C41.7914 58.8473 41.4582 59.6492 41.4524 60.4868V60.8108C41.4539 61.6562 41.7889 62.4665 42.3841 63.0643C42.9793 63.662 43.7862 63.9985 44.6279 64H49.7943C50.5317 64 51.239 63.7058 51.7605 63.182C52.2819 62.6583 52.5749 61.948 52.5749 61.2073V46.8028C53.6894 46.5043 54.6748 45.8451 55.3785 44.9272C56.0823 44.0094 56.4651 42.8842 56.4677 41.7257V23.5399C56.4699 22.8769 56.3415 22.2201 56.09 21.6072C55.8384 20.9943 55.4685 20.4374 55.0018 19.9686C54.535 19.4998 53.9806 19.1284 53.3703 18.8757C52.76 18.6231 52.106 18.4941 51.4459 18.4963ZM4.58159 20.9762L2.48501 10.3082H23.3229L25.603 21.9481L23.1004 20.7025C22.9466 20.6258 22.7772 20.5858 22.6055 20.5858C22.4337 20.5858 22.2643 20.6258 22.1105 20.7025L18.6793 22.4117L10.6989 18.4237C10.5451 18.347 10.3757 18.307 10.204 18.307C10.0322 18.307 9.86283 18.347 9.70903 18.4237L4.58159 20.9762ZM6.80608 32.2921L5.02649 23.2495L10.204 20.669L18.1843 24.6458C18.3381 24.7225 18.5075 24.7625 18.6793 24.7625C18.851 24.7625 19.0204 24.7225 19.1742 24.6458L22.6055 22.9367L24.513 23.8862L23.9569 23.8471C23.6619 23.8138 23.3658 23.8995 23.1337 24.0854C22.9017 24.2713 22.7527 24.5422 22.7195 24.8385C22.6863 25.1347 22.7717 25.4321 22.9568 25.6652C23.1419 25.8982 23.4116 26.0479 23.7066 26.0812H23.8067L26.4538 26.2599L27.6384 32.2921H6.80608ZM40.8963 33.9677L40.3402 34.4648C40.2328 34.5656 40.1066 34.644 39.9689 34.6955C39.8311 34.747 39.6846 34.7706 39.5378 34.7649C39.3909 34.7591 39.2466 34.7242 39.1133 34.6622C38.9799 34.6002 38.8601 34.5122 38.7608 34.4034L31.648 26.6118L32.1652 26.6453C32.4594 26.6653 32.7495 26.567 32.9716 26.3722C33.1938 26.1774 33.3298 25.902 33.3498 25.6065C33.3596 25.4133 33.3194 25.2208 33.233 25.0479L38.9221 31.1918C39.0217 31.2994 39.1414 31.3862 39.2745 31.4473C39.4075 31.5083 39.5513 31.5424 39.6975 31.5476C39.8437 31.5528 39.9894 31.529 40.1264 31.4775C40.2635 31.426 40.389 31.3479 40.4959 31.2476L40.8852 30.8846L40.8963 33.9677ZM41.9474 42.3122C41.8399 42.2125 41.753 42.0926 41.6917 41.9591C41.6304 41.8257 41.5959 41.6814 41.5903 41.5346C41.5846 41.3878 41.6078 41.2413 41.6586 41.1034C41.7094 40.9656 41.7867 40.8393 41.8862 40.7315L46.997 35.1853C47.187 34.9784 47.2923 34.7071 47.2917 34.4257V27.4329C47.2917 27.1366 47.4089 26.8525 47.6175 26.643C47.8261 26.4335 48.109 26.3158 48.404 26.3158C48.699 26.3158 48.9818 26.4335 49.1904 26.643C49.399 26.8525 49.5162 27.1366 49.5162 27.4329V35.2523C49.516 35.4109 49.4822 35.5677 49.417 35.7121C49.3518 35.8566 49.2567 35.9854 49.138 36.0901C49.0874 36.1342 49.0409 36.1828 48.999 36.2353C48.721 36.5593 45.5789 39.9887 43.5157 42.2396C43.3147 42.4552 43.0369 42.5821 42.743 42.5926C42.4491 42.6031 42.163 42.4962 41.9474 42.2954V42.3122ZM50.3504 61.2408C50.3504 61.389 50.2918 61.531 50.1875 61.6358C50.0832 61.7405 49.9418 61.7994 49.7943 61.7994H44.6279C44.3757 61.7994 44.1338 61.6988 43.9555 61.5196C43.7771 61.3405 43.6769 61.0976 43.6769 60.8443V60.4868C43.6769 60.2335 43.7771 59.9906 43.9555 59.8115C44.1338 59.6324 44.3757 59.5317 44.6279 59.5317H45.9014C46.1964 59.5317 46.4793 59.414 46.6879 59.2046C46.8965 58.9951 47.0137 58.7109 47.0137 58.4147V47.244H50.3504V61.2408ZM54.2432 41.7369C54.2389 42.532 53.9232 43.2935 53.3644 43.8569C52.8056 44.4202 52.0486 44.7401 51.2569 44.7474H46.135C45.5667 44.7517 45.0091 44.5928 44.5278 44.2894C44.754 44.1294 44.9595 43.9418 45.1395 43.7308C49.2048 39.3017 50.3115 38.0841 50.6396 37.7043C50.9866 37.3926 51.2648 37.0114 51.4563 36.5853C51.6479 36.1592 51.7485 35.6975 51.7518 35.23V27.4105C51.7518 26.5217 51.4003 25.6693 50.7745 25.0409C50.1488 24.4124 49.3 24.0593 48.4151 24.0593C47.5301 24.0593 46.6814 24.4124 46.0557 25.0409C45.4299 25.6693 45.0784 26.5217 45.0784 27.4105V33.9733L43.1319 36.0845V23.5399C43.1319 22.7992 43.4249 22.0889 43.9464 21.5652C44.4678 21.0415 45.1751 20.7472 45.9125 20.7472H51.4404C52.1779 20.7472 52.8851 21.0415 53.4066 21.5652C53.928 22.0889 54.221 22.7992 54.221 23.5399L54.2432 41.7369Z" fill="black"/>
<path d="M52.586 0.818779C50.9746 0.139656 49.2195 -0.123407 47.4808 0.053589C45.6957 0.288173 44.4499 1.12039 43.9439 2.39943C43.6215 3.26392 43.6515 4.22118 44.0273 5.06363C43.2416 5.83041 42.6559 6.77966 42.322 7.82759C41.9881 8.87552 41.9162 9.9899 42.1127 11.0723C42.3091 12.1548 42.7679 13.172 43.4485 14.0342C44.1291 14.8964 45.0106 15.5771 46.0151 16.0161C47.0196 16.4552 48.1164 16.6391 49.2084 16.5516C50.3005 16.4642 51.3543 16.108 52.2769 15.5147C53.1995 14.9213 53.9624 14.1089 54.4983 13.1493C55.0343 12.1897 55.3267 11.1123 55.3499 10.0122C55.8838 9.87013 56.3792 9.60975 56.7997 9.25021C57.2202 8.89066 57.5553 8.44108 57.7802 7.93449C58.7423 5.4937 56.4622 2.3715 52.586 0.818779ZM48.6931 14.3129C47.8474 14.3108 47.0197 14.0665 46.3072 13.6088C45.5947 13.1511 45.0269 12.4989 44.6702 11.7287C44.3136 10.9584 44.183 10.102 44.2937 9.25988C44.4044 8.41774 44.7518 7.62473 45.2952 6.97381C46.3842 8.08654 47.6985 8.9513 49.1492 9.50955C50.4091 10.0265 51.7535 10.3049 53.1143 10.3306C52.9936 11.4256 52.4744 12.4373 51.6563 13.1713C50.8383 13.9053 49.779 14.3099 48.682 14.3073L48.6931 14.3129ZM55.7058 7.10227C55.2832 8.17465 52.7306 8.54329 49.9555 7.43181C48.6721 6.95151 47.5261 6.16119 46.6188 5.13065C46.0293 4.39897 45.8013 3.70081 45.9904 3.22047C46.1795 2.74013 46.8246 2.38826 47.7533 2.26538C47.9986 2.23431 48.2457 2.21938 48.4929 2.2207C49.6075 2.24052 50.7087 2.46777 51.7407 2.89094C54.538 4.00242 56.1341 6.02989 55.7058 7.10227Z" fill="black"/>
</svg>
