<svg width="15" height="17" viewBox="0 0 15 17" fill="none" xmlns="http://www.w3.org/2000/svg">
<path d="M14.4975 3.73418C12.697 3.73418 11.2322 2.28246 11.2322 0.498047C11.2322 0.222954 11.0071 0 10.7297 0H8.03826C7.76069 0 7.53573 0.222954 7.53573 0.498047V11.4341C7.53573 12.4831 6.67462 13.3365 5.61604 13.3365C4.55758 13.3365 3.69648 12.4831 3.69648 11.4341C3.69648 10.3849 4.55758 9.5315 5.61604 9.5315C5.8936 9.5315 6.11857 9.30855 6.11857 9.03345V6.36605C6.11857 6.09109 5.8936 5.868 5.61604 5.868C2.51932 5.868 0 8.36498 0 11.4341C0 14.5032 2.51932 17 5.61604 17C8.71275 17 11.2322 14.5032 11.2322 11.4341V6.59328C12.2324 7.12181 13.3453 7.39768 14.4975 7.39768C14.775 7.39768 15 7.17473 15 6.89964V4.23223C15 3.95727 14.775 3.73418 14.4975 3.73418ZM13.9949 6.38097C12.9221 6.29251 11.9033 5.92105 11.0231 5.29356C10.8701 5.18436 10.6683 5.16931 10.5004 5.25465C10.3326 5.33974 10.2271 5.51094 10.2271 5.69784V11.4341C10.2271 13.9539 8.15852 16.0039 5.61604 16.0039C3.07355 16.0039 1.00506 13.9539 1.00506 11.4341C1.00506 9.08248 2.80658 7.13997 5.11351 6.89108V8.57821C3.7394 8.81504 2.69142 10.0054 2.69142 11.4341C2.69142 13.0324 4.00336 14.3327 5.61604 14.3327C7.22884 14.3327 8.54079 13.0324 8.54079 11.4341V0.996094H10.2565C10.4867 2.93251 12.0411 4.47308 13.9949 4.70123V6.38097Z" fill="#262626"/>
</svg>
