<svg width="19" height="15" viewBox="0 0 19 15" fill="none" xmlns="http://www.w3.org/2000/svg">
<path fill-rule="evenodd" clip-rule="evenodd" d="M19 1.80001C18.2909 2.10913 17.5407 2.31129 16.7734 2.40001C17.5795 1.92856 18.2638 1.18696 18.5547 0.300015C17.768 0.737574 16.9155 1.04162 16.0312 1.20001C15.6649 0.818981 15.2264 0.516368 14.7418 0.310206C14.2573 0.104044 13.7367 -0.00144801 13.2109 1.50113e-05C11.0616 1.50113e-05 9.35156 1.65961 9.35156 3.75001C9.35156 4.04866 9.34117 4.37446 9.35156 4.65001C6.11859 4.49266 3.25969 3.04636 1.33594 0.750014C1.01776 1.29362 0.863035 1.91905 0.890625 2.55001C0.890625 3.86806 1.47547 5.01826 2.52344 5.70001C1.90348 5.68934 1.29417 5.53541 0.742188 5.25001V5.40001C0.742188 7.23781 2.22508 8.64856 4.00781 9.00001C3.66918 9.09447 3.32001 9.14487 2.96875 9.15001C2.72179 9.17101 2.47352 9.17101 2.22656 9.15001C2.72383 10.6572 4.08648 11.6718 5.78906 11.7C4.43087 12.7676 2.75974 13.3481 1.03906 13.35C0.721406 13.35 0.302812 13.2308 0 13.2C1.72188 14.2733 3.88758 15 6.08594 15C13.248 15 17.0703 9.20911 17.0703 4.20001C17.0703 4.03501 17.0777 3.91246 17.0703 3.75001C17.8238 3.22193 18.4774 2.56146 19 1.80001Z" fill="#262626"/>
</svg>
