<svg width="44" height="18" viewBox="0 0 44 18" fill="none" xmlns="http://www.w3.org/2000/svg">
<path fill-rule="evenodd" clip-rule="evenodd" d="M11.0722 6.50136H12.7757V12.2249C12.7757 12.9835 12.7288 13.7658 13.6274 13.7658C14.1916 13.7658 14.2662 13.1979 14.2662 12.0048V6.50136H15.9696V14.8665H14.2662V14.4262L13.6274 14.2061C13.5399 14.459 13.3937 14.6858 13.2015 14.8665C13.0169 15.0087 12.793 15.0859 12.5627 15.0867C12.2654 15.0888 11.9724 15.0131 11.711 14.8665C11.5308 14.7655 11.3828 14.6126 11.2852 14.4262C11.1828 14.2183 11.1111 13.9957 11.0722 13.7658C11.0467 13.4982 11.0722 12.8303 11.0722 12.0048V6.50136ZM5.32319 10.0235C5.32319 9.15884 5.18692 8.51736 5.32319 8.04231C5.49563 7.59645 5.79202 7.21343 6.1749 6.94163C6.53669 6.64271 6.98956 6.48665 7.45247 6.50136C7.88891 6.47465 8.32557 6.54989 8.73003 6.72149C8.99903 6.87482 9.22051 7.1038 9.36882 7.3819C9.55499 7.65024 9.69873 7.94746 9.79467 8.26245C9.9236 8.76574 9.99506 9.28291 10.0076 9.80339V11.3443C9.99641 11.9375 9.92505 12.5277 9.79467 13.1054C9.71875 13.4961 9.57442 13.8691 9.36882 14.2061C9.22728 14.4894 9.00405 14.7202 8.73003 14.8665C8.39608 15.023 8.03188 15.0983 7.6654 15.0867C7.23013 15.0943 6.79718 15.0197 6.38783 14.8665C6.1331 14.7981 5.90807 14.643 5.74905 14.4262C5.55065 14.0855 5.40684 13.7138 5.32319 13.3256C5.3168 13.3465 5.32319 12.3645 5.32319 11.5645V10.0235ZM1.27757 3.6396L2.55513 8.04231C2.79787 6.84521 3.24928 5.36568 3.61977 3.6396H4.89734L3.40684 10.2437V14.8665H1.91635V10.2437L0 3.6396H1.27757ZM43.8339 14.0619C43.727 15.0538 43.2831 15.9743 42.5813 16.6596C41.8794 17.3448 40.9652 17.7504 40.0012 17.8042C34.1053 18.0653 28.2143 18.0653 22.3282 17.8042C20.3246 17.6699 18.504 16.1237 18.2826 14.0619C18.0633 10.7637 18.0633 7.45392 18.2826 4.15578C18.5019 2.09465 20.3246 0.337963 22.3282 0.193334C28.2221 -0.0644447 33.8923 -0.0644447 39.7883 0.193334C41.7898 0.337963 43.6125 2.09465 43.8339 4.15578C44.0554 7.45384 44.0554 10.7638 43.8339 14.0619ZM7.6654 14.2061C8.51711 14.2061 8.30418 12.9586 8.30418 12.6652V9.14299C8.30418 8.26244 8.16791 7.61194 7.6654 7.60204C7.15224 7.59191 7.02661 8.26244 7.02661 9.14299V12.6652C7.02661 13.1977 7.01384 14.2061 7.6654 14.2061ZM20.4119 4.81618H22.1153V14.5022H24.0316V4.81618H25.7351V3.0551H20.4119V4.81618ZM28.929 11.2001C28.929 12.2348 28.7373 12.4109 28.7161 12.5209C28.6708 12.6565 28.5839 12.7729 28.4685 12.8525C28.3531 12.932 28.2157 12.9702 28.0773 12.9612C27.7983 12.9612 27.7174 12.777 27.6514 12.5209C27.6237 12.4137 27.6514 12.1854 27.6514 11.2001V5.69673H25.948V12.9612C25.9837 13.3345 26.055 13.7032 26.1609 14.0619C26.2569 14.2495 26.4053 14.4029 26.5868 14.5022C26.7716 14.6441 26.9954 14.7212 27.2256 14.7223C27.4548 14.7155 27.677 14.6389 27.8643 14.5022C28.0549 14.32 28.2009 14.0937 28.2902 13.8417L28.929 14.0619V14.5022H30.4195V5.69673H28.929V11.2001ZM36.1685 6.137C36.07 5.95135 35.9222 5.79862 35.7427 5.69673C35.4757 5.5657 35.1862 5.49087 34.891 5.47659C34.6802 5.47659 34.6482 5.58071 34.4651 5.69673C34.4012 5.73943 33.4005 7.01754 33.4005 7.01754V3.0551H31.697V14.5022H33.4005V14.0619L33.6134 13.4015L34.0392 13.8417C34.2011 14.1171 34.2756 14.3701 34.4651 14.5022C34.6551 14.6334 34.8757 14.7095 35.1039 14.7223C35.6405 14.7223 35.9854 14.3465 36.1685 13.8417C36.2811 13.4848 36.3526 13.1153 36.3815 12.7411V8.11822C36.3815 8.13583 36.3793 7.01006 36.3815 6.79741C36.3469 6.56646 36.2749 6.34319 36.1685 6.137ZM34.678 11.4203C34.678 12.2334 34.6823 12.5176 34.678 12.5209C34.6309 12.6523 34.5442 12.7645 34.4307 12.8411C34.3173 12.9177 34.183 12.9546 34.0478 12.9465C33.911 12.9512 33.776 12.9131 33.6605 12.8372C33.545 12.7612 33.4543 12.651 33.4005 12.5209C33.3621 12.401 33.4005 12.1648 33.4005 11.4203V9.2189C33.4005 8.4438 33.3664 8.00639 33.4005 7.89808C33.4535 7.76809 33.5424 7.65708 33.6559 7.57881C33.7695 7.50055 33.9028 7.45847 34.0392 7.45781C34.1764 7.45529 34.311 7.49608 34.4252 7.57475C34.5393 7.65342 34.6275 7.76622 34.678 7.89808C34.7142 8.01784 34.678 8.48585 34.678 9.2189V11.4203ZM39.1495 10.3196H42.1305V9.43903C42.1305 8.58249 42.0709 7.47476 41.9176 7.01754C41.7749 6.57441 41.4278 6.40116 41.0659 6.137C40.6997 5.84643 40.2498 5.69139 39.7883 5.69673C39.339 5.69673 38.8535 5.70179 38.5107 5.91686C38.1275 6.18832 37.8311 6.57145 37.659 7.01754C37.4993 7.44152 37.4461 8.1431 37.4461 9.2189V11.8605C37.4355 12.5743 37.6288 13.2755 38.0018 13.8763C38.2144 14.1358 38.4869 14.3357 38.7939 14.4575C39.1752 14.6283 39.5857 14.7184 40.0012 14.7223C40.3001 14.7398 40.5971 14.663 40.8529 14.5022C41.1276 14.3516 41.5194 14.1409 41.7046 13.8417C42.0794 12.8412 42.1305 13.1798 42.1305 11.6404V11.2001H40.4271V12.0807C40.4271 12.5777 40.4952 12.9867 40.4271 13.1813C40.3753 13.3123 40.2868 13.4242 40.1729 13.5026C40.0591 13.5811 39.9251 13.6225 39.7883 13.6216C39.2538 13.6284 39.1495 13.0803 39.1495 12.3008V10.3196ZM39.1495 8.11822C39.1495 7.39772 39.1176 7.55599 39.1495 7.45781C39.2021 7.32743 39.2908 7.21605 39.4044 7.1377C39.5181 7.05935 39.6517 7.01754 39.7883 7.01754C39.9249 7.01754 40.0585 7.05935 40.1721 7.1377C40.2858 7.21605 40.3745 7.32743 40.4271 7.45781C40.4569 7.55885 40.4271 7.44703 40.4271 8.11822V9.43903H39.1495V8.11822Z" fill="#262626"/>
</svg>
