<svg width="20" height="20" viewBox="0 0 20 20" fill="none" xmlns="http://www.w3.org/2000/svg">
<rect width="20" height="20" rx="10" fill="#5FE15C"/>
<path fill-rule="evenodd" clip-rule="evenodd" d="M10.9524 15H9.04762C8.23934 15 7.46417 14.6878 6.89263 14.1322C6.32109 13.5766 6 12.823 6 12.0372V10.2318C6.00001 9.93287 6.119 9.64557 6.33204 9.43005C6.54508 9.21453 6.83564 9.08752 7.14286 9.07562V7.73193H7.14357C7.15581 7.0033 7.46214 6.30854 7.99649 5.79748C8.53084 5.28642 9.25041 5 10 5C10.7496 5 11.4692 5.28642 12.0035 5.79748C12.5379 6.30854 12.8442 7.0033 12.8564 7.73193H12.8571V9.07562C13.1644 9.08752 13.4549 9.21453 13.668 9.43005C13.881 9.64557 14 9.93287 14 10.2318V12.0372C14 12.823 13.6789 13.5766 13.1074 14.1322C12.5358 14.6878 11.7607 15 10.9524 15ZM9.80952 12.0049V12.9631C9.80952 13.0122 9.82959 13.0593 9.86531 13.094C9.90103 13.1288 9.94948 13.1483 10 13.1483C10.0505 13.1483 10.099 13.1288 10.1347 13.094C10.1704 13.0593 10.1905 13.0122 10.1905 12.9631V12.0049C10.3176 11.9612 10.4247 11.8753 10.4929 11.7623C10.5611 11.6492 10.586 11.5164 10.5632 11.3872C10.5404 11.2581 10.4714 11.1409 10.3683 11.0565C10.2653 10.972 10.1348 10.9257 10 10.9257C9.8652 10.9257 9.73475 10.972 9.63168 11.0565C9.52862 11.1409 9.45959 11.2581 9.4368 11.3872C9.41401 11.5164 9.43891 11.6492 9.50712 11.7623C9.57532 11.8753 9.68244 11.9612 9.80952 12.0049ZM11.7143 7.50046H11.6902C11.6226 7.11221 11.4158 6.75978 11.1064 6.50564C10.797 6.25149 10.405 6.11206 10 6.11206C9.59495 6.11206 9.20299 6.25149 8.8936 6.50564C8.5842 6.75978 8.37737 7.11221 8.30976 7.50046H8.28571V9.07444H11.7143V7.50046Z" fill="white"/>
</svg>
