<svg width="436" height="676" viewBox="0 0 436 676" fill="none" xmlns="http://www.w3.org/2000/svg">
<path opacity="0.3" d="M307.167 539.17C310.018 540.735 313.606 539.69 315.17 536.839C316.051 535.236 316.218 533.241 315.46 531.665C315.38 531.389 315.202 531.292 315.121 531.016C314.702 530.09 313.909 529.423 312.84 528.836C311.949 528.347 310.96 528.036 309.776 528.081C309.598 527.983 309.322 528.064 309.046 528.144C307.309 528.35 305.716 529.563 304.836 531.166C303.271 534.017 304.316 537.605 307.167 539.17Z" fill="#964C22"/>
<path d="M28.6625 211.83C30.0842 207.973 26.4295 203.649 22.5027 204.044C18.3 204.519 15.6592 209.33 17.7905 213.051C20.1 216.869 26.0216 216.641 28.0756 212.9L28.1735 212.721C28.5473 212.463 28.6451 212.285 28.6625 211.83Z" fill="#7990C9"/>
<path d="M193.284 5.21007C191.509 1.68515 185.898 0.923951 183.407 4.19411C183.31 4.37229 183.114 4.72865 182.918 5.08501L182.821 5.26314C180.669 9.18309 183.754 14.1228 188.215 14.0212C192.32 13.724 195.059 8.73499 193.284 5.21007Z" fill="#7990C9"/>
<path opacity="0.2" d="M289.734 114.087C291.023 111.316 294.254 110.076 297.14 110.733C297.318 110.83 297.496 110.928 297.496 110.928C297.675 111.026 297.853 111.124 297.853 111.124L298.031 111.222L298.209 111.319C298.387 111.417 298.387 111.417 298.565 111.515L298.744 111.613C300.669 113.597 301.357 116.989 299.712 119.564C298.458 121.426 296.135 122.702 293.686 122.517C293.053 122.401 292.421 122.286 291.708 121.895C291.174 121.601 290.737 121.13 290.122 120.561C289.605 119.813 289.186 118.887 289.025 118.335C288.801 117.053 288.951 115.512 289.734 114.087ZM281.323 141.236C282.472 142.099 284.111 142.071 285.348 140.663C290.588 134.496 299.248 129.28 302.723 121.681C304.715 117.209 304.62 110.201 299.809 107.56C295.176 105.017 289.506 108.165 286.722 111.97C281.723 118.964 281.955 129.525 279.646 137.533C279.122 139.332 280.076 140.551 281.323 141.236Z" fill="#F05649"/>
<path d="M156.664 231.435C156.622 229.956 157.161 228.293 158.078 227.149C159.912 224.863 163.39 224.4 165.881 225.531C166.585 225.734 167.024 226.448 167.402 226.968C168.781 229.303 168.733 232.516 166.838 234.609C165.268 236.385 162.555 237.245 160.382 236.441C159.678 236.237 158.973 236.034 158.34 235.382C157.83 235.117 157.646 234.535 157.268 234.015C157.023 233.24 156.716 232.272 156.664 231.435ZM148.889 252.661C149.083 252.599 149.215 252.344 149.409 252.283C155.587 247.554 163.867 244.078 168.84 238.239C172.244 234.176 173.89 227.258 169.643 223.273C165.273 218.9 157.9 221.875 154.497 225.938C152.142 228.603 150.87 231.991 149.792 235.318C148.245 239.859 146.188 244.135 144.131 248.411C143.337 249.942 143.828 251.492 144.716 252.277C145.727 253.449 147.197 254.05 148.563 252.977C148.501 252.783 148.695 252.722 148.889 252.661Z" fill="#F05649"/>
<path d="M221.26 662.218C221.351 661.615 221.642 661.042 222.134 660.499C222.627 659.956 223.119 659.414 223.983 659.132C224.878 658.649 225.913 658.599 226.747 658.519C228.184 658.528 229.763 658.971 230.848 659.955C232.818 661.895 233.602 664.89 232.407 667.383C232.407 667.383 232.407 667.383 232.377 667.584C232.377 667.584 232.377 667.584 232.346 667.785C232.055 668.358 231.794 668.729 231.331 669.071L231.1 669.242C228.618 670.72 225.11 670.811 222.999 668.439C221.17 666.932 220.728 664.399 221.26 662.218ZM235.171 670.88C238.768 666.075 235.853 659.472 232.054 656.025C226.224 651.041 217.5 648.911 210.655 645.214C210.454 645.183 210.283 644.952 210.082 644.922C209.881 644.892 209.881 644.892 209.71 644.661C208.162 644.018 206.604 644.812 206.022 645.958C205.238 647.073 205.027 648.481 206.052 649.867C208.957 653.797 211.46 657.666 213.702 661.907C215.491 665.053 217.08 668.168 219.824 670.429C223.794 674.107 231.342 675.855 235.171 670.88Z" fill="#F05649"/>
<path d="M412.023 534.598C415.895 539.058 409.283 545.171 405.171 541.292C404.986 541.079 404.986 541.079 404.802 540.867C404.064 540.017 403.724 539.196 403.595 538.19C403.479 534.194 408.889 530.988 412.023 534.598ZM397.882 551.343C397.614 552.321 396.736 553.456 395.886 554.193C394.003 555.456 391.594 555.685 389.935 553.773L389.751 553.561L389.566 553.348C388.276 551.862 388.388 550.275 389.081 548.928C389.293 548.744 389.109 548.531 389.321 548.347C390.651 546.447 392.932 545.212 395.256 546.174C395.837 546.414 396.603 546.867 397.156 547.504C397.525 547.929 397.709 548.141 397.681 548.538C398.022 549.36 398.15 550.366 397.882 551.343ZM414.746 555.325C418.803 559.998 411.582 566.266 407.525 561.594C406.788 560.745 406.447 559.923 406.503 559.129C406.375 558.123 406.459 556.933 407.124 555.983C408.879 553.715 412.35 552.564 414.746 555.325ZM344.38 552.351C338.104 553.703 340.109 562.018 346.116 561.645C361.758 560.357 377.472 560.868 392.861 563.151C399.578 564.024 416.403 571.392 421.781 562.999C427.611 553.841 416.91 550.095 404.242 548.802C416.14 544.06 425.373 537.534 417.517 530.201C410.583 523.93 399.142 533.489 392.967 536.243C377.486 543.723 361.168 548.951 344.38 552.351Z" fill="#F58B1F"/>
<path d="M280.359 328.253C282.078 326.512 284.768 329.17 283.048 330.911C282.814 331.148 282.578 331.228 282.265 331.387C281.794 331.547 281.322 331.55 280.927 331.316C279.98 330.693 279.342 329.281 280.359 328.253ZM284.257 335.858C284.573 336.171 284.811 336.562 284.972 337.033C285.053 337.583 284.978 338.134 284.509 338.609C284.275 338.846 283.961 339.005 283.725 339.085C283.647 339.164 283.568 339.086 283.49 339.165C282.783 339.248 282.152 338.937 281.755 338.389C281.676 338.311 281.676 338.311 281.597 338.233C281.2 337.527 281.116 336.663 281.82 335.951C281.898 335.872 281.898 335.872 281.976 335.793C282.367 335.397 282.759 335.316 283.31 335.392C283.625 335.39 284.02 335.623 284.257 335.858ZM288.005 331.275C289.725 329.534 292.414 332.192 290.694 333.933C290.147 334.486 289.519 334.647 288.967 334.415C288.494 334.26 288.02 333.948 287.781 333.399C287.384 332.694 287.379 331.907 288.005 331.275ZM278.274 334.792C277.842 341.558 276.465 348.172 274.459 354.632C273.842 356.681 277.074 357.999 277.927 356.027C280.723 350.034 284.071 344.274 288.129 339.059C289.768 336.926 294.936 333.121 292.95 329.751C290.805 326.068 287.442 329.155 284.635 333.261C285.234 328.224 284.814 323.587 280.655 325.105C277.359 326.383 278.494 332.038 278.274 334.792Z" fill="#F58B1F"/>
<path d="M135.282 132.107C142.835 130.791 147.014 121.87 147.029 114.905C146.558 105.156 140.004 98.1066 134.246 90.9185C132.568 88.3438 130.044 87.9644 127.728 88.7777C125.343 89.1935 123.494 90.3353 122.32 92.9976C119.333 101.71 115.552 110.562 118.408 119.894C120.778 126.444 128.196 133.752 135.282 132.107Z" fill="#F58B1F"/>
<path opacity="0.2" d="M61.4866 78.2615C60.4017 77.4989 58.6701 78.2189 58.1064 79.2459C57.895 79.631 57.8119 80.0866 57.7993 80.4138C57.6862 83.3588 57.3038 86.49 58.7689 89.2989C60.1182 91.7102 63.7002 94.0104 66.4512 92.3465C69.1318 90.8109 69.4235 86.6276 68.1447 84.088C66.8659 81.5484 64.4267 80.2095 62.1285 78.6139C62.0001 78.5434 61.7434 78.4025 61.4866 78.2615Z" fill="#F58B1F"/>
<path d="M388.608 441.96C388.252 441.765 387.895 441.569 387.441 441.552C384.038 440.147 380.377 438.369 376.548 438.586C372.621 438.981 368.038 442.262 368.139 446.723C368.339 451.006 373.782 453.762 377.433 453.448C381.814 453.07 385.017 450.191 388.559 447.962L388.657 447.784C389.031 447.525 389.503 447.089 389.796 446.554C390.854 445.048 390.309 442.662 388.608 441.96Z" fill="#F58B1F"/>
<path d="M8.9861 396.873C8.9861 396.009 8.64039 395.144 7.77616 394.28C-10.3726 376.996 -42.522 409.318 -25.2374 427.467C-24.546 428.331 -23.5089 428.677 -22.8175 428.677C-20.5705 429.195 -17.9779 427.985 -18.1507 425.047C-19.0149 412.429 -7.26141 400.675 5.35633 401.54C8.2947 401.885 9.50464 399.12 8.9861 396.873Z" fill="#964C22"/>
<path d="M102.323 394.454C101.458 395.145 101.113 396.182 101.113 397.046C100.594 399.293 101.804 401.886 104.743 401.713C117.36 400.849 128.941 412.603 128.25 425.22C128.077 428.159 130.669 429.369 132.916 428.85C133.781 428.85 134.645 428.504 135.336 427.64C152.621 409.319 120.472 376.996 102.323 394.454Z" fill="#964C22"/>
<path d="M102.323 556.064C120.472 573.349 152.621 541.027 135.336 522.878C134.645 522.014 133.608 521.668 132.916 521.668C130.669 521.149 128.077 522.359 128.25 525.298C129.114 537.916 117.36 549.669 104.743 548.805C101.804 548.632 100.594 551.225 101.113 553.472C101.286 554.336 101.631 555.2 102.323 556.064Z" fill="#964C22"/>
<path d="M7.77616 556.064C8.64039 555.373 8.9861 554.336 8.9861 553.472C9.50464 551.225 8.2947 548.632 5.35633 548.805C-7.26141 549.669 -18.8421 537.916 -18.1507 525.298C-17.9779 522.359 -20.5705 521.149 -22.8175 521.668C-23.6817 521.668 -24.546 522.014 -25.2374 522.878C-42.522 541.027 -10.3726 573.349 7.77616 556.064Z" fill="#964C22"/>
<path d="M133.78 396.009C136.546 399.812 142.077 400.503 145.534 397.219C149.337 393.589 148.818 387.885 145.361 384.255C141.904 380.799 136.027 380.107 132.571 384.083C129.459 387.54 130.151 393.244 133.78 396.009Z" fill="#964C22"/>
<path d="M145.535 566.089C148.991 562.459 149.51 556.756 145.707 553.126C142.251 550.015 136.547 550.706 133.954 554.336C130.151 557.101 129.633 562.632 132.744 566.262C136.201 570.237 141.905 569.719 145.535 566.089Z" fill="#964C22"/>
<path d="M51.8508 373.539C52.3693 374.231 52.8879 374.749 53.4064 375.44C53.9249 376.132 54.6163 376.996 55.1349 377.86C55.6534 376.996 56.1719 376.305 56.8633 375.44C57.3819 374.749 57.9004 374.058 58.419 373.539C59.2832 372.502 60.3202 371.292 61.1845 370.428C63.7772 367.835 66.8884 365.588 70.3453 364.551C76.9135 362.65 82.7902 366.971 83.8273 373.712C85.3829 383.046 78.9876 394.626 75.0121 402.923C70.1724 413.121 64.2957 422.627 58.419 432.134C56.8634 434.727 53.2336 434.727 51.6779 432.134C45.6283 422.109 39.5788 412.257 34.5662 401.54C30.7636 393.589 24.8869 382.7 26.2697 373.539C27.4796 366.28 34.0477 362.131 40.9615 364.724C44.0728 365.934 46.6654 368.008 49.0853 370.255C50.1223 371.465 50.9866 372.329 51.8508 373.539ZM13.3062 370.428C14.5161 402.231 31.455 434.727 51.6779 458.406C52.715 459.616 53.9249 459.962 55.1349 459.616C56.3448 459.962 57.5547 459.616 58.5918 458.406C78.9876 434.727 95.7536 402.404 96.9636 370.428C97.4821 357.81 90.2225 344.328 75.8764 346.057C65.1599 347.439 59.1103 355.563 55.1349 364.724C51.1594 355.563 45.1098 347.439 34.3934 346.057C20.0472 344.328 12.7877 357.81 13.3062 370.428Z" fill="#F05649"/>
<path d="M156.25 472.061C155.559 472.58 155.04 473.098 154.349 473.617C153.658 474.135 152.793 474.827 152.102 475.345C152.966 475.864 153.658 476.382 154.349 477.074C155.04 477.592 155.732 478.111 156.25 478.629C157.287 479.493 158.497 480.53 159.361 481.568C161.954 484.16 164.201 487.272 165.065 490.728C166.967 497.469 162.645 503.173 155.904 504.383C146.571 505.939 134.99 499.543 126.866 495.568C116.841 490.728 107.162 484.852 97.8283 478.975C95.2356 477.419 95.2356 473.789 97.8283 472.234C107.681 466.011 117.706 459.962 128.249 454.949C136.2 451.147 147.089 445.097 156.077 446.653C163.164 447.863 167.485 454.431 164.892 461.345C163.683 464.456 161.781 467.221 159.361 469.468C158.324 470.16 157.287 471.197 156.25 472.061ZM183.56 454.431C185.288 440.085 171.806 432.825 159.361 433.171C127.731 434.381 95.4085 451.32 71.9014 471.715C70.6915 472.752 70.5187 473.962 70.6915 475.172C70.3458 476.382 70.6915 477.592 71.9014 478.629C95.4085 499.025 127.731 515.964 159.361 517.174C171.979 517.692 185.288 510.26 183.56 495.914C182.177 485.197 174.053 478.975 165.065 474.999C174.053 471.197 182.177 465.147 183.56 454.431Z" fill="#F05649"/>
<path d="M58.2471 576.979C57.7286 576.288 57.21 575.769 56.6915 575.078C56.173 574.386 55.4816 573.522 54.963 572.658C54.4445 573.522 53.926 574.213 53.2346 575.078C52.716 575.769 52.1975 576.46 51.6789 576.979C50.8147 578.016 49.7777 579.226 48.9134 580.09C46.3208 582.683 43.2095 584.93 39.7526 585.967C33.1844 587.868 27.3077 583.547 26.2706 576.806C24.715 567.472 31.1103 555.892 35.0858 547.595C39.9255 537.397 45.8022 527.891 51.6789 518.384C53.2345 515.792 56.8643 515.792 58.42 518.384C64.4696 528.409 70.5191 538.262 75.5317 548.978C79.3343 556.929 85.211 567.818 83.8282 576.979C82.6183 584.238 76.0502 588.387 69.1364 585.794C66.0251 584.584 63.4325 582.51 61.0126 580.263C59.9756 579.053 59.1113 578.016 58.2471 576.979ZM96.7917 579.917C95.5818 548.114 78.6429 515.619 58.42 491.939C57.3829 490.729 56.173 490.383 54.963 490.729C53.7531 490.383 52.5432 490.729 51.5061 491.939C31.1103 515.619 14.3443 547.941 13.1344 579.917C12.6158 592.535 19.8754 606.017 34.2216 604.289C44.938 602.906 50.9876 594.782 54.963 585.621C58.9385 594.782 64.9881 602.906 75.7045 604.289C90.0507 606.19 97.3102 592.535 96.7917 579.917Z" fill="#F05649"/>
<path d="M-46.1505 478.457C-45.4591 477.939 -44.9406 477.42 -44.2492 476.902C-43.5579 476.383 -42.6936 475.692 -42.0022 475.173C-42.8664 474.655 -43.5579 474.136 -44.2492 473.445C-44.9406 472.926 -45.632 472.408 -46.1505 471.889C-47.1876 471.025 -48.3975 469.988 -49.2618 468.951C-51.8544 466.358 -54.1014 463.247 -54.9657 459.79C-56.867 453.049 -52.5458 447.345 -45.8048 446.135C-36.4712 444.579 -24.8905 450.975 -16.7667 454.95C-6.74168 459.79 2.93767 465.667 12.2713 471.543C14.864 473.099 14.864 476.729 12.2713 478.284C2.41913 484.507 -7.60593 490.556 -18.1495 495.569C-26.1004 499.372 -36.9897 505.421 -45.9777 503.866C-53.0644 502.656 -57.3855 496.088 -54.7928 489.174C-53.5829 486.062 -51.6816 483.297 -49.2618 481.05C-48.2247 480.186 -47.1876 479.321 -46.1505 478.457ZM39.4081 475.173C39.7538 473.963 39.4081 472.753 38.1982 471.716C14.6912 451.321 -17.631 434.382 -49.2618 433.172C-61.8795 432.653 -75.1886 440.086 -73.4602 454.432C-72.0774 465.148 -63.9536 471.371 -54.9657 475.346C-64.1265 479.322 -72.2503 485.371 -73.4602 496.26C-75.1886 510.607 -61.7067 517.866 -49.2618 517.52C-17.631 516.311 14.6912 499.372 38.1982 478.976C39.581 477.593 39.7538 476.383 39.4081 475.173Z" fill="#F05649"/>
<path d="M55.4821 388.576C55.3092 388.749 55.1364 388.922 54.9636 389.268C54.7907 389.095 54.6178 388.922 54.445 388.749C53.4079 387.194 52.198 385.811 50.9881 384.428C47.704 380.453 44.2471 376.823 40.6173 373.366C37.3333 370.428 32.6664 374.057 34.3949 377.86V378.033C39.2345 387.194 45.457 395.317 52.0252 403.268C53.2351 404.824 56.3463 404.824 57.5562 403.268C64.1244 395.317 70.5196 387.367 75.1865 378.033C75.1865 378.033 75.1865 378.033 75.1865 377.86C77.2606 373.885 72.4209 370.082 69.1369 373.193C68.964 373.366 68.9641 373.366 68.7912 373.539C68.2727 374.057 67.5813 374.576 67.0628 375.267C64.1244 378.206 61.186 381.144 58.5933 384.428C57.729 385.638 56.692 387.021 55.4821 388.576Z" fill="#F58B1F"/>
<path d="M141.211 474.827C142.767 473.79 144.15 472.58 145.532 471.37C149.508 468.086 153.138 464.629 156.594 460.827C159.533 457.543 155.903 452.703 152.1 454.604H151.928C142.767 459.444 134.643 465.839 126.865 472.407C125.309 473.617 125.309 476.728 126.865 477.938C134.816 484.507 142.767 490.902 151.928 495.741C151.928 495.741 151.928 495.741 152.1 495.741C156.076 497.816 159.879 492.976 156.767 489.519C156.594 489.346 156.594 489.346 156.422 489.173C155.903 488.655 155.385 487.963 154.866 487.445C151.928 484.507 148.989 481.568 145.705 478.975C144.322 477.766 142.767 476.728 141.384 475.519C141.211 475.346 141.038 475.173 140.865 475C140.865 475 141.038 475 141.211 474.827Z" fill="#F58B1F"/>
<path d="M54.6157 561.94C54.6157 561.94 54.6157 561.768 54.6157 561.94C54.7885 561.768 54.9613 561.595 55.1342 561.249C55.307 561.422 55.4799 561.595 55.6528 561.768C56.6898 563.323 57.8998 564.706 59.1097 566.089C62.3937 570.064 65.8507 573.694 69.4804 577.151C72.7645 580.089 77.4313 576.459 75.7029 572.657V572.484C70.8632 563.323 64.6407 555.199 58.0726 547.248C56.8627 545.693 53.7514 545.693 52.5415 547.248C45.9734 555.199 39.5781 563.15 34.9113 572.484C34.9113 572.484 34.9113 572.484 34.9113 572.657C32.8371 576.632 37.6768 580.435 40.9609 577.324C41.1337 577.151 41.1337 577.151 41.3065 576.978C41.8251 576.459 42.5164 575.941 43.035 575.249C45.9734 572.311 48.9118 569.373 51.5045 566.089C52.3687 564.879 53.4058 563.323 54.6157 561.94Z" fill="#F58B1F"/>
<path d="M52.3705 421.072C53.0619 421.763 53.9261 422.109 54.7903 422.109C54.9632 422.109 55.3089 422.109 55.4817 422.109C56.3459 422.109 57.2102 421.763 57.9015 421.072C59.2843 419.689 60.6671 418.133 62.0498 416.578C63.2598 415.022 63.6055 413.121 62.3955 411.392C62.2227 411.22 62.2227 411.219 62.0498 411.047C60.8399 409.837 58.9386 409.318 57.383 410.355C56.6916 410.874 56.0002 411.392 55.136 411.911C54.4446 411.392 53.7533 410.874 52.889 410.355C51.5063 409.318 49.4321 409.837 48.2222 411.047C48.0493 411.219 48.0494 411.22 47.8765 411.392C46.6666 412.948 46.8394 415.022 48.2222 416.578C49.4321 418.133 50.8149 419.516 52.3705 421.072Z" fill="#F58B1F"/>
<path d="M119.606 477.419C119.088 476.727 118.569 475.863 118.05 475.172C118.569 474.481 119.088 473.616 119.606 472.925C120.643 471.542 120.125 469.468 118.915 468.258C118.742 468.085 118.742 468.085 118.569 467.912C117.013 466.702 114.939 466.875 113.384 468.258C111.828 469.641 110.272 471.024 108.89 472.406C108.198 473.098 107.853 473.962 107.853 474.826C107.853 474.999 107.853 475.345 107.853 475.518C107.853 476.382 108.198 477.246 108.89 477.937C110.272 479.32 111.828 480.703 113.384 482.086C114.939 483.296 116.841 483.641 118.569 482.431C118.742 482.259 118.742 482.259 118.915 482.086C120.125 480.876 120.643 478.974 119.606 477.419Z" fill="#F58B1F"/>
<path d="M57.7281 529.445C57.0367 528.754 56.1725 528.408 55.3083 528.408C55.1354 528.408 54.7897 528.408 54.6169 528.408C53.7527 528.408 52.8884 528.754 52.1971 529.445C50.8143 530.828 49.4315 532.384 48.0488 533.94C46.8388 535.495 46.4931 537.397 47.7031 539.125C47.8759 539.298 47.8759 539.298 48.0488 539.471C49.2587 540.681 51.16 541.199 52.7156 540.162C53.407 539.644 54.0984 539.125 54.9626 538.606C55.654 539.125 56.3453 539.644 57.2096 540.162C58.5923 541.199 60.6665 540.681 61.8764 539.471C62.0493 539.298 62.0492 539.298 62.2221 539.125C63.432 537.569 63.2592 535.495 61.8764 533.94C60.6665 532.384 59.2837 530.828 57.7281 529.445Z" fill="#F58B1F"/>
<path d="M-8.47132 482.432C-6.9157 483.642 -4.84155 483.469 -3.28594 482.086C-1.73033 480.703 -0.174707 479.321 1.20806 477.938C1.89944 477.246 2.24514 476.382 2.24514 475.518C2.24514 475.345 2.24514 474.999 2.24514 474.827C2.24514 473.962 1.89944 473.098 1.20806 472.407C-0.174707 471.024 -1.73033 469.641 -3.28594 468.259C-4.84155 467.049 -6.74286 466.703 -8.47132 467.913C-8.64416 468.086 -8.64418 468.086 -8.81703 468.259C-10.0269 469.468 -10.5455 471.543 -9.5084 472.925C-8.98986 473.617 -8.47134 474.481 -7.9528 475.172C-8.47134 475.864 -8.98986 476.728 -9.5084 477.419C-10.5455 478.802 -10.0269 480.876 -8.81703 482.086C-8.64418 482.259 -8.64416 482.432 -8.47132 482.432Z" fill="#F58B1F"/>
<path d="M-0.347055 428.504C-1.90267 426.43 -2.07555 423.664 -1.03848 421.59C-0.865634 421.244 -0.692758 421.072 -0.519912 420.726C-0.347066 420.38 -0.174231 420.207 0.171461 419.862C0.344307 419.516 0.689999 419.343 1.03569 419.17C1.20854 418.997 1.55422 418.824 1.72706 418.824C4.1469 417.614 6.91246 417.96 8.9866 419.689C10.8879 421.244 11.4065 423.664 10.8879 425.738C10.7151 426.43 10.3694 427.294 10.0237 427.985C9.85084 428.331 9.50511 428.677 9.33226 428.85C8.98657 429.195 8.81373 429.368 8.46803 429.541C7.77665 430.06 7.0853 430.232 6.39392 430.578C3.80123 431.269 1.20856 430.578 -0.347055 428.504ZM-4.6682 415.195C-19.7058 430.405 11.4065 443.196 22.1229 447.517C24.0242 448.208 25.4069 447.517 26.0983 446.134C27.4811 445.443 28.1725 443.887 27.4811 441.986C23.1599 431.442 10.5422 399.984 -4.6682 415.195Z" fill="#F58B1F"/>
<path d="M101.457 419.515C103.531 417.96 106.124 417.787 108.371 418.824C108.717 418.997 108.889 419.17 109.235 419.343C109.581 419.516 109.754 419.688 110.099 420.034C110.445 420.207 110.618 420.553 110.791 420.898C110.964 421.071 111.136 421.417 111.136 421.59C112.346 424.01 112.001 426.775 110.272 429.022C108.717 430.923 106.297 431.442 104.223 430.923C103.531 430.75 102.667 430.405 102.148 429.886C101.803 429.713 101.457 429.368 101.284 429.195C100.939 428.849 100.766 428.676 100.593 428.331C100.074 427.639 99.9015 426.948 99.7287 426.257C98.6916 423.664 99.5558 421.071 101.457 419.515ZM82.6169 442.158C81.9256 444.06 82.6169 445.442 83.9997 446.307C84.6911 447.689 86.2467 448.381 87.9751 447.689C98.6916 443.368 129.804 430.578 114.766 415.367C99.5558 399.984 86.9381 431.442 82.6169 442.158Z" fill="#F58B1F"/>
<path d="M111.136 528.928C110.964 529.274 110.791 529.446 110.618 529.792C110.445 530.138 110.272 530.311 109.927 530.656C109.754 531.002 109.408 531.175 109.062 531.348C108.889 531.521 108.544 531.693 108.371 531.693C105.951 532.903 103.186 532.558 101.111 530.829C99.2101 529.273 98.6916 526.854 99.2101 524.779C99.3829 524.088 99.7286 523.224 100.074 522.532C100.247 522.187 100.593 521.841 100.766 521.668C101.111 521.322 101.284 521.15 101.63 520.977C102.321 520.458 103.013 520.285 103.704 519.94C105.951 519.421 108.544 520.113 110.099 522.187C112.001 523.915 112.174 526.681 111.136 528.928ZM87.9751 502.828C86.0738 502.137 84.6911 502.828 83.9997 504.211C82.6169 504.902 81.9256 506.458 82.6169 508.359C86.9381 519.076 99.5558 550.361 114.766 535.323C129.804 519.94 98.6916 507.322 87.9751 502.828Z" fill="#F58B1F"/>
<path d="M6.04821 519.594C6.73959 519.767 7.60384 520.113 8.12238 520.631C8.46807 520.804 8.81376 521.15 8.9866 521.323C9.3323 521.668 9.50513 521.841 9.67798 522.187C10.1965 522.878 10.3694 523.569 10.5422 524.261C11.0607 526.508 10.3694 529.101 8.29523 530.656C6.22108 532.212 3.6284 532.385 1.3814 531.348C1.03571 531.175 0.862865 531.002 0.517174 530.829C0.171482 530.656 -0.00136375 530.483 -0.347055 530.138C-0.692746 529.965 -0.865634 529.619 -1.03848 529.273C-1.21133 529.101 -1.38414 528.755 -1.38414 528.582C-2.59406 526.162 -2.24837 523.397 -0.519912 521.15C1.55424 519.594 3.97406 519.076 6.04821 519.594ZM27.4811 508.359C28.1725 506.458 27.4811 505.075 26.0983 504.211C25.4069 502.828 23.8513 502.137 22.1229 502.828C11.4065 507.149 -19.7058 519.94 -4.6682 535.15C10.5422 550.361 23.1599 519.076 27.4811 508.359Z" fill="#F58B1F"/>
<path d="M56.5175 464.975C55.999 464.802 55.4804 464.629 54.9619 464.802C54.4434 464.802 53.9248 464.802 53.4062 464.975C48.5666 466.012 44.4183 469.642 44.5912 475.173C44.5912 480.877 49.258 485.544 54.9619 485.544C60.493 485.544 64.987 481.05 65.3326 475.519C65.6783 469.988 61.7029 466.185 56.5175 464.975Z" fill="#F58B1F"/>
<path d="M131.534 364.033C124.275 367.317 120.472 374.231 120.299 381.836C120.299 382.009 120.299 382.182 120.126 382.355C119.953 383.392 120.126 384.429 120.645 385.12C122.201 388.577 128.25 388.059 128.077 383.565C128.077 383.392 128.077 383.219 128.077 382.873C130.843 374.404 143.633 374.231 149.51 380.281C155.387 386.157 155.387 399.121 146.917 401.886C146.745 401.886 146.572 401.886 146.399 401.886C141.905 401.714 141.559 407.763 144.843 409.319C145.535 409.837 146.572 410.01 147.609 409.837C147.782 409.837 147.955 409.837 148.127 409.664C155.733 409.492 162.474 405.689 165.758 398.43C170.079 388.75 164.202 379.935 163.511 370.256C163.338 368.009 161.782 366.453 159.535 366.28C149.856 365.589 141.041 359.539 131.534 364.033Z" fill="#F58B1F"/>
<path d="M163.338 580.262C164.029 570.583 169.906 561.768 165.585 552.088C162.301 544.829 155.56 541.026 147.955 540.853C147.782 540.853 147.609 540.853 147.436 540.68C146.399 540.507 145.362 540.68 144.67 541.199C141.214 542.755 141.732 548.804 146.226 548.631C146.399 548.631 146.572 548.631 146.917 548.631C155.387 551.57 155.387 564.36 149.51 570.237C143.633 576.114 130.843 576.114 128.077 567.644C128.077 567.472 128.077 567.299 128.077 567.126C128.25 562.632 122.201 562.113 120.645 565.57C120.126 566.261 119.953 567.299 120.126 568.336C120.126 568.508 120.126 568.681 120.299 568.854C120.472 576.459 124.275 583.373 131.534 586.657C141.214 590.979 150.029 585.102 159.535 584.41C161.782 583.892 163.165 582.509 163.338 580.262Z" fill="#F58B1F"/>
<path d="M143.631 643.351C146.397 627.968 129.112 621.227 117.013 621.573C116.667 621.573 116.495 621.4 116.149 621.4C112.519 620.708 110.964 626.412 114.593 627.104C114.766 627.104 114.766 627.104 114.939 627.104C115.112 627.276 115.457 627.277 115.63 627.277C115.976 627.277 116.149 627.449 116.495 627.449C123.754 629.524 127.73 635.227 129.285 642.66C128.939 645.771 129.804 648.537 133.088 650.265C138.1 652.685 142.767 648.018 143.631 643.351Z" fill="#F58B1F"/>
<path d="M206.03 415.541C206.03 415.368 206.03 415.368 206.03 415.195C206.203 415.022 206.203 414.676 206.203 414.503C206.203 414.158 206.376 413.985 206.376 413.639C208.45 406.38 214.154 402.404 221.586 400.676C224.697 401.021 227.463 400.157 229.019 396.873C231.438 391.861 226.772 387.194 222.105 386.33C206.721 383.391 199.981 400.849 200.326 413.121C200.326 413.467 200.153 413.639 200.153 413.985C199.635 417.615 205.339 419.17 206.03 415.541Z" fill="#F58B1F"/>
<path d="M133.088 300.079C129.804 301.635 128.939 304.4 129.285 307.512C127.211 314.944 123.927 320.821 116.495 323.068C116.149 323.068 115.803 323.241 115.63 323.241C115.285 323.241 115.112 323.413 114.939 323.413C114.766 323.413 114.766 323.413 114.593 323.413C110.964 324.105 112.519 329.809 116.149 329.117C116.495 329.117 116.667 328.944 117.013 328.944C129.285 329.29 146.57 322.549 143.631 307.166C142.767 302.326 138.273 297.659 133.088 300.079Z" fill="#F58B1F"/>
<path d="M222.276 564.188C226.943 563.323 231.61 558.829 229.19 553.644C227.634 550.36 224.869 549.496 221.93 549.841C214.498 547.767 208.794 544.483 206.547 537.051C206.547 536.705 206.374 536.359 206.374 536.014C206.374 535.668 206.201 535.495 206.201 535.322C206.201 535.149 206.201 535.149 206.201 534.977C205.51 531.347 199.806 532.902 200.497 536.532C200.497 536.878 200.67 537.051 200.67 537.396C200.152 549.668 206.893 566.953 222.276 564.188Z" fill="#F58B1F"/>
<path d="M138.273 606.708C137.409 603.424 133.779 601.696 130.668 603.251C127.211 605.152 124.1 608.782 121.161 611.548C120.816 611.72 120.643 612.066 120.47 612.412C118.742 613.967 119.433 617.597 122.371 617.424C128.075 617.252 140.693 615.005 138.273 606.708Z" fill="#F58B1F"/>
<path d="M182.52 399.121C184.422 402.75 188.051 405.689 190.644 408.8C190.817 409.146 191.163 409.318 191.508 409.491C193.064 411.22 196.694 410.528 196.521 407.59C196.348 402.059 194.101 389.268 185.804 391.688C182.52 392.38 180.792 396.009 182.52 399.121Z" fill="#F58B1F"/>
<path d="M121.161 338.797C124.1 341.39 127.038 344.846 130.322 346.921C133.434 348.822 137.236 347.266 138.273 343.637C140.52 335.34 127.902 333.093 122.371 332.92C119.433 332.92 118.742 336.377 120.47 337.933C120.643 338.278 120.816 338.624 121.161 338.797Z" fill="#F58B1F"/>
<path d="M185.809 559.003C194.106 561.25 196.353 548.632 196.526 543.101C196.526 540.163 193.069 539.471 191.513 541.2C191.167 541.372 190.995 541.545 190.649 541.891C188.056 544.829 184.599 547.768 182.698 551.225C180.797 553.99 182.352 557.966 185.809 559.003Z" fill="#F58B1F"/>
<path d="M142.251 623.992C142.424 624.165 142.769 624.338 142.942 624.338C146.572 625.721 150.375 622.091 149.51 618.461C148.819 615.004 144.325 613.276 141.559 615.523C138.967 617.597 139.14 622.264 142.251 623.992C142.078 623.992 142.078 623.992 142.251 623.992Z" fill="#F58B1F"/>
<path d="M197.561 380.28C194.104 380.972 192.376 385.466 194.623 388.231C196.697 390.997 201.191 390.824 202.919 387.712C202.919 387.712 202.919 387.712 202.919 387.54C203.092 387.367 203.265 387.021 203.265 386.848C204.821 383.218 201.191 379.416 197.561 380.28Z" fill="#F58B1F"/>
<path d="M149.508 331.884C150.372 328.254 146.397 324.624 142.94 326.007C142.767 326.18 142.422 326.18 142.249 326.352H142.076C139.138 328.081 138.965 332.748 141.557 334.822C144.323 337.069 148.817 335.341 149.508 331.884Z" fill="#F58B1F"/>
<path d="M197.562 570.238C201.191 571.103 204.821 567.127 203.438 563.67C203.265 563.497 203.265 563.152 203.093 562.979V562.806C201.364 559.695 196.87 559.695 194.796 562.287C192.549 565.053 194.277 569.374 197.562 570.238Z" fill="#F58B1F"/>
<path d="M22.2968 275.708C5.01226 272.251 -21.2603 286.771 -14.1736 307.685C-12.4451 312.87 -8.29685 317.018 -3.45717 318.401C1.55536 320.648 7.77781 320.13 12.0989 316.327C16.9386 312.352 19.5313 304.574 15.9016 298.87C12.6175 293.512 4.83946 292.82 0.518314 297.314C-3.28429 301.29 -2.93861 306.994 0.345458 310.969C-2.59292 310.796 -5.01275 308.722 -6.39552 306.129C-9.16105 301.117 -6.04986 294.548 -2.59294 290.746C2.59243 285.215 10.5433 282.449 17.9757 282.968C18.1485 282.968 18.3214 282.968 18.3214 282.968C18.4943 282.968 18.8399 283.141 19.1856 283.141C19.3585 283.141 19.5313 283.141 19.877 283.141C20.3955 283.314 21.0869 283.314 21.6055 283.486C28.0008 285.733 31.2849 295.931 31.4577 301.462C31.8034 306.993 29.9021 312.352 25.581 315.981C19.5313 321.34 11.5804 323.932 5.53083 329.463C5.53083 329.463 5.53082 329.463 5.35798 329.463C2.59244 331.365 -0.000232697 333.612 -2.24723 336.204C-10.5438 346.057 -11.9266 359.02 -6.56837 370.601C-4.49422 375.095 2.24675 371.119 0.172602 366.625C-6.39554 352.106 2.76527 336.896 17.1115 332.402C26.7908 329.29 38.3715 330.5 44.4211 320.648C55.3104 303.018 40.9642 279.338 22.2968 275.708Z" fill="#7990C9"/>
<path d="M87.8071 674.81C105.092 678.267 131.364 663.748 124.277 642.833C122.549 637.648 118.401 633.5 113.561 632.117C108.549 629.87 102.326 630.388 98.005 634.191C93.1653 638.167 90.5726 645.945 94.2023 651.648C97.4864 657.007 105.264 657.698 109.586 653.204C113.388 649.229 113.043 643.525 109.758 639.549C112.697 639.722 115.117 641.796 116.499 644.389C119.265 649.401 116.154 655.969 112.697 659.772C107.511 665.303 99.5606 668.069 92.1282 667.55C91.9554 667.55 91.7825 667.55 91.7825 667.55C91.6097 667.55 91.264 667.377 90.9183 667.377C90.7454 667.377 90.5726 667.377 90.2269 667.377C89.7084 667.205 89.017 667.205 88.4984 667.032C82.1032 664.785 78.8191 654.587 78.6462 649.056C78.3005 643.525 80.2018 638.166 84.523 634.537C90.5726 629.178 98.5235 626.586 104.573 621.055C104.573 621.055 104.573 621.055 104.746 621.055C107.511 619.153 110.104 616.906 112.351 614.314C120.648 604.462 122.031 591.498 116.672 579.917C114.598 575.423 107.857 579.399 109.931 583.893C116.499 598.412 107.339 613.622 92.9924 618.116C83.3131 621.228 71.7324 620.018 65.6828 629.87C54.7935 647.327 69.1397 671.18 87.8071 674.81Z" fill="#7990C9"/>
<path d="M162.995 420.207C177.341 413.466 192.551 422.8 197.045 437.146C200.157 446.999 198.774 458.579 208.799 464.629C226.256 475.345 249.936 460.999 253.566 442.159C257.023 424.701 242.504 398.256 221.762 405.516C216.577 407.244 212.601 411.392 211.046 416.405C208.799 421.59 209.317 427.64 213.12 432.134C217.095 436.974 224.873 439.566 230.405 436.109C235.763 432.825 236.281 425.047 231.96 420.726C227.985 416.923 222.281 417.269 218.478 420.553C218.651 417.615 220.725 415.022 223.318 413.639C228.33 410.874 234.899 413.985 238.701 417.442C244.232 422.627 246.998 430.578 246.306 438.183C246.306 438.356 246.306 438.529 246.306 438.529C246.306 438.702 246.133 439.048 246.133 439.393C246.133 439.566 246.133 439.739 246.133 440.085C245.961 440.603 245.961 441.295 245.788 441.813C243.714 448.208 233.343 451.493 227.985 451.838C222.454 452.184 217.268 450.283 213.466 445.962C208.107 439.912 205.515 431.961 199.984 425.738C199.984 425.738 199.984 425.738 199.984 425.566C198.082 422.627 196.008 420.035 193.416 417.96C183.563 409.664 170.6 408.281 159.192 413.639C154.525 415.541 158.328 422.282 162.995 420.207Z" fill="#7990C9"/>
<path d="M14.8627 675.329C34.5671 676.02 51.6788 657.007 47.5305 637.13C44.765 623.994 34.5671 621.228 22.9865 619.154C6.56612 616.215 -7.60724 601.005 0.516514 583.72C2.59066 579.226 -4.15036 575.251 -6.22451 579.745C-11.4099 590.98 -10.3728 603.598 -2.59474 613.45C-0.1749 616.388 2.59066 618.981 5.70189 621.055C11.4058 626.068 18.1468 629.006 24.1964 633.5C29.036 637.13 31.6288 641.797 31.6288 648.019C31.6288 653.55 28.6904 663.748 22.6408 666.686C21.6037 667.032 20.5666 667.378 19.7024 667.378C12.0971 668.588 3.80055 666.168 -1.73051 660.637C-5.36027 657.007 -8.47151 651.303 -7.08874 645.945C-6.39736 643.525 -3.80464 640.241 -1.3848 639.55C-0.693418 639.377 -0.00206566 639.204 0.689318 639.204C-2.59475 642.834 -3.2861 648.538 0.343657 652.686C4.49196 657.526 12.6157 657.18 16.0726 651.649C19.5295 646.118 17.1097 638.685 12.6157 634.537C8.12173 630.562 1.7264 629.87 -3.45897 632.29C-6.2245 633.154 -8.81716 634.71 -10.7185 636.957C-26.1017 654.414 -2.24904 674.637 14.8627 675.329Z" fill="#7990C9"/>
<path d="M254.085 515.619C254.776 495.914 235.763 478.63 216.059 482.778C203.095 485.543 200.157 495.741 198.083 507.495C195.144 524.088 180.107 538.261 162.822 530.138C158.328 528.063 154.353 534.805 158.847 536.879C169.909 542.064 182.527 541.027 192.379 533.249C195.317 530.829 197.91 528.064 199.811 524.779C204.824 519.076 207.762 512.162 212.083 506.112C215.713 501.272 220.38 498.68 226.429 498.68C231.96 498.68 242.158 501.618 245.097 507.668C245.442 508.705 245.615 509.742 245.788 510.606C246.998 518.211 244.578 526.681 239.047 532.212C235.417 535.842 229.713 538.953 224.355 537.57C221.935 536.879 218.651 534.286 217.96 531.866C217.787 531.175 217.614 530.483 217.614 529.792C221.244 533.076 226.948 533.767 231.096 530.138C235.936 525.816 235.59 517.866 230.059 514.236C224.528 510.779 217.096 513.199 213.12 517.693C209.145 522.187 208.453 528.582 210.873 533.94C211.737 536.706 213.293 539.298 215.54 541.373C233.17 556.756 253.566 532.73 254.085 515.619Z" fill="#7990C9"/>
<path d="M109.756 297.833C105.608 292.993 97.4838 293.339 94.0269 298.87C90.57 304.401 92.9898 311.834 97.4838 315.982C101.978 319.957 108.373 320.649 113.558 318.229C116.324 317.365 118.917 315.809 120.818 313.562C136.201 295.932 112.176 275.536 95.2368 275.018C75.5324 274.326 58.4207 293.339 62.569 313.216C65.3345 326.353 75.5324 329.118 87.1131 331.192C103.533 334.131 117.707 349.341 109.583 366.626C107.509 371.12 114.25 375.095 116.324 370.601C121.509 359.366 120.472 346.749 112.694 336.896C110.274 333.958 107.509 331.365 104.398 329.291C98.6937 324.279 91.9528 321.34 85.9032 316.846C81.0635 313.216 78.4708 308.55 78.4708 302.327C78.4708 296.796 81.4092 286.598 87.4588 283.66C88.4958 283.314 89.5329 282.968 90.3972 282.968C98.0024 281.759 106.299 284.178 111.83 289.709C115.46 293.339 118.571 299.043 117.188 304.401C116.497 306.821 113.904 310.105 111.484 310.797C110.793 310.969 110.102 311.142 109.41 311.142C112.694 307.685 113.386 301.981 109.756 297.833Z" fill="#7990C9"/>
</svg>
