<svg width="304" height="306" viewBox="0 0 304 306" fill="none" xmlns="http://www.w3.org/2000/svg">
<g opacity="0.6">
<path d="M116.684 92.9533C116.684 92.2941 116.42 91.635 115.761 90.9758C101.919 77.7928 77.398 102.445 90.5811 116.287C91.1084 116.946 91.8994 117.21 92.4268 117.21C94.1405 117.606 96.118 116.683 95.9861 114.442C95.327 104.818 104.291 95.8535 113.915 96.5126C116.156 96.7763 117.079 94.6671 116.684 92.9533Z" fill="#EEEEEE"/>
<path d="M187.871 91.1081C187.212 91.6354 186.948 92.4264 186.948 93.0855C186.553 94.7993 187.476 96.7769 189.717 96.645C199.34 95.9859 208.173 104.95 207.646 114.574C207.514 116.815 209.491 117.738 211.205 117.342C211.864 117.342 212.524 117.079 213.051 116.42C226.234 102.446 201.713 77.7932 187.871 91.1081Z" fill="#EEEEEE"/>
<path d="M187.871 214.37C201.713 227.553 226.234 202.9 213.051 189.058C212.524 188.399 211.732 188.135 211.205 188.135C209.491 187.74 207.514 188.663 207.646 190.904C208.305 200.528 199.34 209.492 189.717 208.833C187.476 208.701 186.553 210.678 186.948 212.392C187.08 213.051 187.344 213.711 187.871 214.37Z" fill="#EEEEEE"/>
<path d="M115.761 214.37C116.42 213.842 116.684 213.051 116.684 212.392C117.079 210.678 116.156 208.701 113.915 208.833C104.291 209.492 95.4588 200.528 95.9861 190.904C96.118 188.663 94.1405 187.74 92.4268 188.135C91.7676 188.135 91.1084 188.399 90.5811 189.058C77.398 202.9 101.919 227.553 115.761 214.37Z" fill="#EEEEEE"/>
<path d="M82.8012 83.3303C80.1646 86.0987 79.7691 90.4491 82.6694 93.2176C85.306 95.5905 89.6564 95.0633 91.6339 92.2948C94.5342 90.1855 94.9296 85.8351 92.5567 83.1985C89.9201 80.2982 85.5697 80.6937 82.8012 83.3303Z" fill="#EEEEEE"/>
<path d="M211.865 92.2942C213.974 95.1945 218.193 95.7217 220.83 93.217C223.73 90.4485 223.334 86.0981 220.698 83.3297C218.061 80.6931 213.579 80.1658 210.942 83.1979C208.569 85.8345 209.097 90.1849 211.865 92.2942Z" fill="#EEEEEE"/>
<path d="M220.83 222.016C223.466 219.247 223.862 214.897 220.962 212.128C218.325 209.755 213.974 210.283 211.997 213.051C209.097 215.16 208.701 219.379 211.074 222.147C213.711 225.179 218.061 224.784 220.83 222.016Z" fill="#EEEEEE"/>
<path d="M91.7667 213.183C89.6574 210.283 85.4388 209.755 82.8022 212.26C79.9019 215.029 80.2974 219.379 82.9341 222.148C85.5707 224.784 90.0529 225.311 92.6895 222.279C95.0625 219.511 94.5352 215.16 91.7667 213.183Z" fill="#EEEEEE"/>
<path d="M149.377 75.1566C149.772 75.6839 150.168 76.0794 150.563 76.6067C150.959 77.134 151.486 77.7932 151.882 78.4524C152.277 77.7932 152.673 77.2659 153.2 76.6067C153.596 76.0794 153.991 75.5521 154.387 75.1566C155.046 74.3656 155.837 73.4427 156.496 72.7836C158.473 70.8061 160.846 69.0925 163.483 68.3015C168.492 66.8513 172.975 70.147 173.766 75.2884C174.952 82.4073 170.074 91.2399 167.042 97.5678C163.351 105.346 158.869 112.597 154.387 119.847C153.2 121.825 150.432 121.825 149.245 119.847C144.631 112.201 140.017 104.687 136.194 96.5131C133.294 90.4489 128.811 82.1436 129.866 75.1566C130.789 69.6197 135.798 66.4558 141.072 68.4333C143.445 69.3561 145.422 70.938 147.268 72.6518C148.059 73.5746 148.718 74.2338 149.377 75.1566ZM119.979 72.7836C120.902 97.0404 133.821 121.825 149.245 139.885C150.036 140.808 150.959 141.072 151.882 140.808C152.805 141.072 153.727 140.808 154.518 139.885C170.074 121.825 182.862 97.1722 183.785 72.7836C184.18 63.16 178.643 52.8772 167.701 54.1955C159.528 55.2502 154.914 61.4463 151.882 68.4333C148.85 61.4463 144.236 55.2502 136.062 54.1955C125.12 52.8772 119.583 63.16 119.979 72.7836Z" fill="#EEEEEE"/>
<path d="M229.002 150.3C228.475 150.695 228.08 151.091 227.552 151.486C227.025 151.882 226.366 152.409 225.838 152.805C226.498 153.2 227.025 153.596 227.552 154.123C228.08 154.518 228.607 154.914 229.002 155.309C229.793 155.969 230.716 156.759 231.375 157.55C233.353 159.528 235.067 161.901 235.726 164.538C237.176 169.679 233.88 174.029 228.739 174.952C221.62 176.138 212.787 171.261 206.591 168.229C198.945 164.537 191.563 160.055 184.444 155.573C182.466 154.387 182.466 151.618 184.444 150.432C191.958 145.686 199.604 141.072 207.646 137.249C213.71 134.348 222.015 129.734 228.871 130.921C234.276 131.844 237.571 136.853 235.594 142.126C234.671 144.499 233.221 146.609 231.375 148.322C230.584 148.85 229.793 149.641 229.002 150.3ZM249.832 136.853C251.15 125.911 240.867 120.374 231.375 120.638C207.25 121.561 182.598 134.48 164.669 150.036C163.746 150.827 163.614 151.75 163.746 152.673C163.483 153.596 163.746 154.518 164.669 155.309C182.598 170.865 207.25 183.785 231.375 184.707C240.999 185.103 251.15 179.434 249.832 168.492C248.777 160.319 242.581 155.573 235.726 152.541C242.581 149.641 248.777 145.027 249.832 136.853Z" fill="#EEEEEE"/>
<path d="M154.255 230.321C153.859 229.794 153.464 229.399 153.068 228.871C152.673 228.344 152.145 227.685 151.75 227.026C151.354 227.685 150.959 228.212 150.432 228.871C150.036 229.399 149.641 229.926 149.245 230.321C148.586 231.112 147.795 232.035 147.136 232.694C145.158 234.672 142.785 236.386 140.149 237.177C135.139 238.627 130.657 235.331 129.866 230.19C128.68 223.071 133.557 214.238 136.589 207.91C140.281 200.132 144.763 192.882 149.245 185.631C150.432 183.653 153.2 183.653 154.387 185.631C159.001 193.277 163.615 200.791 167.438 208.965C170.338 215.029 174.82 223.334 173.766 230.321C172.843 235.858 167.833 239.022 162.56 237.045C160.187 236.122 158.21 234.54 156.364 232.826C155.573 231.903 154.914 231.112 154.255 230.321ZM183.653 232.563C182.73 208.306 169.811 183.522 154.387 165.461C153.596 164.538 152.673 164.274 151.75 164.538C150.827 164.274 149.904 164.538 149.113 165.461C133.557 183.522 120.77 208.174 119.847 232.563C119.451 242.186 124.988 252.469 135.93 251.151C144.104 250.096 148.718 243.9 151.75 236.913C154.782 243.9 159.396 250.096 167.57 251.151C178.512 252.601 184.048 242.186 183.653 232.563Z" fill="#EEEEEE"/>
<path d="M74.6299 155.178C75.1572 154.783 75.5526 154.387 76.08 153.992C76.6073 153.596 77.2665 153.069 77.7938 152.673C77.1346 152.278 76.6073 151.882 76.08 151.355C75.5526 150.96 75.0253 150.564 74.6299 150.169C73.8389 149.509 72.916 148.718 72.2569 147.927C70.2794 145.95 68.5656 143.577 67.9065 140.94C66.4563 135.799 69.7521 131.449 74.8935 130.526C82.0123 129.339 90.845 134.217 97.041 137.249C104.687 140.94 112.07 145.423 119.189 149.905C121.166 151.091 121.166 153.86 119.189 155.046C111.674 159.792 104.028 164.406 95.9864 168.229C89.9222 171.13 81.6168 175.744 74.7616 174.557C69.3566 173.634 66.0609 168.625 68.0383 163.352C68.9611 160.979 70.4112 158.869 72.2569 157.155C73.0479 156.496 73.8389 155.837 74.6299 155.178ZM139.886 152.673C140.15 151.751 139.886 150.828 138.963 150.037C121.034 134.481 96.3819 121.561 72.2569 120.639C62.6332 120.243 52.4823 125.912 53.8006 136.854C54.8552 145.027 61.0513 149.773 67.9065 152.805C60.9195 155.837 54.7234 160.451 53.8006 168.757C52.4823 179.699 62.7651 185.236 72.2569 184.972C96.3819 184.049 121.034 171.13 138.963 155.574C140.018 154.519 140.15 153.596 139.886 152.673Z" fill="#EEEEEE"/>
<path d="M152.147 86.6255C152.015 86.7573 151.883 86.8892 151.751 87.1528C151.619 87.021 151.488 86.8893 151.356 86.7575C150.565 85.571 149.642 84.5163 148.719 83.4617C146.214 80.4296 143.578 77.6611 140.809 75.0245C138.304 72.7834 134.745 75.5518 136.063 78.4521V78.5839C139.755 85.5709 144.501 91.7669 149.51 97.8311C150.433 99.0176 152.806 99.0176 153.729 97.8311C158.738 91.7669 163.616 85.7027 167.175 78.5839C167.175 78.5839 167.175 78.5839 167.175 78.4521C168.757 75.42 165.066 72.5198 162.561 74.8927C162.429 75.0245 162.429 75.0245 162.298 75.1563C161.902 75.5518 161.375 75.9473 160.979 76.4746C158.738 78.7157 156.497 80.9569 154.52 83.4617C153.86 84.3845 153.069 85.439 152.147 86.6255Z" fill="#EEEEEE"/>
<path d="M217.533 152.409C218.719 151.618 219.774 150.696 220.829 149.773C223.861 147.268 226.629 144.631 229.266 141.731C231.507 139.226 228.739 135.535 225.838 136.985H225.706C218.719 140.677 212.523 145.554 206.591 150.564C205.405 151.487 205.405 153.86 206.591 154.782C212.655 159.792 218.719 164.67 225.706 168.361C225.706 168.361 225.706 168.361 225.838 168.361C228.87 169.943 231.771 166.252 229.398 163.615C229.266 163.483 229.266 163.483 229.134 163.351C228.739 162.956 228.343 162.429 227.948 162.033C225.706 159.792 223.465 157.551 220.961 155.573C219.906 154.651 218.719 153.86 217.665 152.937C217.533 152.805 217.401 152.673 217.269 152.541C217.269 152.541 217.401 152.541 217.533 152.409Z" fill="#EEEEEE"/>
<path d="M151.486 218.851C151.486 218.851 151.486 218.719 151.486 218.851C151.618 218.719 151.75 218.588 151.882 218.324C152.014 218.456 152.145 218.588 152.277 218.72C153.068 219.906 153.991 220.961 154.914 222.015C157.419 225.047 160.055 227.816 162.824 230.452C165.329 232.694 168.888 229.925 167.57 227.025V226.893C163.878 219.906 159.132 213.71 154.123 207.646C153.2 206.459 150.827 206.459 149.904 207.646C144.895 213.71 140.017 219.774 136.458 226.893C136.458 226.893 136.458 226.893 136.458 227.025C134.876 230.057 138.567 232.957 141.072 230.584C141.204 230.452 141.204 230.452 141.335 230.32C141.731 229.925 142.258 229.53 142.654 229.002C144.895 226.761 147.136 224.52 149.113 222.015C149.773 221.092 150.563 219.906 151.486 218.851Z" fill="#EEEEEE"/>
<path d="M86.098 153.068C84.9115 153.859 83.8569 154.782 82.8023 155.705C79.7702 158.21 77.0017 160.846 74.3651 163.746C72.124 166.251 74.8924 169.943 77.7927 168.492H77.9245C84.9116 164.801 91.1076 159.923 97.04 154.914C98.2264 153.991 98.2264 151.618 97.04 150.695C90.9758 145.686 84.9116 140.808 77.9245 137.117C77.9245 137.117 77.9245 137.117 77.7927 137.117C74.7606 135.535 71.8603 139.226 74.2333 141.863C74.3651 141.994 74.3651 141.994 74.4969 142.126C74.8924 142.522 75.2879 143.049 75.6834 143.445C77.9245 145.686 80.1656 147.927 82.6704 149.904C83.7251 150.827 84.9115 151.618 85.9662 152.541C86.098 152.673 86.2299 152.805 86.3617 152.936C86.3617 152.805 86.2298 152.936 86.098 153.068Z" fill="#EEEEEE"/>
<path d="M149.772 111.41C150.3 111.937 150.959 112.201 151.618 112.201C151.75 112.201 152.013 112.201 152.145 112.201C152.804 112.201 153.463 111.937 153.991 111.41C155.045 110.355 156.1 109.169 157.155 107.982C158.078 106.796 158.341 105.346 157.418 104.027C157.287 103.896 157.287 103.895 157.155 103.764C156.232 102.841 154.782 102.445 153.595 103.236C153.068 103.632 152.541 104.027 151.882 104.423C151.354 104.027 150.827 103.632 150.168 103.236C149.113 102.445 147.531 102.841 146.608 103.764C146.476 103.895 146.476 103.896 146.345 104.027C145.422 105.214 145.554 106.796 146.608 107.982C147.531 109.169 148.586 110.223 149.772 111.41Z" fill="#EEEEEE"/>
<path d="M201.053 154.386C200.658 153.859 200.262 153.2 199.867 152.672C200.262 152.145 200.658 151.486 201.053 150.959C201.844 149.904 201.449 148.322 200.526 147.399C200.394 147.267 200.394 147.267 200.262 147.135C199.076 146.213 197.494 146.344 196.307 147.399C195.121 148.454 193.935 149.508 192.88 150.563C192.353 151.09 192.089 151.749 192.089 152.409C192.089 152.54 192.089 152.804 192.089 152.936C192.089 153.595 192.353 154.254 192.88 154.782C193.935 155.836 195.121 156.891 196.307 157.946C197.494 158.868 198.944 159.132 200.262 158.209C200.394 158.077 200.394 158.077 200.526 157.946C201.449 157.023 201.844 155.573 201.053 154.386Z" fill="#EEEEEE"/>
<path d="M153.859 194.067C153.332 193.54 152.673 193.276 152.013 193.276C151.882 193.276 151.618 193.276 151.486 193.276C150.827 193.276 150.168 193.54 149.64 194.067C148.586 195.122 147.531 196.309 146.477 197.495C145.554 198.682 145.29 200.132 146.213 201.45C146.345 201.582 146.345 201.582 146.477 201.714C147.399 202.636 148.849 203.032 150.036 202.241C150.563 201.845 151.091 201.45 151.75 201.054C152.277 201.45 152.804 201.845 153.464 202.241C154.518 203.032 156.1 202.636 157.023 201.714C157.155 201.582 157.155 201.582 157.287 201.45C158.209 200.263 158.078 198.682 157.023 197.495C156.1 196.309 155.046 195.122 153.859 194.067Z" fill="#EEEEEE"/>
<path d="M103.368 158.209C104.555 159.132 106.137 159.001 107.323 157.946C108.51 156.891 109.696 155.837 110.751 154.782C111.278 154.255 111.542 153.595 111.542 152.936C111.542 152.804 111.542 152.541 111.542 152.409C111.542 151.75 111.278 151.091 110.751 150.563C109.696 149.509 108.51 148.454 107.323 147.399C106.137 146.477 104.687 146.213 103.368 147.136C103.237 147.268 103.237 147.268 103.105 147.399C102.182 148.322 101.786 149.904 102.577 150.959C102.973 151.486 103.368 152.145 103.764 152.673C103.368 153.2 102.973 153.859 102.577 154.386C101.786 155.441 102.182 157.023 103.105 157.946C103.237 158.078 103.237 158.209 103.368 158.209Z" fill="#EEEEEE"/>
<path d="M109.565 117.078C108.378 115.496 108.246 113.387 109.037 111.805C109.169 111.542 109.301 111.41 109.433 111.146C109.565 110.882 109.697 110.751 109.96 110.487C110.092 110.223 110.356 110.091 110.619 109.96C110.751 109.828 111.015 109.696 111.147 109.696C112.992 108.773 115.102 109.037 116.684 110.355C118.134 111.541 118.529 113.387 118.134 114.969C118.002 115.496 117.738 116.156 117.475 116.683C117.343 116.947 117.079 117.21 116.947 117.342C116.684 117.606 116.552 117.738 116.288 117.869C115.761 118.265 115.234 118.397 114.706 118.66C112.729 119.188 110.751 118.66 109.565 117.078ZM106.269 106.927C94.7998 118.528 118.529 128.284 126.703 131.58C128.153 132.107 129.208 131.58 129.735 130.525C130.79 129.998 131.317 128.811 130.789 127.361C127.494 119.319 117.87 95.3263 106.269 106.927Z" fill="#EEEEEE"/>
<path d="M187.211 110.223C188.793 109.036 190.771 108.905 192.484 109.696C192.748 109.827 192.88 109.959 193.144 110.091C193.407 110.223 193.539 110.355 193.803 110.618C194.066 110.75 194.198 111.014 194.33 111.278C194.462 111.409 194.594 111.673 194.594 111.805C195.516 113.651 195.253 115.76 193.935 117.474C192.748 118.924 190.902 119.319 189.32 118.924C188.793 118.792 188.134 118.528 187.738 118.133C187.475 118.001 187.211 117.737 187.079 117.605C186.816 117.342 186.684 117.21 186.552 116.946C186.157 116.419 186.025 115.892 185.893 115.364C185.102 113.387 185.761 111.409 187.211 110.223ZM172.842 127.493C172.314 128.943 172.842 129.997 173.896 130.657C174.424 131.711 175.61 132.239 176.928 131.711C185.102 128.416 208.831 118.66 197.362 107.059C185.761 95.326 176.137 119.319 172.842 127.493Z" fill="#EEEEEE"/>
<path d="M194.594 193.672C194.462 193.936 194.33 194.068 194.198 194.331C194.066 194.595 193.935 194.727 193.671 194.991C193.539 195.254 193.275 195.386 193.012 195.518C192.88 195.65 192.616 195.782 192.484 195.782C190.639 196.704 188.529 196.441 186.947 195.122C185.497 193.936 185.102 192.09 185.497 190.508C185.629 189.981 185.893 189.322 186.156 188.795C186.288 188.531 186.552 188.267 186.684 188.135C186.948 187.872 187.079 187.74 187.343 187.608C187.87 187.213 188.398 187.081 188.925 186.817C190.639 186.422 192.616 186.949 193.803 188.531C195.253 189.849 195.385 191.959 194.594 193.672ZM176.928 173.766C175.478 173.239 174.424 173.766 173.896 174.821C172.842 175.348 172.314 176.534 172.842 177.984C176.137 186.158 185.761 210.019 197.362 198.55C208.831 186.817 185.102 177.194 176.928 173.766Z" fill="#EEEEEE"/>
<path d="M114.443 186.553C114.97 186.685 115.629 186.949 116.024 187.344C116.288 187.476 116.552 187.74 116.684 187.872C116.947 188.135 117.079 188.267 117.211 188.531C117.606 189.058 117.738 189.586 117.87 190.113C118.266 191.827 117.738 193.804 116.156 194.991C114.574 196.177 112.597 196.309 110.883 195.518C110.619 195.386 110.488 195.254 110.224 195.122C109.96 194.991 109.828 194.859 109.565 194.595C109.301 194.463 109.169 194.2 109.037 193.936C108.906 193.804 108.774 193.54 108.774 193.409C107.851 191.563 108.115 189.454 109.433 187.74C111.015 186.554 112.861 186.158 114.443 186.553ZM130.789 177.984C131.317 176.534 130.79 175.48 129.735 174.821C129.208 173.766 128.021 173.239 126.703 173.766C118.529 177.062 94.7998 186.817 106.269 198.418C117.87 210.019 127.494 186.158 130.789 177.984Z" fill="#EEEEEE"/>
<path d="M152.937 144.895C152.542 144.764 152.146 144.632 151.751 144.764C151.355 144.764 150.96 144.764 150.564 144.895C146.873 145.686 143.709 148.455 143.841 152.673C143.841 157.024 147.4 160.583 151.751 160.583C155.969 160.583 159.397 157.156 159.661 152.937C159.924 148.718 156.892 145.818 152.937 144.895Z" fill="#EEEEEE"/>
<path d="M69.2233 72.6525C68.6959 80.035 64.0818 86.7584 67.5094 94.1409C70.0142 99.6778 75.1556 102.578 80.9562 102.71C81.088 102.71 81.2198 102.71 81.3516 102.842C82.1426 102.974 82.9336 102.842 83.4609 102.446C86.0975 101.26 85.7021 96.6457 82.2745 96.7775C82.1426 96.7775 82.0108 96.7775 81.7472 96.7775C75.2875 94.5364 75.2875 84.781 79.7697 80.2987C84.2519 75.8165 94.0074 75.8165 96.1167 82.2762C96.1167 82.408 96.1167 82.5397 96.1167 82.6716C95.9848 86.0992 100.599 86.4947 101.785 83.8581C102.181 83.3308 102.313 82.5398 102.181 81.7488C102.181 81.617 102.181 81.4851 102.049 81.3533C101.917 75.5527 99.0169 70.2796 93.4801 67.7748C86.0976 64.4791 79.3742 68.9612 72.1235 69.4885C70.5415 69.7522 69.3551 70.9387 69.2233 72.6525Z" fill="#EEEEEE"/>
<path d="M210.152 67.9062C204.615 70.4109 201.714 75.6842 201.583 81.4848C201.583 81.6166 201.583 81.7483 201.451 81.8802C201.319 82.6711 201.451 83.4621 201.846 83.9894C203.033 86.626 207.647 86.2307 207.515 82.8031C207.515 82.6712 207.515 82.5394 207.515 82.2757C209.624 75.816 219.38 75.6842 223.862 80.2983C228.344 84.7805 228.344 94.6678 221.885 96.7771C221.753 96.7771 221.621 96.7771 221.489 96.7771C218.061 96.6452 217.798 101.259 220.303 102.446C220.83 102.841 221.621 102.973 222.412 102.841C222.544 102.841 222.676 102.841 222.807 102.709C228.608 102.578 233.749 99.6773 236.254 94.1405C239.55 86.758 235.068 80.0345 234.54 72.652C234.408 70.9382 233.222 69.7518 231.508 69.62C224.126 69.0927 217.402 64.4786 210.152 67.9062Z" fill="#EEEEEE"/>
<path d="M234.408 232.825C234.936 225.443 239.418 218.72 236.122 211.337C233.617 205.8 228.476 202.9 222.676 202.768C222.544 202.768 222.412 202.768 222.28 202.636C221.489 202.504 220.698 202.636 220.171 203.032C217.534 204.218 217.93 208.832 221.357 208.7C221.489 208.7 221.621 208.7 221.885 208.7C228.344 210.942 228.344 220.697 223.862 225.179C219.38 229.661 209.624 229.661 207.515 223.202C207.515 223.07 207.515 222.938 207.515 222.806C207.647 219.379 203.033 218.983 201.846 221.62C201.451 222.147 201.319 222.938 201.451 223.729C201.451 223.861 201.451 223.993 201.583 224.125C201.714 229.925 204.615 235.198 210.152 237.703C217.534 240.999 224.257 236.517 231.508 235.989C233.222 235.594 234.277 234.539 234.408 232.825Z" fill="#EEEEEE"/>
<path d="M93.6119 237.44C99.1488 234.935 102.049 229.662 102.181 223.861C102.181 223.729 102.181 223.597 102.313 223.466C102.445 222.675 102.313 221.884 101.917 221.356C100.731 218.72 96.1167 219.115 96.2485 222.543C96.2485 222.675 96.2485 222.806 96.2485 223.07C94.1392 229.53 84.3838 229.662 79.9015 225.047C75.4193 220.565 75.4193 210.678 81.879 208.569C82.0108 208.569 82.1426 208.569 82.2744 208.569C85.702 208.701 85.9657 204.087 83.4609 202.9C82.9336 202.505 82.1426 202.373 81.3516 202.505C81.2198 202.505 81.088 202.504 80.9561 202.636C75.1556 202.768 70.0142 205.668 67.5094 211.205C64.2137 218.588 68.6959 225.311 69.2232 232.694C69.3551 234.408 70.5415 235.594 72.2553 235.726C79.506 236.253 86.2294 240.867 93.6119 237.44Z" fill="#EEEEEE"/>
<path d="M84.3841 24.5334C82.2749 36.2663 95.4579 41.4077 104.686 41.144C104.95 41.144 105.082 41.276 105.345 41.276C108.114 41.8033 109.3 37.4528 106.532 36.9255C106.4 36.9255 106.4 36.9255 106.268 36.9255C106.136 36.7937 105.872 36.7937 105.741 36.7937C105.477 36.7937 105.345 36.6619 105.082 36.6619C99.5446 35.0799 96.5125 30.7295 95.3261 25.0608C95.5897 22.6878 94.9306 20.5785 92.4258 19.2602C88.4709 17.2827 85.0433 20.8422 84.3841 24.5334Z" fill="#EEEEEE"/>
<path d="M24.2693 220.565C36.0022 222.806 41.1436 209.492 40.8799 200.132C40.8799 199.868 41.0118 199.736 41.0118 199.472C41.5391 196.704 37.1887 195.517 36.6614 198.286C36.6614 198.418 36.6614 198.418 36.6614 198.549C36.5295 198.681 36.5295 198.945 36.5295 199.077C36.5295 199.341 36.3977 199.472 36.3977 199.736C34.8157 205.273 30.4653 208.305 24.7966 209.623C22.4237 209.36 20.3144 210.019 19.1279 212.523C17.1505 216.478 20.7099 219.906 24.2693 220.565Z" fill="#EEEEEE"/>
<path d="M219.378 280.944C221.488 269.211 208.305 264.07 199.077 264.333C198.813 264.333 198.681 264.201 198.417 264.201C195.649 263.674 194.463 268.024 197.231 268.552C197.363 268.552 197.363 268.552 197.495 268.552C197.626 268.684 197.89 268.684 198.022 268.684C198.286 268.684 198.417 268.816 198.681 268.816C204.218 270.398 207.25 274.748 208.437 280.417C208.173 282.789 208.832 284.899 211.337 286.217C215.16 288.063 218.719 284.503 219.378 280.944Z" fill="#EEEEEE"/>
<path d="M266.97 107.191C266.97 107.059 266.97 107.059 266.97 106.927C267.102 106.796 267.102 106.532 267.102 106.4C267.102 106.136 267.234 106.005 267.234 105.741C268.816 100.204 273.167 97.172 278.835 95.8537C281.208 96.1174 283.317 95.4583 284.504 92.9535C286.35 89.1304 282.79 85.571 279.231 84.9119C267.498 82.6707 262.356 95.9856 262.62 105.346C262.62 105.609 262.488 105.741 262.488 106.005C262.093 108.773 266.443 109.96 266.97 107.191Z" fill="#EEEEEE"/>
<path d="M211.337 19.1281C208.832 20.3146 208.173 22.4239 208.437 24.7969C206.855 30.4656 204.35 34.9478 198.681 36.6616C198.417 36.6616 198.154 36.7934 198.022 36.7934C197.758 36.7934 197.626 36.9252 197.495 36.9252C197.363 36.9252 197.363 36.9252 197.231 36.9252C194.463 37.4526 195.649 41.803 198.417 41.2757C198.681 41.2757 198.813 41.1437 199.077 41.1437C208.437 41.4074 221.62 36.266 219.378 24.5331C218.719 20.8419 215.292 17.2825 211.337 19.1281Z" fill="#EEEEEE"/>
<path d="M24.2711 84.9119C20.7117 85.571 17.1523 88.9986 18.9979 92.9535C20.1844 95.4583 22.2937 96.1174 24.5348 95.8537C30.2035 97.4357 34.5539 99.9405 36.2677 105.609C36.2677 105.873 36.3995 106.136 36.3995 106.4C36.3995 106.664 36.5313 106.796 36.5313 106.927C36.5313 107.059 36.5313 107.059 36.5313 107.191C37.0586 109.96 41.4091 108.773 40.8818 106.005C40.8818 105.741 40.7499 105.609 40.7499 105.346C41.1454 95.9856 36.004 82.6707 24.2711 84.9119Z" fill="#EEEEEE"/>
<path d="M92.2929 286.218C94.7976 285.031 95.4568 282.922 95.1931 280.549C96.7751 274.88 99.2799 270.398 104.949 268.684C105.212 268.684 105.476 268.552 105.608 268.552C105.871 268.552 106.003 268.42 106.135 268.42C106.267 268.42 106.267 268.42 106.399 268.42C109.167 267.893 107.981 263.543 105.212 264.07C104.949 264.07 104.817 264.202 104.553 264.202C95.1931 263.938 82.0101 269.08 84.2512 280.813C85.0422 284.504 88.4698 288.063 92.2929 286.218Z" fill="#EEEEEE"/>
<path d="M279.361 220.565C282.92 219.906 286.48 216.478 284.634 212.523C283.448 210.019 281.338 209.36 279.097 209.623C273.429 208.041 269.078 205.537 267.364 199.868C267.364 199.604 267.233 199.341 267.233 199.077C267.233 198.813 267.101 198.681 267.101 198.549C267.101 198.418 267.101 198.418 267.101 198.286C266.573 195.517 262.223 196.704 262.75 199.472C262.75 199.736 262.882 199.868 262.882 200.132C262.487 209.492 267.628 222.675 279.361 220.565Z" fill="#EEEEEE"/>
<path d="M88.3403 52.3501C88.9995 54.8549 91.7679 56.1732 94.1409 54.9867C96.7775 53.5366 99.1504 50.7682 101.392 48.6589C101.655 48.5271 101.787 48.2634 101.919 47.9998C103.237 46.8133 102.71 44.0448 100.469 44.1767C96.1183 44.3085 86.6265 46.0222 88.3403 52.3501Z" fill="#EEEEEE"/>
<path d="M54.591 210.678C53.1409 207.91 50.3724 205.668 48.395 203.295C48.2632 203.032 47.9995 202.9 47.7358 202.768C46.5494 201.45 43.7809 201.977 43.9128 204.218C44.0446 208.437 45.7584 218.192 52.0863 216.347C54.591 215.819 55.9093 213.051 54.591 210.678Z" fill="#EEEEEE"/>
<path d="M215.292 252.996C214.633 250.491 211.864 249.173 209.491 250.359C206.855 251.809 204.482 254.578 202.241 256.687C201.977 256.819 201.845 257.082 201.713 257.346C200.395 258.533 200.922 261.301 203.163 261.169C207.514 261.037 217.137 259.324 215.292 252.996Z" fill="#EEEEEE"/>
<path d="M249.039 94.6675C250.489 97.436 253.258 99.6771 255.235 102.05C255.367 102.314 255.631 102.446 255.894 102.577C257.081 103.896 259.849 103.368 259.718 101.127C259.586 96.9085 257.872 87.1531 251.544 88.9988C249.039 89.5261 247.721 92.2946 249.039 94.6675Z" fill="#EEEEEE"/>
<path d="M202.241 48.6585C204.482 50.636 206.723 53.2725 209.228 54.8545C211.601 56.3046 214.501 55.1181 215.292 52.3497C217.006 46.0218 207.382 44.3081 203.163 44.1763C200.922 44.1763 200.395 46.8129 201.713 47.9994C201.845 48.263 201.977 48.5267 202.241 48.6585Z" fill="#EEEEEE"/>
<path d="M47.7352 102.446C47.9988 102.314 48.1307 102.182 48.3943 101.918C50.3718 99.6773 53.0084 97.4362 54.4586 94.7996C55.9087 92.4266 54.7222 89.3946 51.9538 88.7354C45.6259 87.0216 43.9121 96.6452 43.7803 100.864C43.9121 103.237 46.5487 103.764 47.7352 102.446Z" fill="#EEEEEE"/>
<path d="M101.391 256.687C99.15 254.709 96.9089 252.073 94.4041 250.491C92.0312 249.041 89.1309 250.227 88.3399 252.996C86.6261 259.323 96.2497 261.037 100.468 261.169C102.709 261.169 103.237 258.532 101.918 257.346C101.787 257.082 101.655 256.819 101.391 256.687Z" fill="#EEEEEE"/>
<path d="M251.547 216.611C257.875 218.325 259.589 208.701 259.721 204.482C259.721 202.241 257.084 201.714 255.898 203.032C255.634 203.164 255.502 203.296 255.239 203.56C253.261 205.801 250.624 208.042 249.174 210.678C247.724 212.788 248.911 215.82 251.547 216.611Z" fill="#EEEEEE"/>
<path d="M85.3074 39.1669C85.1755 39.035 84.9119 38.9033 84.78 38.9033C82.0116 37.8486 79.1113 40.6171 79.7705 43.3855C80.2978 46.0221 83.7254 47.3404 85.8347 45.6266C87.944 44.0446 87.8121 40.617 85.3074 39.1669C85.4392 39.1669 85.4392 39.1669 85.3074 39.1669Z" fill="#EEEEEE"/>
<path d="M42.8571 221.357C42.8571 221.357 42.8571 221.225 42.8571 221.357C42.8571 221.225 42.8571 221.225 42.8571 221.357C42.8571 221.225 42.8571 221.225 42.8571 221.357C42.8571 221.225 42.8571 221.225 42.8571 221.357ZM43.1208 225.18C45.7574 224.652 47.0757 221.225 45.3619 219.115C43.7799 217.006 40.3523 217.138 39.034 219.511C39.034 219.511 39.034 219.511 39.034 219.643C38.9022 219.775 38.7704 220.038 38.7704 220.17C37.5839 222.807 40.3523 225.839 43.1208 225.18Z" fill="#EEEEEE"/>
<path d="M218.325 266.179C218.457 266.311 218.721 266.442 218.853 266.442C221.621 267.497 224.521 264.728 223.862 261.96C223.335 259.323 219.907 258.005 217.798 259.719C215.821 261.301 215.952 264.86 218.325 266.179C218.194 266.179 218.194 266.179 218.325 266.179Z" fill="#EEEEEE"/>
<path d="M260.511 80.2981C257.874 80.8254 256.556 84.253 258.27 86.3623C259.852 88.4715 263.279 88.3396 264.598 85.9667C264.598 85.9667 264.598 85.9667 264.598 85.8349C264.729 85.7031 264.861 85.4394 264.861 85.3075C266.048 82.5391 263.279 79.6389 260.511 80.2981Z" fill="#EEEEEE"/>
<path d="M223.86 43.3855C224.519 40.6171 221.487 37.8486 218.85 38.9033C218.719 39.0351 218.455 39.035 218.323 39.1669H218.191C215.95 40.4852 215.818 44.0446 217.796 45.6266C219.905 47.3404 223.333 46.0221 223.86 43.3855Z" fill="#EEEEEE"/>
<path d="M43.1209 80.2977C40.3524 79.6386 37.584 82.6706 38.6386 85.3072C38.7705 85.439 38.7705 85.7027 38.9023 85.8345V85.9663C40.2206 88.3393 43.6482 88.3394 45.2301 86.3619C46.9439 84.2526 45.6256 80.8251 43.1209 80.2977Z" fill="#EEEEEE"/>
<path d="M79.7731 262.092C79.1139 264.861 82.146 267.629 84.7826 266.575C84.9144 266.443 85.1781 266.443 85.3099 266.311H85.4418C87.6829 264.993 87.8147 261.433 85.8373 259.851C83.728 258.137 80.3004 259.456 79.7731 262.092Z" fill="#EEEEEE"/>
<path d="M260.511 225.18C263.279 225.839 266.048 222.807 264.993 220.171C264.861 220.039 264.861 219.775 264.729 219.643V219.512C263.411 217.139 259.984 217.138 258.402 219.116C256.688 221.225 258.006 224.521 260.511 225.18Z" fill="#EEEEEE"/>
<path d="M126.836 0.540377C113.653 -2.09623 93.6146 8.97753 99.0197 24.929C100.338 28.8839 103.502 32.0478 107.193 33.1025C111.016 34.8162 115.762 34.4208 119.058 31.5205C122.749 28.4884 124.727 22.5561 121.958 18.2057C119.453 14.119 113.521 13.5916 110.225 17.0192C107.325 20.0513 107.589 24.4017 110.093 27.4338C107.852 27.302 106.007 25.72 104.952 23.7425C102.843 19.9194 105.216 14.9098 107.852 12.0096C111.807 7.79099 117.871 5.6817 123.54 6.07719C123.672 6.07719 123.804 6.07719 123.804 6.07719C123.936 6.07719 124.199 6.20907 124.463 6.20907C124.595 6.20907 124.727 6.20907 124.99 6.20907C125.386 6.3409 125.913 6.34092 126.309 6.47275C131.186 8.18655 133.691 15.9646 133.823 20.1832C134.087 24.4017 132.636 28.4883 129.341 31.2568C124.727 35.3435 118.662 37.3211 114.048 41.5396C114.048 41.5396 114.048 41.5396 113.916 41.5396C111.807 42.9898 109.83 44.7036 108.116 46.6811C101.788 54.1954 100.733 64.0827 104.82 72.9154C106.402 76.343 111.544 73.3108 109.962 69.8832C104.952 58.8094 111.939 47.2083 122.881 43.7807C130.263 41.4077 139.096 42.3307 143.71 34.8163C152.016 21.3696 141.074 3.30882 126.836 0.540377Z" fill="#EEEEEE"/>
<path d="M69.6221 194.595C58.6802 199.736 47.0791 192.617 43.6515 181.675C41.2786 174.161 42.3332 165.328 34.687 160.714C21.3722 152.541 3.31139 163.483 0.542948 177.852C-2.09366 191.167 8.98009 211.337 24.7998 205.8C28.7547 204.482 31.7868 201.318 32.9733 197.495C34.6871 193.672 34.2915 188.926 31.3913 185.498C28.3592 181.807 22.4268 179.83 18.2082 182.466C14.1215 184.971 13.726 190.903 17.0218 194.199C20.0539 197.099 24.4043 196.836 27.3045 194.331C27.1727 196.572 25.5907 198.549 23.6133 199.604C19.7902 201.713 14.7807 199.34 11.8804 196.704C7.6618 192.749 5.55252 186.685 6.07984 180.884C6.07984 180.752 6.07984 180.621 6.07984 180.621C6.07984 180.489 6.21164 180.225 6.21164 179.961C6.21164 179.83 6.21164 179.698 6.21164 179.434C6.34347 179.039 6.34349 178.511 6.47532 178.116C8.05729 173.238 15.9671 170.733 20.0538 170.47C24.2724 170.206 28.2274 171.656 31.1276 174.952C35.2144 179.566 37.1918 185.63 41.4104 190.376C41.4104 190.376 41.4104 190.376 41.4104 190.508C42.8605 192.749 44.4425 194.726 46.4199 196.308C53.9343 202.636 63.8216 203.691 72.5224 199.604C75.95 198.154 73.0497 193.013 69.6221 194.595Z" fill="#EEEEEE"/>
<path d="M176.801 304.937C189.984 307.574 210.022 296.5 204.617 280.549C203.298 276.594 200.135 273.43 196.443 272.375C192.62 270.661 187.874 271.057 184.579 273.957C180.887 276.989 178.91 282.922 181.678 287.272C184.183 291.359 190.115 291.886 193.411 288.459C196.311 285.426 196.048 281.076 193.543 278.044C195.784 278.176 197.63 279.758 198.684 281.735C200.794 285.558 198.421 290.568 195.784 293.468C191.829 297.687 185.765 299.796 180.096 299.4C179.964 299.4 179.833 299.4 179.833 299.4C179.701 299.4 179.437 299.269 179.173 299.269C179.042 299.269 178.91 299.269 178.646 299.269C178.251 299.137 177.723 299.137 177.328 299.005C172.45 297.291 169.945 289.513 169.813 285.295C169.55 281.076 171 276.989 174.296 274.221C178.91 270.134 184.974 268.157 189.588 263.938C189.588 263.938 189.588 263.938 189.72 263.938C191.829 262.488 193.807 260.774 195.52 258.797C201.848 251.282 202.903 241.395 198.816 232.562C197.234 229.135 192.093 232.167 193.675 235.594C198.684 246.668 191.697 258.269 180.755 261.697C173.373 264.07 164.54 263.147 159.926 270.661C151.621 283.976 162.563 302.169 176.801 304.937Z" fill="#EEEEEE"/>
<path d="M234.147 110.751C245.089 105.609 256.69 112.728 260.118 123.67C262.491 131.185 261.436 140.017 269.082 144.631C282.397 152.805 300.458 141.863 303.226 127.493C305.863 114.178 294.789 94.0083 278.969 99.5452C275.015 100.863 271.982 104.027 270.796 107.851C269.082 111.805 269.478 116.419 272.378 119.847C275.41 123.538 281.342 125.516 285.561 122.879C289.648 120.374 290.043 114.442 286.747 111.146C283.715 108.246 279.365 108.51 276.465 111.014C276.596 108.773 278.178 106.796 280.156 105.741C283.979 103.632 288.989 106.005 291.889 108.641C296.107 112.596 298.217 118.661 297.689 124.461C297.689 124.593 297.689 124.725 297.689 124.725C297.689 124.857 297.558 125.12 297.558 125.384C297.558 125.516 297.558 125.648 297.558 125.911C297.426 126.307 297.426 126.834 297.294 127.23C295.712 132.107 287.802 134.612 283.715 134.876C279.497 135.139 275.542 133.689 272.642 130.394C268.555 125.779 266.577 119.715 262.359 114.969C262.359 114.969 262.359 114.969 262.359 114.837C260.909 112.596 259.327 110.619 257.349 109.037C249.835 102.709 239.948 101.654 231.247 105.741C227.687 107.191 230.588 112.333 234.147 110.751Z" fill="#EEEEEE"/>
<path d="M72.5207 105.61C64.0836 101.655 54.46 102.446 46.9456 108.378C44.7045 110.224 42.727 112.333 41.2769 114.838C37.4538 119.188 35.2127 124.462 31.9169 129.076C29.2803 132.767 25.5891 134.744 20.975 134.744C16.7564 134.744 8.97844 132.503 6.73732 127.889C6.47366 127.098 6.3418 126.307 6.20997 125.648C5.28715 119.848 7.13281 113.388 11.3514 109.169C14.1198 106.401 18.4702 104.028 22.557 105.082C24.4026 105.61 26.9074 107.587 27.4347 109.433C27.5665 109.96 27.6984 110.487 27.6984 111.015C24.9299 108.51 20.5795 107.983 17.4156 110.751C13.7243 114.047 13.988 120.111 18.2066 122.88C22.4251 125.516 28.0939 123.671 31.126 120.243C34.1581 116.815 34.6854 111.938 32.8397 107.851C32.1806 105.742 30.9941 103.764 29.2803 102.182C15.9654 90.4493 0.541278 108.774 0.0139562 121.825C-0.513366 136.854 13.988 150.037 29.0167 146.873C38.904 144.764 41.1451 136.985 42.727 128.021C44.9682 115.365 56.4374 104.555 69.6205 110.751C73.048 112.333 76.0802 107.192 72.5207 105.61Z" fill="#EEEEEE"/>
<path d="M121.166 305.333C136.195 305.86 149.246 291.359 146.082 276.198C143.973 266.179 136.195 264.07 127.362 262.488C114.838 260.247 104.028 248.646 110.224 235.463C111.806 232.035 106.665 229.003 105.083 232.431C101.128 241 101.919 250.623 107.851 258.138C109.697 260.379 111.806 262.356 114.179 263.938C118.529 267.761 123.671 270.002 128.285 273.43C131.976 276.199 133.954 279.758 133.954 284.504C133.954 288.722 131.712 296.5 127.098 298.741C126.307 299.005 125.516 299.269 124.857 299.269C119.057 300.192 112.729 298.346 108.51 294.127C105.742 291.359 103.369 287.009 104.424 282.922C104.951 281.076 106.928 278.571 108.774 278.044C109.301 277.912 109.829 277.78 110.356 277.78C107.851 280.549 107.324 284.899 110.092 288.063C113.256 291.754 119.452 291.491 122.089 287.272C124.725 283.054 122.88 277.385 119.452 274.221C116.025 271.189 111.147 270.662 107.192 272.507C105.083 273.166 103.105 274.353 101.655 276.067C89.9222 289.382 108.115 304.806 121.166 305.333Z" fill="#EEEEEE"/>
<path d="M303.622 183.521C304.149 168.493 289.648 155.31 274.619 158.474C264.732 160.583 262.491 168.361 260.909 177.325C258.668 189.981 247.199 200.791 234.016 194.595C230.588 193.013 227.556 198.155 230.984 199.737C239.421 203.692 249.044 202.901 256.559 196.968C258.8 195.123 260.777 193.013 262.227 190.508C266.05 186.158 268.292 180.885 271.587 176.271C274.356 172.579 277.915 170.602 282.529 170.602C286.748 170.602 294.526 172.843 296.767 177.457C297.031 178.248 297.162 179.039 297.294 179.698C298.217 185.499 296.371 191.959 292.153 196.177C289.384 198.946 285.034 201.319 280.947 200.264C279.102 199.737 276.597 197.759 276.07 195.913C275.938 195.386 275.806 194.859 275.806 194.332C278.574 196.836 282.925 197.364 286.089 194.595C289.78 191.299 289.516 185.235 285.298 182.467C281.079 179.83 275.41 181.676 272.378 185.103C269.346 188.531 268.819 193.409 270.665 197.496C271.324 199.605 272.51 201.582 274.224 203.164C287.671 214.897 303.227 196.573 303.622 183.521Z" fill="#EEEEEE"/>
<path d="M193.541 17.415C190.377 13.7238 184.181 13.9876 181.545 18.2061C178.908 22.4247 180.754 28.0933 184.181 31.2572C187.609 34.2893 192.486 34.8167 196.441 32.9711C198.551 32.3119 200.528 31.1255 201.978 29.4117C213.711 15.965 195.387 0.408959 182.467 0.0134672C167.439 -0.513855 154.387 13.9875 157.551 29.148C159.661 39.1671 167.439 41.2764 176.271 42.8584C188.795 45.0995 199.605 56.7006 193.409 69.8836C191.827 73.3112 196.969 76.3434 198.551 72.9158C202.506 64.3468 201.715 54.7232 195.782 47.2089C193.937 44.9677 191.827 42.9902 189.454 41.4083C185.104 37.5852 179.963 35.344 175.349 31.9164C171.657 29.1479 169.68 25.5887 169.68 20.8428C169.68 16.6242 171.921 8.84611 176.535 6.60499C177.326 6.34133 178.117 6.07764 178.776 6.07764C184.577 5.15482 190.905 7.00048 195.123 11.2191C197.892 13.9875 200.264 18.3379 199.21 22.4247C198.683 24.2703 196.705 26.775 194.859 27.3023C194.332 27.4341 193.805 27.5661 193.277 27.5661C195.782 24.9295 196.31 20.579 193.541 17.415Z" fill="#EEEEEE"/>
</g>
</svg>
